<?xml version="1.0" encoding="utf-8"?>
<!-- Generator: Adobe Illustrator 17.1.0, SVG Export Plug-In . SVG Version: 6.00 Build 0)  -->
<!DOCTYPE svg PUBLIC "-//W3C//DTD SVG 1.1//EN" "http://www.w3.org/Graphics/SVG/1.1/DTD/svg11.dtd">
<svg version="1.1" id="Layer_1" xmlns="http://www.w3.org/2000/svg" xmlns:xlink="http://www.w3.org/1999/xlink" x="0px" y="0px"
	 viewBox="0 0 32 32" enable-background="new 0 0 32 32" xml:space="preserve">
<path id="card-empty" fill="#FFFFFF" d="M29,5H3C1.3,5,0,6.3,0,8v18c0,1.7,1.3,3,3,3h26c1.7,0,3-1.3,3-3V8C32,6.3,30.7,5,29,5z M3,7
	h26c0.6,0,1,0.4,1,1v3H2V8C2,7.4,2.4,7,3,7z M29,27H3c-0.6,0-1-0.4-1-1V13h28v13C30,26.5,29.6,27,29,27z"/>
</svg>
