<?xml version="1.0" encoding="utf-8"?>
<!-- Generator: Adobe Illustrator 17.1.0, SVG Export Plug-In . SVG Version: 6.00 Build 0)  -->
<!DOCTYPE svg PUBLIC "-//W3C//DTD SVG 1.1//EN" "http://www.w3.org/Graphics/SVG/1.1/DTD/svg11.dtd">
<svg version="1.1" id="Layer_1" xmlns="http://www.w3.org/2000/svg" xmlns:xlink="http://www.w3.org/1999/xlink" x="0px" y="0px"
	 viewBox="0 0 32 32" enable-background="new 0 0 32 32" xml:space="preserve">
<g id="gift-full">
	<path fill="#FFFFFF" d="M2,29c0,0.6,0.4,1,1,1h12V19H2V29z"/>
	<path fill="#FFFFFF" d="M31,10H19.3c1.8-0.6,3.7-1.4,4.4-2.1c1.6-1.6,1.6-4.1,0-5.7C23,1.5,22,1.1,20.9,1.1s-2.1,0.4-2.8,1.2
		C17.4,3,16.6,5,16,6.7C15.4,5,14.6,3,13.8,2.2c-0.8-0.8-1.8-1.2-2.8-1.2S8.9,1.5,8.2,2.2C7.4,3,7,4,7,5.1s0.4,2.1,1.2,2.8
		c0.7,0.7,2.7,1.5,4.4,2.1H1c-0.6,0-1,0.4-1,1v5c0,0.6,0.4,1,1,1h14v-7h2v7h14c0.6,0,1-0.4,1-1v-5C32,10.4,31.6,10,31,10z M9.6,6.5
		C9.2,6.1,9,5.6,9,5.1s0.2-1,0.6-1.4C10,3.3,10.5,3.1,11,3.1s1,0.2,1.4,0.6c0.5,0.5,1.3,2.6,2,4.9C12.2,7.8,10.1,6.9,9.6,6.5z
		 M19.5,3.6c0.4-0.4,0.9-0.6,1.4-0.6s1,0.2,1.4,0.6c0.8,0.8,0.8,2,0,2.8c-0.5,0.5-2.6,1.3-4.9,2C18.2,6.3,19.1,4.1,19.5,3.6z"/>
	<path fill="#FFFFFF" d="M17,30h12c0.6,0,1-0.4,1-1V19H17V30z"/>
</g>
</svg>
