<?xml version="1.0" encoding="utf-8"?>
<!-- Generator: Adobe Illustrator 17.1.0, SVG Export Plug-In . SVG Version: 6.00 Build 0)  -->
<!DOCTYPE svg PUBLIC "-//W3C//DTD SVG 1.1//EN" "http://www.w3.org/Graphics/SVG/1.1/DTD/svg11.dtd">
<svg version="1.1" id="Layer_1" xmlns="http://www.w3.org/2000/svg" xmlns:xlink="http://www.w3.org/1999/xlink" x="0px" y="0px"
	 viewBox="0 0 32 32" enable-background="new 0 0 32 32" xml:space="preserve">
<path id="gift-empty" fill="#FFFFFF" d="M31,10H19.3c1.8-0.6,3.7-1.4,4.4-2.1c1.6-1.6,1.6-4.1,0-5.7C23,1.5,22,1,20.9,1
	s-2.1,0.4-2.8,1.2C17.4,3,16.6,4.9,16,6.7c-0.6-1.8-1.4-3.8-2.1-4.5C13.1,1.5,12.1,1,11,1S8.9,1.5,8.2,2.2C7.4,3,7,4,7,5
	s0.4,2.1,1.2,2.8c0.7,0.7,2.7,1.5,4.4,2.1H1c-0.6,0-1,0.4-1,1v5c0,0.6,0.4,1,1,1h1v12c0,0.6,0.4,1,1,1h26c0.6,0,1-0.4,1-1V17h1
	c0.6,0,1-0.4,1-1v-5C32,10.4,31.6,10,31,10z M19.5,3.6C19.9,3.3,20.4,3,20.9,3s1,0.2,1.4,0.6c0.8,0.8,0.8,2,0,2.8
	c-0.5,0.5-2.6,1.3-4.9,2C18.2,6.3,19.1,4.1,19.5,3.6z M9,5c0-0.5,0.2-1,0.6-1.4C10,3.3,10.5,3,11,3s1,0.2,1.4,0.6
	c0.5,0.5,1.3,2.6,2,4.9c-2.2-0.7-4.4-1.6-4.9-2C9.2,6.1,9,5.6,9,5z M2,12h13v3H2V12z M4,17h11v11H4V17z M28,28H17V17h11V28z M30,15
	H17v-3h13V15z"/>
</svg>
