<?xml version="1.0" encoding="utf-8"?>
<!-- Generator: Adobe Illustrator 17.1.0, SVG Export Plug-In . SVG Version: 6.00 Build 0)  -->
<!DOCTYPE svg PUBLIC "-//W3C//DTD SVG 1.1//EN" "http://www.w3.org/Graphics/SVG/1.1/DTD/svg11.dtd">
<svg version="1.1" id="Layer_1" xmlns="http://www.w3.org/2000/svg" xmlns:xlink="http://www.w3.org/1999/xlink" x="0px" y="0px"
	 viewBox="0 0 32 32" enable-background="new 0 0 32 32" xml:space="preserve">
<g id="plus-empty">
	<path fill="#FFFFFF" d="M23,15h-6V9c0-0.6-0.4-1-1-1s-1,0.4-1,1v6H9c-0.6,0-1,0.4-1,1c0,0.6,0.4,1,1,1h6v6c0,0.6,0.4,1,1,1
		s1-0.4,1-1v-6h6c0.6,0,1-0.4,1-1C24,15.4,23.6,15,23,15z"/>
	<path fill="#FFFFFF" d="M16,0C7.2,0,0,7.2,0,16s7.2,16,16,16s16-7.2,16-16S24.8,0,16,0z M16,30C8.3,30,2,23.7,2,16S8.3,2,16,2
		s14,6.3,14,14S23.7,30,16,30z"/>
</g>
</svg>
