<?xml version="1.0" encoding="utf-8"?>
<!-- Generator: Adobe Illustrator 17.1.0, SVG Export Plug-In . SVG Version: 6.00 Build 0)  -->
<!DOCTYPE svg PUBLIC "-//W3C//DTD SVG 1.1//EN" "http://www.w3.org/Graphics/SVG/1.1/DTD/svg11.dtd">
<svg version="1.1" id="Layer_1" xmlns="http://www.w3.org/2000/svg" xmlns:xlink="http://www.w3.org/1999/xlink" x="0px" y="0px"
	 viewBox="0 0 32 32" enable-background="new 0 0 32 32" xml:space="preserve">
<g id="wallet-empty">
	<path fill="#FFFFFF" d="M31,10H4c-0.2,0-0.4,0-0.6-0.1c0,0-0.1,0-0.1,0c-0.6-0.2-1-0.6-1.2-1.2c0,0,0,0,0,0C2,8.4,2,8.2,2,8
		c0-1.1,0.9-2,2-2h26c0.6,0,1-0.4,1-1s-0.4-1-1-1H4C1.8,4,0,5.8,0,8c0,0.2,0,0.4,0.1,0.7C0,8.8,0,8.9,0,9v18c0,2.2,1.8,4,4,4h27
		c0.6,0,1-0.4,1-1v-5v-8v-6C32,10.4,31.6,10,31,10z M4,29c-1.1,0-2-0.9-2-2V11.5c0.1,0.1,0.2,0.1,0.3,0.2c0.1,0,0.1,0.1,0.2,0.1
		c0.2,0.1,0.4,0.1,0.6,0.2c0.1,0,0.1,0,0.2,0C3.5,12,3.8,12,4,12h26v4h-5c-2.8,0-5,2.2-5,5s2.2,5,5,5h5v3H4z M30,24h-5
		c-1.7,0-3-1.3-3-3s1.3-3,3-3h5V24z"/>
	<circle fill="#FFFFFF" cx="25" cy="21" r="2"/>
</g>
</svg>
