<?xml version="1.0" encoding="utf-8"?>
<!-- Generator: Adobe Illustrator 17.1.0, SVG Export Plug-In . SVG Version: 6.00 Build 0)  -->
<!DOCTYPE svg PUBLIC "-//W3C//DTD SVG 1.1//EN" "http://www.w3.org/Graphics/SVG/1.1/DTD/svg11.dtd">
<svg version="1.1" id="Layer_1" xmlns="http://www.w3.org/2000/svg" xmlns:xlink="http://www.w3.org/1999/xlink" x="0px" y="0px"
	 viewBox="0 0 32 32" enable-background="new 0 0 32 32" xml:space="preserve">
<g id="chat-empty">
	<path fill="#414042" d="M27,31c-0.2,0-0.4-0.1-0.6-0.2L18.7,25H3c-1.7,0-3-1.3-3-3V6c0-1.7,1.3-3,3-3h26c1.7,0,3,1.3,3,3v16
		c0,1.7-1.3,3-3,3h-1v5c0,0.4-0.2,0.7-0.6,0.9C27.3,31,27.2,31,27,31z M3,5C2.4,5,2,5.4,2,6v16c0,0.6,0.4,1,1,1h16
		c0.2,0,0.4,0.1,0.6,0.2L26,28v-4c0-0.6,0.4-1,1-1h2c0.6,0,1-0.4,1-1V6c0-0.6-0.4-1-1-1H3z"/>
</g>
</svg>
