<?xml version="1.0" encoding="utf-8"?>
<!-- Generator: Adobe Illustrator 17.1.0, SVG Export Plug-In . SVG Version: 6.00 Build 0)  -->
<!DOCTYPE svg PUBLIC "-//W3C//DTD SVG 1.1//EN" "http://www.w3.org/Graphics/SVG/1.1/DTD/svg11.dtd">
<svg version="1.1" id="Layer_1" xmlns="http://www.w3.org/2000/svg" xmlns:xlink="http://www.w3.org/1999/xlink" x="0px" y="0px"
	 viewBox="0 0 32 32" enable-background="new 0 0 32 32" xml:space="preserve">
<path id="x-full" fill="#414042" d="M16,0C7.2,0,0,7.2,0,16s7.2,16,16,16s16-7.2,16-16S24.8,0,16,0z M21.7,20.2c0.4,0.4,0.4,1,0,1.4
	c-0.2,0.2-0.5,0.3-0.7,0.3s-0.5-0.1-0.7-0.3L16,17.4l-4.2,4.2c-0.2,0.2-0.5,0.3-0.7,0.3s-0.5-0.1-0.7-0.3c-0.4-0.4-0.4-1,0-1.4
	l4.2-4.2l-4.2-4.2c-0.4-0.4-0.4-1,0-1.4s1-0.4,1.4,0l4.2,4.2l4.2-4.2c0.4-0.4,1-0.4,1.4,0s0.4,1,0,1.4L17.4,16L21.7,20.2z"/>
</svg>
