<?xml version="1.0" encoding="iso-8859-1"?>
<!-- Generator: Adobe Illustrator 16.0.0, SVG Export Plug-In . SVG Version: 6.00 Build 0)  -->
<!DOCTYPE svg PUBLIC "-//W3C//DTD SVG 1.1//EN" "http://www.w3.org/Graphics/SVG/1.1/DTD/svg11.dtd">
<svg version="1.1" id="Capa_1" xmlns="http://www.w3.org/2000/svg" xmlns:xlink="http://www.w3.org/1999/xlink" x="0px" y="0px"
	 width="91.371px" height="91.37px" viewBox="0 0 91.371 91.37" style="enable-background:new 0 0 91.371 91.37;"
	 xml:space="preserve">
<g>
	<g>
		<polygon points="39.222,91.37 52.15,91.328 45.813,80.868 		"/>
		<polygon points="52.15,0 39.222,0.042 45.558,10.502 		"/>
		<g>
			<path d="M36.039,25.816c-0.317-0.439-1.387-0.328-1.37,0.663c-0.012,0.027,0.13,1.222,1.963,5.653
				C36.841,28.535,36.586,26.594,36.039,25.816z"/>
			<path d="M48.445,50.779c-4.072-4.071-7.516-7.864-10.042-10.762v0.002l-0.188-0.214c-1.411,4.018-3.335,9.22-4.704,12.878
				c4.409-1.07,9.593-1.625,15.167-1.652L48.445,50.779z"/>
			<path d="M21.903,63.418c-0.16,0.518,0.572,1.305,1.354,0.696c0.028-0.007,0.897-0.839,3.336-4.968
				C23.593,61.141,22.195,62.512,21.903,63.418z"/>
			<path d="M74.657,11.617H16.715c-2.816,0-5.099,2.283-5.099,5.099v57.938c0,2.816,2.283,5.1,5.099,5.1h57.94
				c2.812,0,5.098-2.283,5.098-5.1V16.715C79.753,13.899,77.47,11.617,74.657,11.617z M73.521,60.914l-0.07,0.236
				c-1.032,2.768-3.098,4.33-5.682,4.32c-2.885-0.012-4.543-1.461-4.543-1.461c-3.052-2.406-6.15-5.058-9.246-7.908
				c-1.701-0.097-3.392-0.146-5.03-0.146c-6.876,0-12.794,0.834-17.598,2.479l-0.559,1.475c-2.895,7.379-6.894,8.479-9.02,8.479
				c-0.238,0-0.453-0.014-0.639-0.033c-0.449-0.051-0.728-0.137-0.779-0.154l-0.272-0.105c-1.168-0.574-1.917-1.459-2.243-2.596
				c-0.665-2.309,0.757-4.773,1.051-5.245c0,0,2.067-3.702,8.636-5.637c2.029-5.39,5.417-14.48,6.988-19.204
				c-1.267-1.552-1.909-2.397-1.913-2.404c-2.499-3.466-3.261-6.4-2.276-8.73c0.934-2.206,3.169-3.088,4.343-3.264
				c0.295-0.046,0.6-0.071,0.899-0.071c1.605,0,2.992,0.688,3.902,1.938c1.524,2.093,1.731,5.688,0.639,10.991
				c-0.027,0.125-0.061,0.273-0.104,0.441c3.034,3.602,8.853,10.22,16.05,16.986c1.199,0.09,2.401,0.2,3.578,0.328
				c4.035,0.439,6.717,0.971,7.01,1.028c0.112,0.014,4.135,0.606,6.07,3.456C73.655,57.501,73.933,59.162,73.521,60.914z"/>
			<path d="M67.646,60.135c0.539-0.041,1.006-1.01,0.153-1.515c-0.017-0.022-1.108-0.53-5.843-1.293
				C64.91,59.393,66.697,60.193,67.646,60.135z"/>
		</g>
	</g>
</g>
<g>
</g>
<g>
</g>
<g>
</g>
<g>
</g>
<g>
</g>
<g>
</g>
<g>
</g>
<g>
</g>
<g>
</g>
<g>
</g>
<g>
</g>
<g>
</g>
<g>
</g>
<g>
</g>
<g>
</g>
</svg>
