<?xml version="1.0" encoding="iso-8859-1"?>
<!-- Generator: Adobe Illustrator 16.0.0, SVG Export Plug-In . SVG Version: 6.00 Build 0)  -->
<!DOCTYPE svg PUBLIC "-//W3C//DTD SVG 1.1//EN" "http://www.w3.org/Graphics/SVG/1.1/DTD/svg11.dtd">
<svg version="1.1" id="Capa_1" xmlns="http://www.w3.org/2000/svg" xmlns:xlink="http://www.w3.org/1999/xlink" x="0px" y="0px"
	 width="95.016px" height="95.016px" viewBox="0 0 95.016 95.016" style="enable-background:new 0 0 95.016 95.016;"
	 xml:space="preserve">
<g>
	<g id="Layer_1_30_">
		<g>
			<g>
				<g>
					<path d="M95.016,48.301c0-6.457-5.469-12.076-14.465-15.967c1.707-8.656,1.002-16.08-2.414-20.895
						c0.014-0.178,0.027-0.354,0.027-0.535c0-3.605-2.924-6.527-6.527-6.527c-1.633,0-3.119,0.602-4.264,1.592
						c-0.049,0-0.094-0.008-0.143-0.008c-5.552,0-11.976,2.807-18.468,7.793c-6.491-4.986-12.915-7.793-18.466-7.793
						c-3.961,0-7.369,1.439-9.859,4.16c-4.313,4.713-5.332,12.729-3.461,22.213c-6.592,2.852-11.28,6.631-13.319,10.988
						C1.492,44.385,0,46.605,0,49.179c0,3.063,2.117,5.631,4.967,6.332c2.43,3.418,6.57,6.404,12.01,8.756
						c-1.871,9.484-0.852,17.5,3.461,22.214c2.49,2.721,5.898,4.157,9.859,4.157c0,0,0,0,0.002,0c5.549,0,11.973-2.805,18.465-7.791
						c6.492,4.986,12.916,7.791,18.467,7.791c3.959,0,7.369-1.438,9.859-4.157c4.312-4.714,5.332-12.729,3.461-22.214
						C89.547,60.377,95.016,54.756,95.016,48.301z M65.627,13.458c0.994,2.336,3.311,3.975,6.01,3.975
						c0.473,0,0.934-0.053,1.379-0.148c1.223,2.92,1.393,7.295,0.461,12.557c-3.373-0.957-7.055-1.717-10.988-2.248
						c-2.608-3.305-5.301-6.303-8.028-8.928C58.727,15.596,62.58,13.91,65.627,13.458z M59.344,60.979
						c-0.369,0.514-0.738,0.992-1.107,1.486c-3.014,0.305-6.18,0.475-9.473,0.475s-6.459-0.17-9.473-0.475
						c-0.369-0.494-0.738-0.973-1.107-1.486c-3.045-4.244-5.604-8.521-7.689-12.678c2.086-4.158,4.645-8.436,7.689-12.68
						c0.369-0.512,0.738-0.99,1.107-1.486c3.014-0.305,6.18-0.475,9.473-0.475s6.459,0.17,9.473,0.475
						c0.369,0.496,0.738,0.975,1.107,1.486c3.045,4.244,5.604,8.521,7.689,12.68C64.947,52.458,62.389,56.735,59.344,60.979z
						 M70.758,56.899c0.375,1.027,0.713,2.035,1.023,3.027c-1.103,0.316-2.246,0.615-3.437,0.891
						C69.189,59.512,69.994,58.206,70.758,56.899z M48.764,73.209c-1.098-1.031-2.211-2.16-3.33-3.359
						c1.098,0.033,2.205,0.057,3.33,0.057s2.232-0.022,3.332-0.057C50.977,71.049,49.863,72.178,48.764,73.209z M29.182,60.817
						c-1.189-0.274-2.334-0.574-3.436-0.891c0.311-0.992,0.648-2,1.023-3.027C27.533,58.206,28.338,59.512,29.182,60.817z
						 M26.77,39.703c-0.375-1.025-0.713-2.035-1.023-3.027c1.102-0.318,2.246-0.617,3.436-0.891
						C28.338,37.088,27.533,38.397,26.77,39.703z M48.764,23.393c1.098,1.031,2.211,2.16,3.33,3.359
						c-1.098-0.033-2.205-0.057-3.33-0.057s-2.232,0.023-3.33,0.057C46.553,25.553,47.666,24.424,48.764,23.393z M68.346,35.785
						c1.189,0.273,2.334,0.572,3.436,0.891c-0.311,0.992-0.647,2.002-1.022,3.027C69.994,38.397,69.189,37.088,68.346,35.785z
						 M25.862,15.088c1.092-1.191,2.541-1.77,4.436-1.77c3.236,0,7.719,1.717,12.771,5.346c-2.729,2.625-5.42,5.623-8.029,8.928
						c-3.934,0.531-7.615,1.291-10.988,2.248C22.844,23.028,23.479,17.694,25.862,15.088z M11.856,52.942
						c0.752-1.063,1.199-2.358,1.199-3.762c0-1.834-0.758-3.488-1.977-4.674c1.553-1.873,4.186-3.691,7.682-5.287
						c0.939,2.953,2.121,5.996,3.533,9.082c-1.412,3.086-2.594,6.129-3.533,9.082C15.795,56.028,13.446,54.514,11.856,52.942z
						 M30.297,83.284c-1.895,0-3.344-0.578-4.436-1.771c-2.383-2.604-3.018-7.938-1.811-14.75c3.373,0.957,7.055,1.717,10.988,2.248
						c2.609,3.305,5.301,6.303,8.029,8.928C38.018,81.569,33.533,83.284,30.297,83.284z M71.666,81.512
						c-1.092,1.193-2.541,1.771-4.436,1.771c-3.236,0-7.72-1.717-12.771-5.346c2.729-2.625,5.42-5.623,8.029-8.929
						c3.934-0.531,7.615-1.291,10.987-2.248C74.684,73.575,74.049,78.909,71.666,81.512z M78.768,57.383
						c-0.939-2.953-2.121-5.996-3.533-9.082c1.412-3.086,2.594-6.129,3.533-9.082c5.84,2.668,9.283,5.957,9.283,9.082
						C88.051,51.424,84.607,54.713,78.768,57.383z"/>
				</g>
			</g>
		</g>
	</g>
</g>
<g>
</g>
<g>
</g>
<g>
</g>
<g>
</g>
<g>
</g>
<g>
</g>
<g>
</g>
<g>
</g>
<g>
</g>
<g>
</g>
<g>
</g>
<g>
</g>
<g>
</g>
<g>
</g>
<g>
</g>
</svg>
