<?xml version="1.0" encoding="iso-8859-1"?>
<!-- Generator: Adobe Illustrator 16.0.0, SVG Export Plug-In . SVG Version: 6.00 Build 0)  -->
<!DOCTYPE svg PUBLIC "-//W3C//DTD SVG 1.1//EN" "http://www.w3.org/Graphics/SVG/1.1/DTD/svg11.dtd">
<svg version="1.1" id="Capa_1" xmlns="http://www.w3.org/2000/svg" xmlns:xlink="http://www.w3.org/1999/xlink" x="0px" y="0px"
	 width="92.344px" height="92.344px" viewBox="0 0 92.344 92.344" style="enable-background:new 0 0 92.344 92.344;"
	 xml:space="preserve">
<g>
	<g>
		<path d="M90.781,83.239L56.216,48.671c-0.145-0.142-0.307-0.249-0.455-0.372c8.413-11.967,7.305-28.635-3.388-39.326
			C40.41-2.991,20.94-2.991,8.975,8.973c-11.966,11.966-11.966,31.435,0,43.399c10.691,10.693,27.36,11.801,39.326,3.386
			c0.123,0.152,0.229,0.312,0.37,0.455l34.57,34.567c2.083,2.083,5.458,2.083,7.541,0C92.864,88.698,92.864,85.323,90.781,83.239z
			 M30.463,51.833c-11.82,0-21.404-9.582-21.404-21.402S18.643,9.028,30.463,9.028c11.817,0,21.402,9.582,21.402,21.402
			S42.28,51.833,30.463,51.833z"/>
		<polygon points="35.179,12.969 21.157,30.488 35.24,48.005 35.181,36.741 30.921,30.52 35.181,24.235 		"/>
	</g>
</g>
<g>
</g>
<g>
</g>
<g>
</g>
<g>
</g>
<g>
</g>
<g>
</g>
<g>
</g>
<g>
</g>
<g>
</g>
<g>
</g>
<g>
</g>
<g>
</g>
<g>
</g>
<g>
</g>
<g>
</g>
</svg>
