<?xml version="1.0" encoding="iso-8859-1"?>
<!-- Generator: Adobe Illustrator 16.0.0, SVG Export Plug-In . SVG Version: 6.00 Build 0)  -->
<!DOCTYPE svg PUBLIC "-//W3C//DTD SVG 1.1//EN" "http://www.w3.org/Graphics/SVG/1.1/DTD/svg11.dtd">
<svg version="1.1" id="Capa_1" xmlns="http://www.w3.org/2000/svg" xmlns:xlink="http://www.w3.org/1999/xlink" x="0px" y="0px"
	 width="94.575px" height="94.575px" viewBox="0 0 94.575 94.575" style="enable-background:new 0 0 94.575 94.575;"
	 xml:space="preserve">
<g>
	<g>
		<path d="M76.139,44.73c-2.807,0-5.459,0.241-7.842,1.368c0,0-7.566-3.489-21.362-3.489c-13.796,0-21.571,3.484-21.571,3.484
			c-2.141-0.872-4.476-1.362-6.926-1.362C8.271,44.731,0,53.002,0,63.17c0,10.166,8.271,18.438,18.438,18.438
			c9.914,0,18.002-7.869,18.4-17.688c3.432,3.187,7.063,5.588,10.218,5.588c3.34,0,7.139-2.689,10.652-6.156
			c0.101,10.083,8.323,18.256,18.429,18.256c10.168,0,18.438-8.271,18.438-18.438C94.576,53,86.305,44.73,76.139,44.73z
			 M18.438,74.692c-6.354,0-11.524-5.169-11.524-11.523s5.17-11.523,11.524-11.523s11.524,5.169,11.524,11.523
			S24.792,74.692,18.438,74.692z M76.139,74.692c-6.354,0-11.524-5.169-11.524-11.523s5.17-11.523,11.524-11.523
			c6.354,0,11.523,5.169,11.523,11.523S82.492,74.692,76.139,74.692z"/>
		<path d="M18.975,54.625c-4.914,0-8.897,3.982-8.897,8.896c0,2.514,1.046,4.78,2.723,6.396c-0.54-1.146-0.85-2.422-0.85-3.774
			c0-4.915,3.983-8.897,8.897-8.897c2.4,0,4.575,0.955,6.175,2.5C25.602,56.724,22.538,54.625,18.975,54.625z"/>
		<path d="M75.996,54.625c-3.562,0-6.627,2.099-8.048,5.123c1.6-1.545,3.774-2.5,6.174-2.5c4.915,0,8.897,3.982,8.897,8.897
			c0,1.353-0.31,2.628-0.85,3.774c1.676-1.617,2.723-3.883,2.723-6.396C84.893,58.61,80.91,54.625,75.996,54.625z"/>
		<polygon points="59.621,38.929 72.602,25.948 59.621,12.967 59.548,21.315 21.976,21.315 21.976,30.581 59.548,30.581 		"/>
	</g>
</g>
<g>
</g>
<g>
</g>
<g>
</g>
<g>
</g>
<g>
</g>
<g>
</g>
<g>
</g>
<g>
</g>
<g>
</g>
<g>
</g>
<g>
</g>
<g>
</g>
<g>
</g>
<g>
</g>
<g>
</g>
</svg>
