<?xml version="1.0" encoding="iso-8859-1"?>
<!-- Generator: Adobe Illustrator 16.0.0, SVG Export Plug-In . SVG Version: 6.00 Build 0)  -->
<!DOCTYPE svg PUBLIC "-//W3C//DTD SVG 1.1//EN" "http://www.w3.org/Graphics/SVG/1.1/DTD/svg11.dtd">
<svg version="1.1" id="Capa_1" xmlns="http://www.w3.org/2000/svg" xmlns:xlink="http://www.w3.org/1999/xlink" x="0px" y="0px"
	 width="91.691px" height="91.691px" viewBox="0 0 91.691 91.691" style="enable-background:new 0 0 91.691 91.691;"
	 xml:space="preserve">
<g>
	<path d="M78.751,14.5l3.591,3.587L64.905,35.533l-3.589-3.587L78.751,14.5z M91.691,25.079c0,8.726-5.695,16.136-13.559,18.74
		v1.516L25.097,67.527l-0.766,2.43h53.386v7.57h-5.019c0.317,0.772,0.498,1.627,0.498,2.522c0,3.486-2.656,6.312-5.931,6.312
		c-3.278,0-5.934-2.826-5.934-6.312c0-0.896,0.18-1.75,0.496-2.522H30.541c0.316,0.772,0.496,1.627,0.496,2.522
		c0,3.486-2.656,6.312-5.932,6.312c-3.278,0-5.934-2.826-5.934-6.312c0-0.896,0.18-1.75,0.5-2.522h-5.658l4.092-13.011l-9.32-44.964
		L0,18.089l1.245-7.469l13.929,2.325l1.393,6.892h23.924h4.737h7.692c2.303-8.352,9.946-14.508,19.021-14.508
		C82.831,5.329,91.691,14.189,91.691,25.079z M85.691,25.079c0-7.582-6.168-13.75-13.75-13.75s-13.75,6.168-13.75,13.75
		s6.168,13.75,13.75,13.75S85.691,32.661,85.691,25.079z"/>
</g>
<g>
</g>
<g>
</g>
<g>
</g>
<g>
</g>
<g>
</g>
<g>
</g>
<g>
</g>
<g>
</g>
<g>
</g>
<g>
</g>
<g>
</g>
<g>
</g>
<g>
</g>
<g>
</g>
<g>
</g>
</svg>
