<?xml version="1.0" encoding="iso-8859-1"?>
<!-- Generator: Adobe Illustrator 16.0.0, SVG Export Plug-In . SVG Version: 6.00 Build 0)  -->
<!DOCTYPE svg PUBLIC "-//W3C//DTD SVG 1.1//EN" "http://www.w3.org/Graphics/SVG/1.1/DTD/svg11.dtd">
<svg version="1.1" id="Capa_1" xmlns="http://www.w3.org/2000/svg" xmlns:xlink="http://www.w3.org/1999/xlink" x="0px" y="0px"
	 width="93.757px" height="93.757px" viewBox="0 0 93.757 93.757" style="enable-background:new 0 0 93.757 93.757;"
	 xml:space="preserve">
<g>
	<path d="M75.636,21.738L57.002,8.872L60.107,0L75.636,21.738z M87.964,72.757c0,9.174-5.99,16.963-14.26,19.696v1.304H5.792V0.662
		H53.41l-3.832,10.949L73.705,28.27v24.792C81.974,55.794,87.964,63.583,87.964,72.757z M81.464,72.756
		c0-7.855-6.393-14.25-14.25-14.25s-14.25,6.395-14.25,14.25s6.393,14.25,14.25,14.25S81.464,80.611,81.464,72.756z M56.779,79.759
		l3.59,3.591L77.81,65.904l-3.591-3.588L56.779,79.759z"/>
</g>
<g>
</g>
<g>
</g>
<g>
</g>
<g>
</g>
<g>
</g>
<g>
</g>
<g>
</g>
<g>
</g>
<g>
</g>
<g>
</g>
<g>
</g>
<g>
</g>
<g>
</g>
<g>
</g>
<g>
</g>
</svg>
