<?xml version="1.0" encoding="iso-8859-1"?>
<!-- Generator: Adobe Illustrator 16.0.0, SVG Export Plug-In . SVG Version: 6.00 Build 0)  -->
<!DOCTYPE svg PUBLIC "-//W3C//DTD SVG 1.1//EN" "http://www.w3.org/Graphics/SVG/1.1/DTD/svg11.dtd">
<svg version="1.1" id="Capa_1" xmlns="http://www.w3.org/2000/svg" xmlns:xlink="http://www.w3.org/1999/xlink" x="0px" y="0px"
	 width="89.26px" height="89.26px" viewBox="0 0 89.26 89.26" style="enable-background:new 0 0 89.26 89.26;" xml:space="preserve"
	>
<g>
	<path d="M82.417,59.005c-0.919-1.897-2.843-3.104-4.951-3.104h-6.563V37.232c0-2.014-1.086-3.771-2.703-4.729V23.54v-6.699
		l-3.745-7.355l3.323-6.32c0.354-0.67,0.33-1.475-0.061-2.121C67.325,0.397,66.624,0,65.868,0H8.451C7.26,0,6.293,0.967,6.293,2.16
		l0.051,80.307h10.369V16.841h-6.102V4.319h51.68l-2.186,4.15c-0.328,0.625-0.332,1.369-0.006,1.998l3.295,6.373H20.964v65.625
		h7.914h6.818h14.527h1.51l3.727,4.709c1.043,1.318,2.632,2.086,4.312,2.086c1.682,0,3.271-0.768,4.313-2.086l17.692-22.361
		C83.087,63.158,83.335,60.9,82.417,59.005z M59.881,83.109l-17.692-22.36h12.063V36.581H65.51v24.168h12.062L59.881,83.109z"/>
</g>
<g>
</g>
<g>
</g>
<g>
</g>
<g>
</g>
<g>
</g>
<g>
</g>
<g>
</g>
<g>
</g>
<g>
</g>
<g>
</g>
<g>
</g>
<g>
</g>
<g>
</g>
<g>
</g>
<g>
</g>
</svg>
