<?xml version="1.0" encoding="iso-8859-1"?>
<!-- Generator: Adobe Illustrator 16.0.0, SVG Export Plug-In . SVG Version: 6.00 Build 0)  -->
<!DOCTYPE svg PUBLIC "-//W3C//DTD SVG 1.1//EN" "http://www.w3.org/Graphics/SVG/1.1/DTD/svg11.dtd">
<svg version="1.1" id="Capa_1" xmlns="http://www.w3.org/2000/svg" xmlns:xlink="http://www.w3.org/1999/xlink" x="0px" y="0px"
	 width="87.965px" height="87.965px" viewBox="0 0 87.965 87.965" style="enable-background:new 0 0 87.965 87.965;"
	 xml:space="preserve">
<g>
	<g>
		<path d="M61.575,61.243c-3.084,0-5.594,2.508-5.594,5.594c0,3.084,2.51,5.593,5.594,5.593s5.595-2.509,5.595-5.593
			C67.169,63.751,64.659,61.243,61.575,61.243z"/>
		<path d="M79.772,58.574c0.063-0.381,0.098-0.77,0.098-1.157c0-1.879-0.731-3.646-2.061-4.976l-2.849-2.848
			c-1.556-1.562-3.919-2.305-6.124-1.947c-0.462-0.649-1.034-1.217-1.686-1.678v-2.822V23.54v-6.699h-0.03
			c-0.039-0.184-3.716-7.355-3.716-7.355l3.324-6.32c0.354-0.67,0.33-1.475-0.061-2.121C66.276,0.397,65.575,0,64.819,0H7.404
			C6.213,0,5.247,0.967,5.247,2.16l0.051,80.307h10.369V16.84H9.564V4.319h51.68l-2.186,4.15c-0.328,0.625-0.332,1.369-0.007,1.998
			l3.295,6.373h-42.43v65.625h7.914h6.818h11.96l0.584,0.584c1.555,1.557,3.916,2.297,6.117,1.941
			c1.276,1.799,3.375,2.975,5.741,2.975h4.041c2.362,0,4.456-1.17,5.731-2.961c2.201,0.369,4.558-0.383,6.123-1.949l2.859-2.859
			c1.666-1.666,2.32-3.967,1.963-6.133c1.783-1.276,2.948-3.367,2.948-5.725v-4.041C82.72,61.941,81.555,59.852,79.772,58.574z
			 M77.72,68.855c0,0.849-0.688,1.537-1.536,1.537h-2.443c-0.254,0.879-0.605,1.728-1.047,2.531l1.727,1.727
			c0.6,0.601,0.6,1.574,0,2.174l-2.857,2.855c-0.58,0.58-1.592,0.58-2.17,0l-1.729-1.727c-0.804,0.443-1.653,0.793-2.532,1.049
			v2.443c0,0.848-0.688,1.535-1.536,1.535h-4.042c-0.847,0-1.535-0.688-1.535-1.535v-2.443c-0.879-0.256-1.729-0.605-2.533-1.049
			l-1.728,1.727c-0.558,0.561-1.612,0.559-2.17,0l-2.858-2.855c-0.289-0.291-0.449-0.676-0.449-1.088
			c0-0.403,0.164-0.801,0.451-1.086l1.726-1.727c-0.44-0.805-0.793-1.652-1.048-2.531h-2.443c-0.848,0-1.536-0.688-1.536-1.537
			v-4.041c0-0.848,0.688-1.535,1.536-1.535h2.443c0.255-0.879,0.605-1.729,1.048-2.532l-1.728-1.728c-0.6-0.6-0.6-1.572,0-2.172
			l2.858-2.857c0.579-0.579,1.591-0.579,2.17,0l1.728,1.728c0.805-0.442,1.654-0.793,2.533-1.049v-2.442
			c0-0.847,0.688-1.535,1.535-1.535h4.041c0.848,0,1.536,0.688,1.536,1.535v2.442c0.879,0.256,1.729,0.604,2.532,1.049l1.729-1.728
			c0.559-0.559,1.614-0.559,2.17,0l2.858,2.857c0.29,0.289,0.448,0.676,0.448,1.086c0,0.404-0.163,0.801-0.449,1.086l-1.725,1.728
			c0.439,0.805,0.791,1.653,1.047,2.532h2.443c0.848,0,1.535,0.688,1.535,1.535L77.72,68.855L77.72,68.855z"/>
	</g>
</g>
<g>
</g>
<g>
</g>
<g>
</g>
<g>
</g>
<g>
</g>
<g>
</g>
<g>
</g>
<g>
</g>
<g>
</g>
<g>
</g>
<g>
</g>
<g>
</g>
<g>
</g>
<g>
</g>
<g>
</g>
</svg>
