<?xml version="1.0" encoding="iso-8859-1"?>
<!-- Generator: Adobe Illustrator 16.0.0, SVG Export Plug-In . SVG Version: 6.00 Build 0)  -->
<!DOCTYPE svg PUBLIC "-//W3C//DTD SVG 1.1//EN" "http://www.w3.org/Graphics/SVG/1.1/DTD/svg11.dtd">
<svg version="1.1" id="Capa_1" xmlns="http://www.w3.org/2000/svg" xmlns:xlink="http://www.w3.org/1999/xlink" x="0px" y="0px"
	 width="87.261px" height="87.261px" viewBox="0 0 87.261 87.261" style="enable-background:new 0 0 87.261 87.261;"
	 xml:space="preserve">
<g>
	<path d="M80.521,53.865L67.19,37.018V23.541c0,0,0.008-6.385,0-6.465l-3.746-7.59l3.324-6.32c0.354-0.67,0.33-1.475-0.061-2.121
		C66.314,0.397,65.613,0,64.857,0H7.442C6.251,0,5.284,0.967,5.284,2.16l0.051,80.307h10.369V16.842H9.603V4.32h51.68l-2.186,4.15
		c-0.328,0.625-0.332,1.369-0.006,1.998l3.295,6.373h-42.43v65.625h7.914h6.818h12.997c0.347,2.703,2.652,4.795,5.449,4.795h11.259
		c3.038,0,5.5-2.463,5.5-5.5V63.094h6.563c0.006,0,0.012,0,0.021,0c3.036,0,5.5-2.463,5.5-5.5
		C81.978,56.156,81.425,54.846,80.521,53.865z M64.044,57.393v24.168H52.785V57.393H40.722l17.693-22.362l17.691,22.361
		L64.044,57.393L64.044,57.393z"/>
</g>
<g>
</g>
<g>
</g>
<g>
</g>
<g>
</g>
<g>
</g>
<g>
</g>
<g>
</g>
<g>
</g>
<g>
</g>
<g>
</g>
<g>
</g>
<g>
</g>
<g>
</g>
<g>
</g>
<g>
</g>
</svg>
