<?xml version="1.0" encoding="iso-8859-1"?>
<!-- Generator: Adobe Illustrator 16.0.0, SVG Export Plug-In . SVG Version: 6.00 Build 0)  -->
<!DOCTYPE svg PUBLIC "-//W3C//DTD SVG 1.1//EN" "http://www.w3.org/Graphics/SVG/1.1/DTD/svg11.dtd">
<svg version="1.1" id="Capa_1" xmlns="http://www.w3.org/2000/svg" xmlns:xlink="http://www.w3.org/1999/xlink" x="0px" y="0px"
	 width="93.359px" height="93.359px" viewBox="0 0 93.359 93.359" style="enable-background:new 0 0 93.359 93.359;"
	 xml:space="preserve">
<g>
	<g>
		<path d="M83.012,81.066L71.477,69.529l0.008-52.326c-0.041-0.188-0.141-0.367-0.229-0.537l-3.606-6.979l3.396-6.453
			c0.362-0.684,0.336-1.508-0.062-2.17C70.583,0.404,69.866,0,69.092,0h-58.65C9.224,0,8.236,0.988,8.236,2.205l0.053,82.037H31.31
			h6.964h14.84h12.707l7.009,7.008c1.359,1.361,3.168,2.109,5.092,2.109s3.731-0.748,5.09-2.107c1.361-1.361,2.111-3.17,2.111-5.094
			C85.122,84.232,84.372,82.424,83.012,81.066z M12.647,17.202V4.411h52.792l-2.231,4.24c-0.335,0.639-0.338,1.4-0.006,2.041
			l3.365,6.51H12.647z M80.525,88.15c-1.116,1.117-2.926,1.117-4.042,0L57.951,69.62c-0.074-0.075-0.132-0.164-0.197-0.243
			c-6.416,4.51-15.351,3.915-21.082-1.814c-6.413-6.414-6.413-16.854,0-23.266c6.415-6.412,16.852-6.412,23.265,0
			c5.73,5.732,6.326,14.667,1.816,21.083c0.078,0.063,0.166,0.123,0.242,0.198l18.528,18.528
			C81.643,85.223,81.643,87.033,80.525,88.15z"/>
		<circle cx="48.192" cy="55.798" r="11.473"/>
	</g>
</g>
<g>
</g>
<g>
</g>
<g>
</g>
<g>
</g>
<g>
</g>
<g>
</g>
<g>
</g>
<g>
</g>
<g>
</g>
<g>
</g>
<g>
</g>
<g>
</g>
<g>
</g>
<g>
</g>
<g>
</g>
</svg>
