<?xml version="1.0" encoding="iso-8859-1"?>
<!-- Generator: Adobe Illustrator 16.0.0, SVG Export Plug-In . SVG Version: 6.00 Build 0)  -->
<!DOCTYPE svg PUBLIC "-//W3C//DTD SVG 1.1//EN" "http://www.w3.org/Graphics/SVG/1.1/DTD/svg11.dtd">
<svg version="1.1" id="Capa_1" xmlns="http://www.w3.org/2000/svg" xmlns:xlink="http://www.w3.org/1999/xlink" x="0px" y="0px"
	 width="94.117px" height="94.117px" viewBox="0 0 94.117 94.117" style="enable-background:new 0 0 94.117 94.117;"
	 xml:space="preserve">
<g>
	<path d="M66.103,16.842l-3.746-7.354l3.324-6.32c0.354-0.67,0.33-1.477-0.061-2.123C65.228,0.397,64.526,0,63.771,0H6.354
		C5.163,0,4.196,0.967,4.196,2.162l0.052,80.305h10.369V16.842H8.514V4.321h51.68l-2.186,4.152c-0.328,0.623-0.33,1.369-0.006,1.998
		l3.295,6.371h-42.43v65.625h7.915h6.818h7.761l10.037,10.039c1.033,1.031,2.432,1.611,3.89,1.611c1.459,0,2.858-0.58,3.89-1.611
		L88.31,63.373c2.148-2.148,2.148-5.631,0-7.777l-6.655-6.656c-1.032-1.032-2.431-1.61-3.89-1.61s-2.857,0.578-3.889,1.61
		l-7.773,7.773v-6.746v-6.818V23.543 M55.442,88.618L35.314,68.489l6.656-6.656l13.472,13.474l22.475-22.478l6.656,6.655
		L55.442,88.618z"/>
</g>
<g>
</g>
<g>
</g>
<g>
</g>
<g>
</g>
<g>
</g>
<g>
</g>
<g>
</g>
<g>
</g>
<g>
</g>
<g>
</g>
<g>
</g>
<g>
</g>
<g>
</g>
<g>
</g>
<g>
</g>
</svg>
