<?xml version="1.0" encoding="iso-8859-1"?>
<!-- Generator: Adobe Illustrator 16.0.0, SVG Export Plug-In . SVG Version: 6.00 Build 0)  -->
<!DOCTYPE svg PUBLIC "-//W3C//DTD SVG 1.1//EN" "http://www.w3.org/Graphics/SVG/1.1/DTD/svg11.dtd">
<svg version="1.1" id="Capa_1" xmlns="http://www.w3.org/2000/svg" xmlns:xlink="http://www.w3.org/1999/xlink" x="0px" y="0px"
	 width="85.214px" height="85.214px" viewBox="0 0 85.214 85.214" style="enable-background:new 0 0 85.214 85.214;"
	 xml:space="preserve">
<g>
	<g>
		<path d="M58.88,65.863c-1.75,0-3.168,1.42-3.168,3.168c0,1.086,0.546,2.043,1.379,2.615v4.836h3.579v-4.836
			c0.832-0.572,1.378-1.529,1.378-2.615C62.048,67.283,60.63,65.863,58.88,65.863z"/>
		<path d="M75.189,52.688c-0.455-4.843-3.049-9.06-6.814-11.728V23.543v-6.701l-3.746-7.354l3.324-6.32
			c0.354-0.67,0.33-1.477-0.061-2.123C67.499,0.397,66.797,0,66.042,0H8.626C7.436,0,6.468,0.967,6.468,2.162L6.52,82.467h10.369
			V16.841h-6.102V4.32h51.68l-2.186,4.152c-0.328,0.623-0.332,1.369-0.006,1.998l3.295,6.371H21.14v65.625h7.914h6.818h4.139
			c0.952,1.642,2.723,2.748,4.757,2.748h28.479c3.037,0,5.5-2.463,5.5-5.5v-21.88C78.746,55.48,77.267,53.473,75.189,52.688z
			 M73.219,79.988H44.542V57.953h20.672v-3.641c0-3.492-2.841-6.334-6.333-6.334c-3.491,0-6.332,2.842-6.332,6.334h-4.498
			c0-5.974,4.858-10.83,10.83-10.83s10.83,4.856,10.83,10.83v3.641h3.509L73.219,79.988L73.219,79.988z"/>
	</g>
</g>
<g>
</g>
<g>
</g>
<g>
</g>
<g>
</g>
<g>
</g>
<g>
</g>
<g>
</g>
<g>
</g>
<g>
</g>
<g>
</g>
<g>
</g>
<g>
</g>
<g>
</g>
<g>
</g>
<g>
</g>
</svg>
