<?xml version="1.0" encoding="iso-8859-1"?>
<!-- Generator: Adobe Illustrator 16.0.0, SVG Export Plug-In . SVG Version: 6.00 Build 0)  -->
<!DOCTYPE svg PUBLIC "-//W3C//DTD SVG 1.1//EN" "http://www.w3.org/Graphics/SVG/1.1/DTD/svg11.dtd">
<svg version="1.1" id="Capa_1" xmlns="http://www.w3.org/2000/svg" xmlns:xlink="http://www.w3.org/1999/xlink" x="0px" y="0px"
	 width="89.216px" height="89.216px" viewBox="0 0 89.216 89.216" style="enable-background:new 0 0 89.216 89.216;"
	 xml:space="preserve">
<g>
	<path d="M77.885,54.895H67.738v-4.932v-6.816V23.54l0.02-6.699c-0.039-0.184-3.766-7.355-3.766-7.355l3.324-6.32
		c0.354-0.67,0.33-1.475-0.062-2.121C66.861,0.397,66.16,0,65.404,0H7.989C6.798,0,5.832,0.967,5.832,2.16l0.051,80.307h10.369
		V16.84h-6.102V4.319h51.68l-2.186,4.15c-0.328,0.625-0.332,1.369-0.007,1.998l3.296,6.373H20.502v65.625h7.914h6.818h8.037
		l7.032,5.562c1.654,1.31,3.911,1.558,5.81,0.64c1.897-0.92,3.104-2.845,3.104-4.951v-1.25h8.521v-5.313h10.146
		c3.038,0,5.5-2.463,5.5-5.5V60.395C83.385,57.357,80.922,54.895,77.885,54.895z M77.525,71.404H53.357v12.062L30.994,65.775
		l22.361-17.692v12.063h24.168v11.258H77.525z"/>
</g>
<g>
</g>
<g>
</g>
<g>
</g>
<g>
</g>
<g>
</g>
<g>
</g>
<g>
</g>
<g>
</g>
<g>
</g>
<g>
</g>
<g>
</g>
<g>
</g>
<g>
</g>
<g>
</g>
<g>
</g>
</svg>
