<?xml version="1.0" encoding="iso-8859-1"?>
<!-- Generator: Adobe Illustrator 16.0.0, SVG Export Plug-In . SVG Version: 6.00 Build 0)  -->
<!DOCTYPE svg PUBLIC "-//W3C//DTD SVG 1.1//EN" "http://www.w3.org/Graphics/SVG/1.1/DTD/svg11.dtd">
<svg version="1.1" id="Capa_1" xmlns="http://www.w3.org/2000/svg" xmlns:xlink="http://www.w3.org/1999/xlink" x="0px" y="0px"
	 width="94.334px" height="94.334px" viewBox="0 0 94.334 94.334" style="enable-background:new 0 0 94.334 94.334;"
	 xml:space="preserve">
<g>
	<g>
		<path d="M92.062,4.418H75.97V0H23.676L2.271,21.408v72.926H75.97v-4.418h16.094L92.062,4.418L92.062,4.418z M61.735,84.385H16.503
			V78.49h45.232V84.385z M61.735,73.146H16.503V67.25h45.232V73.146z M58.065,39.982v5.895H20.172v-5.895H58.065z M20.172,33.902
			v-5.896h37.894v5.896H20.172z M65.404,21.863h-52.57v-5.896h52.57V21.863z M86.405,84.26H75.97V10.074h10.438V84.26H86.405z"/>
		<polygon points="2.271,0 2.271,13.07 15.339,0 		"/>
	</g>
</g>
<g>
</g>
<g>
</g>
<g>
</g>
<g>
</g>
<g>
</g>
<g>
</g>
<g>
</g>
<g>
</g>
<g>
</g>
<g>
</g>
<g>
</g>
<g>
</g>
<g>
</g>
<g>
</g>
<g>
</g>
</svg>
