<?xml version="1.0" encoding="iso-8859-1"?>
<!-- Generator: Adobe Illustrator 16.0.0, SVG Export Plug-In . SVG Version: 6.00 Build 0)  -->
<!DOCTYPE svg PUBLIC "-//W3C//DTD SVG 1.1//EN" "http://www.w3.org/Graphics/SVG/1.1/DTD/svg11.dtd">
<svg version="1.1" id="Capa_1" xmlns="http://www.w3.org/2000/svg" xmlns:xlink="http://www.w3.org/1999/xlink" x="0px" y="0px"
	 width="92.868px" height="92.868px" viewBox="0 0 92.868 92.868" style="enable-background:new 0 0 92.868 92.868;"
	 xml:space="preserve">
<g>
	<g>
		<path d="M77.059,10.684l3.745-7.117c0.398-0.754,0.369-1.661-0.07-2.39C80.294,0.447,79.503,0,78.651,0H13.995
			c-1.342,0-2.431,1.089-2.431,2.434l0.019,90.434h11.718V18.966h-6.874v-14.1h58.197l-2.461,4.675
			c-0.369,0.702-0.373,1.542-0.006,2.25l3.709,7.175h-47.78v73.902h8.912h7.678h16.359h20.24l0.028-73.776L77.059,10.684z
			 M77.583,71.967H56.221L41.413,58.689l14.808-12.256h21.362V71.967z"/>
		<path d="M64.274,60.609v6.723h4.637v-6.723c1.147-0.756,1.907-2.051,1.907-3.528c0-2.334-1.892-4.226-4.226-4.226
			c-2.335,0-4.227,1.892-4.227,4.226C62.368,58.559,63.126,59.854,64.274,60.609z"/>
	</g>
</g>
<g>
</g>
<g>
</g>
<g>
</g>
<g>
</g>
<g>
</g>
<g>
</g>
<g>
</g>
<g>
</g>
<g>
</g>
<g>
</g>
<g>
</g>
<g>
</g>
<g>
</g>
<g>
</g>
<g>
</g>
</svg>
