<?xml version="1.0" encoding="iso-8859-1"?>
<!-- Generator: Adobe Illustrator 16.0.0, SVG Export Plug-In . SVG Version: 6.00 Build 0)  -->
<!DOCTYPE svg PUBLIC "-//W3C//DTD SVG 1.1//EN" "http://www.w3.org/Graphics/SVG/1.1/DTD/svg11.dtd">
<svg version="1.1" id="Capa_1" xmlns="http://www.w3.org/2000/svg" xmlns:xlink="http://www.w3.org/1999/xlink" x="0px" y="0px"
	 width="94.25px" height="94.25px" viewBox="0 0 94.25 94.25" style="enable-background:new 0 0 94.25 94.25;" xml:space="preserve"
	>
<g>
	<path d="M10.137,0v16.043v3.454v54.968v3.454V94.25h73.976V0H10.137z M77.206,16.043h-9.647V6.907h9.647V16.043z M30.721,74.465
		V19.497h33.384v54.968H30.721z M64.104,77.919v9.424H30.721v-9.424H64.104z M30.721,16.043V6.907h33.384v9.136H30.721z
		 M67.558,19.497h9.647v54.968h-9.647V19.497z M17.044,6.907h10.223v9.136H17.044V6.907z M17.044,19.497h10.223v54.968H17.044
		V19.497z M17.044,77.919h10.223v9.424H17.044V77.919z M67.558,87.343v-9.424h9.647v9.424H67.558z"/>
</g>
<g>
</g>
<g>
</g>
<g>
</g>
<g>
</g>
<g>
</g>
<g>
</g>
<g>
</g>
<g>
</g>
<g>
</g>
<g>
</g>
<g>
</g>
<g>
</g>
<g>
</g>
<g>
</g>
<g>
</g>
</svg>
