<?xml version="1.0" encoding="iso-8859-1"?>
<!-- Generator: Adobe Illustrator 16.0.0, SVG Export Plug-In . SVG Version: 6.00 Build 0)  -->
<!DOCTYPE svg PUBLIC "-//W3C//DTD SVG 1.1//EN" "http://www.w3.org/Graphics/SVG/1.1/DTD/svg11.dtd">
<svg version="1.1" id="Capa_1" xmlns="http://www.w3.org/2000/svg" xmlns:xlink="http://www.w3.org/1999/xlink" x="0px" y="0px"
	 width="93.762px" height="93.762px" viewBox="0 0 93.762 93.762" style="enable-background:new 0 0 93.762 93.762;"
	 xml:space="preserve">
<g>
	<path d="M67.717,0L0,0.001v67.716v26.045h93.762V26.045C93.762,11.66,82.102,0,67.717,0z M62.535,17.723v21.963l19.422,7.253
		c-3.188,7.58-10.684,12.902-19.422,12.902c-11.629,0-21.059-9.428-21.059-21.06C41.476,27.152,50.904,17.723,62.535,17.723z
		 M83.215,86.808H40.197v-6.274h43.019L83.215,86.808L83.215,86.808z M83.236,72.1H40.286v-6.275h42.951V72.1z M86.175,43.165
		l-19.421-7.253V13.949c11.631,0,21.061,9.429,21.061,21.059C87.814,37.902,87.23,40.656,86.175,43.165z"/>
</g>
<g>
</g>
<g>
</g>
<g>
</g>
<g>
</g>
<g>
</g>
<g>
</g>
<g>
</g>
<g>
</g>
<g>
</g>
<g>
</g>
<g>
</g>
<g>
</g>
<g>
</g>
<g>
</g>
<g>
</g>
</svg>
