<?xml version="1.0" encoding="iso-8859-1"?>
<!-- Generator: Adobe Illustrator 16.0.0, SVG Export Plug-In . SVG Version: 6.00 Build 0)  -->
<!DOCTYPE svg PUBLIC "-//W3C//DTD SVG 1.1//EN" "http://www.w3.org/Graphics/SVG/1.1/DTD/svg11.dtd">
<svg version="1.1" id="Capa_1" xmlns="http://www.w3.org/2000/svg" xmlns:xlink="http://www.w3.org/1999/xlink" x="0px" y="0px"
	 width="95.009px" height="95.008px" viewBox="0 0 95.009 95.008" style="enable-background:new 0 0 95.009 95.008;"
	 xml:space="preserve">
<g>
	<path d="M85.958,28.089l7.438-7.439c2.147-2.146,2.147-5.629,0-7.777l-6.265-6.264c-2.146-2.148-5.631-2.148-7.776,0l-7.439,7.439
		l-7.439-7.439c-1.031-1.031-2.43-1.611-3.889-1.611s-2.857,0.58-3.891,1.611l-6.262,6.264c-2.147,2.148-2.147,5.631,0,7.777
		l2.834,2.834h-8.042H40.49H16.567l-1.394-6.893L1.245,14.27L0,21.736l8.785,1.465l9.32,44.965l-4.092,13.01h5.658
		c-0.32,0.771-0.5,1.625-0.5,2.521c0,3.486,2.656,6.312,5.934,6.312c3.276,0,5.932-2.826,5.932-6.312c0-0.896-0.18-1.75-0.496-2.521
		H61.83c-0.318,0.771-0.496,1.625-0.496,2.521c0,3.486,2.654,6.312,5.932,6.312c3.274,0,5.932-2.826,5.932-6.312
		c0-0.896-0.18-1.75-0.498-2.521h5.017v-7.572H24.331l0.766-2.431l53.035-22.19v-0.639l1.224,1.225
		c1.073,1.074,2.481,1.611,3.89,1.611c1.407,0,2.815-0.537,3.889-1.611l6.265-6.261c1.03-1.031,1.61-2.432,1.61-3.891
		s-0.579-2.857-1.61-3.889L85.958,28.089z M83.078,45.681L71.75,34.354L60.422,45.681l-6.264-6.264l11.328-11.328L54.158,16.761
		l6.264-6.264L71.75,21.826l11.328-11.328l6.264,6.264L78.014,28.089l11.328,11.328L83.078,45.681z"/>
</g>
<g>
</g>
<g>
</g>
<g>
</g>
<g>
</g>
<g>
</g>
<g>
</g>
<g>
</g>
<g>
</g>
<g>
</g>
<g>
</g>
<g>
</g>
<g>
</g>
<g>
</g>
<g>
</g>
<g>
</g>
</svg>
