<?xml version="1.0" encoding="iso-8859-1"?>
<!-- Generator: Adobe Illustrator 16.0.0, SVG Export Plug-In . SVG Version: 6.00 Build 0)  -->
<!DOCTYPE svg PUBLIC "-//W3C//DTD SVG 1.1//EN" "http://www.w3.org/Graphics/SVG/1.1/DTD/svg11.dtd">
<svg version="1.1" id="Capa_1" xmlns="http://www.w3.org/2000/svg" xmlns:xlink="http://www.w3.org/1999/xlink" x="0px" y="0px"
	 width="92.33px" height="92.33px" viewBox="0 0 92.33 92.33" style="enable-background:new 0 0 92.33 92.33;" xml:space="preserve"
	>
<g>
	<g>
		<path d="M46.165,0C20.71,0,0,20.71,0,46.165S20.71,92.33,46.165,92.33S92.33,71.62,92.33,46.165S71.62,0,46.165,0z M46.165,83.536
			c-20.606,0-37.371-16.765-37.371-37.371c0-20.606,16.765-37.371,37.371-37.371c20.606,0,37.371,16.765,37.371,37.371
			C83.536,66.771,66.771,83.536,46.165,83.536z"/>
		<path d="M70.165,43.967H50.561V18.319c0-2.428-1.967-4.397-4.396-4.397c-2.428,0-4.396,1.969-4.396,4.397v30.044
			c0,0.65,0.15,1.264,0.404,1.818L25.795,63.448c-0.472,0.381-0.544,1.073-0.162,1.545c0.217,0.269,0.535,0.407,0.854,0.407
			c0.243,0,0.488-0.079,0.691-0.245l16.381-13.269c0.73,0.541,1.626,0.873,2.605,0.873h24c2.428,0,4.396-1.969,4.396-4.396
			C74.561,45.936,72.594,43.967,70.165,43.967z"/>
	</g>
</g>
<g>
</g>
<g>
</g>
<g>
</g>
<g>
</g>
<g>
</g>
<g>
</g>
<g>
</g>
<g>
</g>
<g>
</g>
<g>
</g>
<g>
</g>
<g>
</g>
<g>
</g>
<g>
</g>
<g>
</g>
</svg>
