<?xml version="1.0" encoding="iso-8859-1"?>
<!-- Generator: Adobe Illustrator 16.0.0, SVG Export Plug-In . SVG Version: 6.00 Build 0)  -->
<!DOCTYPE svg PUBLIC "-//W3C//DTD SVG 1.1//EN" "http://www.w3.org/Graphics/SVG/1.1/DTD/svg11.dtd">
<svg version="1.1" id="Capa_1" xmlns="http://www.w3.org/2000/svg" xmlns:xlink="http://www.w3.org/1999/xlink" x="0px" y="0px"
	 width="91.602px" height="91.602px" viewBox="0 0 91.602 91.602" style="enable-background:new 0 0 91.602 91.602;"
	 xml:space="preserve">
<g>
	<g>
		<path d="M87.816,64.115c1.354-3.101,2.372-6.377,3.015-9.791c-2.589,3.351-5.403,6.521-8.435,9.479
			C84.191,63.932,86,64.029,87.816,64.115z"/>
		<path d="M80.756,16.18C72.354,6.285,59.831,0,45.834,0c-4.083,0-8.038,0.539-11.805,1.541c1.376,15.688,4.548,30.17,9.081,42.581
			C59.703,37.265,72.895,27.572,80.756,16.18z"/>
		<path d="M26.364,49.742c3.987-1.06,7.853-2.258,11.561-3.602c-4.726-12.803-7.911-27.338-9.37-42.762
			C14.494,9.114,3.921,21.633,0.909,36.874c4.692,4.062,10.603,7.862,17.628,11.309c0.896-0.562,1.947-0.897,3.082-0.897
			C23.58,47.283,25.307,48.259,26.364,49.742z"/>
		<path d="M42.58,57.16c-0.904-1.875-1.771-3.797-2.599-5.771c-2.508,0.913-5.067,1.767-7.677,2.55
			C35.614,55.109,39.048,56.18,42.58,57.16z"/>
		<path d="M70.006,62.566c1.07-1.242,2.637-2.049,4.407-2.049c0.935,0,1.806,0.241,2.591,0.633
			c5.629-5.246,10.539-11.229,14.564-17.794c-0.434-8.237-3.053-15.893-7.273-22.412c-5.43,7.343-12.947,14.082-22.373,19.924
			c-5.182,3.211-10.806,6.046-16.766,8.506c1.41,3.384,2.93,6.583,4.543,9.584C56.197,60.469,62.988,61.682,70.006,62.566z"/>
		<path d="M74.413,72.191c-0.562,0-1.093-0.104-1.606-0.252c-2.854,2.108-5.83,4.064-8.928,5.838
			c2.567,2.307,5.248,4.205,8.018,5.666c5.265-3.652,9.738-8.362,13.08-13.85c-1.844-0.105-3.678-0.236-5.504-0.381
			C78.471,70.982,76.592,72.191,74.413,72.191z"/>
		<path d="M30.752,89.048c4.724,1.647,9.796,2.554,15.082,2.554c7.404,0,14.392-1.767,20.579-4.886
			c-2.657-1.703-5.239-3.771-7.729-6.188C50.055,84.758,40.656,87.691,30.752,89.048z"/>
		<path d="M53.616,65.559c1.942,2.961,3.992,5.656,6.138,8.061c3.057-1.682,6.008-3.528,8.822-5.551
			C63.461,67.402,58.477,66.552,53.616,65.559z"/>
		<path d="M25.577,57.389c-1.042,0.967-2.425,1.569-3.958,1.569c-1.468,0-2.793-0.562-3.818-1.455
			c-5.079,0.989-10.287,1.747-15.589,2.271c3.249,10.152,9.944,18.756,18.709,24.451C32.955,83.841,44.362,81,54.655,76.206
			c-3.033-3.567-5.901-7.685-8.567-12.339C38.839,62.078,31.974,59.908,25.577,57.389z"/>
		<path d="M0.092,43.455c-0.039,0.777-0.059,1.559-0.059,2.346c0,2.893,0.28,5.715,0.793,8.458c4.63-0.435,9.166-1.049,13.576-1.843
			C8.98,49.646,4.202,46.644,0.092,43.455z"/>
	</g>
</g>
<g>
</g>
<g>
</g>
<g>
</g>
<g>
</g>
<g>
</g>
<g>
</g>
<g>
</g>
<g>
</g>
<g>
</g>
<g>
</g>
<g>
</g>
<g>
</g>
<g>
</g>
<g>
</g>
<g>
</g>
</svg>
