<?xml version="1.0" encoding="iso-8859-1"?>
<!-- Generator: Adobe Illustrator 16.0.0, SVG Export Plug-In . SVG Version: 6.00 Build 0)  -->
<!DOCTYPE svg PUBLIC "-//W3C//DTD SVG 1.1//EN" "http://www.w3.org/Graphics/SVG/1.1/DTD/svg11.dtd">
<svg version="1.1" id="Capa_1" xmlns="http://www.w3.org/2000/svg" xmlns:xlink="http://www.w3.org/1999/xlink" x="0px" y="0px"
	 width="94.588px" height="94.588px" viewBox="0 0 94.588 94.588" style="enable-background:new 0 0 94.588 94.588;"
	 xml:space="preserve">
<g>
	<path d="M74.314,11.339h-9.008v-0.15c0-2.059-1.676-3.734-3.734-3.734h-5.87V3.734C55.702,1.675,54.027,0,51.968,0h-9.35
		c-2.06,0-3.734,1.675-3.734,3.734v3.72h-5.87c-2.06,0-3.734,1.675-3.734,3.734v0.15h-9.008c-2.682,0-4.864,2.182-4.864,4.864
		v73.522c0,2.682,2.182,4.863,4.864,4.863h54.042c2.683,0,4.865-2.182,4.865-4.863V16.203
		C79.178,13.521,76.997,11.339,74.314,11.339z M44.617,6.79V5.103h5.353V6.79H44.617z M33.293,25.743h28
		c2.029,0,3.684-1.652,3.684-3.683v-2.965h7.176V87.37H22.434V19.096h7.177v2.965C29.611,24.091,31.263,25.743,33.293,25.743z"/>
</g>
<g>
</g>
<g>
</g>
<g>
</g>
<g>
</g>
<g>
</g>
<g>
</g>
<g>
</g>
<g>
</g>
<g>
</g>
<g>
</g>
<g>
</g>
<g>
</g>
<g>
</g>
<g>
</g>
<g>
</g>
</svg>
