<?xml version="1.0" encoding="iso-8859-1"?>
<!-- Generator: Adobe Illustrator 16.0.0, SVG Export Plug-In . SVG Version: 6.00 Build 0)  -->
<!DOCTYPE svg PUBLIC "-//W3C//DTD SVG 1.1//EN" "http://www.w3.org/Graphics/SVG/1.1/DTD/svg11.dtd">
<svg version="1.1" id="Capa_1" xmlns="http://www.w3.org/2000/svg" xmlns:xlink="http://www.w3.org/1999/xlink" x="0px" y="0px"
	 width="93.847px" height="93.847px" viewBox="0 0 93.847 93.847" style="enable-background:new 0 0 93.847 93.847;"
	 xml:space="preserve">
<g>
	<g>
		<rect x="49.218" y="49.812" width="23.535" height="4.488"/>
		<rect x="49.198" y="60.038" width="23.567" height="4.489"/>
		<rect x="49.15" y="70.557" width="23.605" height="4.488"/>
		<path d="M71.246,32.154V14.628c0-2.018-1.642-3.66-3.66-3.66h-9.76v-1.19c0-1.415-1.15-2.567-2.566-2.567h-6.726V2.567
			C48.534,1.151,47.383,0,45.967,0h-9.045c-1.415,0-2.567,1.151-2.567,2.567v4.644H27.63c-1.416,0-2.567,1.152-2.567,2.567v1.19
			h-9.759c-2.018,0-3.66,1.643-3.66,3.66v71.125c0,2.019,1.642,3.66,3.66,3.66h23.551v4.434h43.348V32.154H71.246z M38.856,83.826
			H17.365c-0.277,0-0.502-0.226-0.502-0.502V17.579c0-0.277,0.225-0.503,0.502-0.503h7.825v3.835c0,1.358,1.106,2.466,2.466,2.466
			h27.579c1.358,0,2.466-1.107,2.466-2.466v-3.835h7.825c0.276,0,0.502,0.226,0.502,0.503v14.575H38.856V83.826z M76.974,88.617
			h-32.89V37.383h32.892v51.234H76.974z"/>
	</g>
</g>
<g>
</g>
<g>
</g>
<g>
</g>
<g>
</g>
<g>
</g>
<g>
</g>
<g>
</g>
<g>
</g>
<g>
</g>
<g>
</g>
<g>
</g>
<g>
</g>
<g>
</g>
<g>
</g>
<g>
</g>
</svg>
