<?xml version="1.0" encoding="iso-8859-1"?>
<!-- Generator: Adobe Illustrator 16.0.0, SVG Export Plug-In . SVG Version: 6.00 Build 0)  -->
<!DOCTYPE svg PUBLIC "-//W3C//DTD SVG 1.1//EN" "http://www.w3.org/Graphics/SVG/1.1/DTD/svg11.dtd">
<svg version="1.1" id="Capa_1" xmlns="http://www.w3.org/2000/svg" xmlns:xlink="http://www.w3.org/1999/xlink" x="0px" y="0px"
	 width="94.266px" height="94.267px" viewBox="0 0 94.266 94.267" style="enable-background:new 0 0 94.266 94.267;"
	 xml:space="preserve">
<g>
	<path d="M71.564,32.299V14.695c0-2.027-1.649-3.677-3.677-3.677h-9.803V9.823c0-1.422-1.156-2.579-2.578-2.579h-6.754V2.578
		c0-1.421-1.158-2.578-2.58-2.578h-9.086c-1.421,0-2.579,1.157-2.579,2.578v4.665h-6.754c-1.422,0-2.579,1.157-2.579,2.579v1.195
		h-9.803c-2.027,0-3.676,1.649-3.676,3.677v71.443c0,2.027,1.649,3.676,3.676,3.676h23.657v4.454h43.542V32.299H71.564z
		 M17.442,84.201c-0.278,0-0.504-0.226-0.504-0.502V17.658c0-0.278,0.226-0.505,0.504-0.505h7.86v3.852
		c0,1.365,1.111,2.478,2.477,2.478h27.702c1.365,0,2.477-1.112,2.477-2.478v-3.851h7.86c0.278,0,0.505,0.227,0.505,0.505V32.3
		H39.029v51.903H17.442V84.201z M77.319,89.016H44.28V37.551h33.039V89.016z"/>
</g>
<g>
</g>
<g>
</g>
<g>
</g>
<g>
</g>
<g>
</g>
<g>
</g>
<g>
</g>
<g>
</g>
<g>
</g>
<g>
</g>
<g>
</g>
<g>
</g>
<g>
</g>
<g>
</g>
<g>
</g>
</svg>
