<?xml version="1.0" encoding="iso-8859-1"?>
<!-- Generator: Adobe Illustrator 16.0.0, SVG Export Plug-In . SVG Version: 6.00 Build 0)  -->
<!DOCTYPE svg PUBLIC "-//W3C//DTD SVG 1.1//EN" "http://www.w3.org/Graphics/SVG/1.1/DTD/svg11.dtd">
<svg version="1.1" id="Capa_1" xmlns="http://www.w3.org/2000/svg" xmlns:xlink="http://www.w3.org/1999/xlink" x="0px" y="0px"
	 width="94px" height="94px" viewBox="0 0 94 94" style="enable-background:new 0 0 94 94;" xml:space="preserve">
<g>
	<g>
		<path d="M57.661,36.714c-11.278,0-20.453,9.174-20.453,20.453c0,11.278,9.175,20.453,20.453,20.453s20.452-9.175,20.452-20.453
			C78.113,45.889,68.939,36.714,57.661,36.714z M73.328,60.432H54.396V42.588h6.527v11.314h12.403L73.328,60.432L73.328,60.432z"/>
		<path d="M67.889,0L0,0.001v67.888V94h94V26.111C94,11.69,82.311,0,67.889,0z M57.661,85.453
			c-15.597,0-28.286-12.689-28.286-28.286c0-15.596,12.689-28.286,28.286-28.286c15.597,0,28.286,12.69,28.286,28.286
			C85.947,72.764,73.258,85.453,57.661,85.453z"/>
	</g>
</g>
<g>
</g>
<g>
</g>
<g>
</g>
<g>
</g>
<g>
</g>
<g>
</g>
<g>
</g>
<g>
</g>
<g>
</g>
<g>
</g>
<g>
</g>
<g>
</g>
<g>
</g>
<g>
</g>
<g>
</g>
</svg>
