<?xml version="1.0" encoding="iso-8859-1"?>
<!-- Generator: Adobe Illustrator 16.0.0, SVG Export Plug-In . SVG Version: 6.00 Build 0)  -->
<!DOCTYPE svg PUBLIC "-//W3C//DTD SVG 1.1//EN" "http://www.w3.org/Graphics/SVG/1.1/DTD/svg11.dtd">
<svg version="1.1" id="Capa_1" xmlns="http://www.w3.org/2000/svg" xmlns:xlink="http://www.w3.org/1999/xlink" x="0px" y="0px"
	 width="90.934px" height="90.934px" viewBox="0 0 90.934 90.934" style="enable-background:new 0 0 90.934 90.934;"
	 xml:space="preserve">
<g>
	<g>
		<path d="M48.413,57.318c0,1.332,0.407,2.918,2.354,2.918c2.416,0,4.998-3.57,5.523-6.527l0.941-5.071
			c-0.397-0.054-0.812-0.082-1.236-0.082C51.885,48.556,48.413,52.568,48.413,57.318z"/>
		<path d="M79.361,17.99l-3.895-7.529l3.667-6.969c0.392-0.738,0.363-1.627-0.067-2.34C78.635,0.437,77.861,0,77.027,0H13.716
			c-1.314,0-2.38,1.066-2.38,2.383l0.057,88.551h11.434V18.571h-6.729V4.764h56.985l-2.409,4.578
			c-0.361,0.688-0.365,1.51-0.007,2.203L74.3,18.57H27.514v72.363h8.728h7.518h16.02h19.818V18.571
			C79.598,18.571,79.456,18.172,79.361,17.99z M61.73,65.984c-1.572,0-2.988-0.576-3.987-1.627
			c-0.353-0.369-0.729-0.879-1.021-1.562c-1.977,2.12-4.424,3.189-7.306,3.189c-3.691,0-7.428-2.898-7.428-8.439
			c0-8.096,6.586-14.681,14.681-14.681c2.389,0,4.788,0.476,6.585,1.306l0.959,0.443l-2.106,11.213
			c-0.668,3.377-0.17,4.328-0.002,4.539c0.047,0.057,0.115,0.144,0.396,0.151c1.972,0,4.674-3.104,4.674-8.933
			c0-7.799-4.694-12.643-12.249-12.643c-8.987,0-15.51,7.28-15.51,17.31c0,8.269,5.261,13.823,13.092,13.823
			c2.984,0,5.764-0.638,7.826-1.795l1.382-0.774l1.868,5.021l-1.055,0.557c-3.155,1.664-6.438,2.404-10.641,2.404
			c-10.657,0-18.392-7.947-18.392-18.897c0-13.082,9.406-22.946,21.878-22.946c10.432,0,17.718,7.24,17.718,17.605
			C73.094,60.923,67.377,65.984,61.73,65.984z"/>
	</g>
</g>
<g>
</g>
<g>
</g>
<g>
</g>
<g>
</g>
<g>
</g>
<g>
</g>
<g>
</g>
<g>
</g>
<g>
</g>
<g>
</g>
<g>
</g>
<g>
</g>
<g>
</g>
<g>
</g>
<g>
</g>
</svg>
