<?xml version="1.0" encoding="iso-8859-1"?>
<!-- Generator: Adobe Illustrator 16.0.0, SVG Export Plug-In . SVG Version: 6.00 Build 0)  -->
<!DOCTYPE svg PUBLIC "-//W3C//DTD SVG 1.1//EN" "http://www.w3.org/Graphics/SVG/1.1/DTD/svg11.dtd">
<svg version="1.1" id="Capa_1" xmlns="http://www.w3.org/2000/svg" xmlns:xlink="http://www.w3.org/1999/xlink" x="0px" y="0px"
	 width="94.488px" height="94.487px" viewBox="0 0 94.488 94.487" style="enable-background:new 0 0 94.488 94.487;"
	 xml:space="preserve">
<g>
	<g>
		<polygon points="18.298,20.717 51.507,20.717 51.507,24.459 59.587,24.459 59.587,20.226 42.327,8.308 45.068,0.474 11,0.474 
			11,67.078 29.32,67.078 29.32,49.469 18.298,49.469 18.298,45.471 29.32,45.471 29.32,36.553 18.298,36.553 18.298,32.556 
			29.32,32.556 29.32,24.715 18.298,24.715 		"/>
		<polygon points="49.86,0 47.639,6.349 60.97,15.553 		"/>
		<path d="M67.584,27.883H33.517v66.604h48.586v-46.85l-17.26-11.918L67.584,27.883z M74.025,76.877h-33.21v-3.996h33.21V76.877z
			 M74.025,63.963h-33.21v-3.998h33.21V63.963z M74.025,48.127v3.998h-33.21v-3.998H74.025z"/>
		<polygon points="72.376,27.41 70.156,33.758 83.488,42.963 		"/>
	</g>
</g>
<g>
</g>
<g>
</g>
<g>
</g>
<g>
</g>
<g>
</g>
<g>
</g>
<g>
</g>
<g>
</g>
<g>
</g>
<g>
</g>
<g>
</g>
<g>
</g>
<g>
</g>
<g>
</g>
<g>
</g>
</svg>
