<?xml version="1.0" encoding="iso-8859-1"?>
<!-- Generator: Adobe Illustrator 16.0.0, SVG Export Plug-In . SVG Version: 6.00 Build 0)  -->
<!DOCTYPE svg PUBLIC "-//W3C//DTD SVG 1.1//EN" "http://www.w3.org/Graphics/SVG/1.1/DTD/svg11.dtd">
<svg version="1.1" id="Capa_1" xmlns="http://www.w3.org/2000/svg" xmlns:xlink="http://www.w3.org/1999/xlink" x="0px" y="0px"
	 width="89.431px" height="89.431px" viewBox="0 0 89.431 89.431" style="enable-background:new 0 0 89.431 89.431;"
	 xml:space="preserve">
<g>
	<g>
		<g>
			<path d="M85.873,53.586c-0.773-8.25-7.736-14.725-16.182-14.725v-5.359c0-0.316-0.066-0.627-0.129-0.939
				c-1.326,6.578-16.345,11.764-34.718,11.764S1.455,39.141,0.129,32.563C0.066,32.876,0,33.186,0,33.502v16.279
				c0,7.02,15.602,12.705,34.846,12.705c5.412,0,10.535-0.449,15.105-1.252v6.362c-4.568,0.806-9.689,1.259-15.105,1.259
				c-18.373,0-33.391-5.189-34.717-11.765C0.067,57.402,0,57.715,0,58.031V74.31c0,7.021,15.602,12.707,34.846,12.707
				c6.453,0,12.492-0.643,17.674-1.758c0.85,0.537,1.854,0.854,2.932,0.854h28.479c3.037,0,5.5-2.463,5.5-5.5V58.732
				C89.43,56.379,87.951,54.371,85.873,53.586z M84.029,80.723H55.354V58.688h20.672v-3.643c0-3.492-2.842-6.332-6.334-6.332
				s-6.332,2.84-6.332,6.332h-4.498c0-5.971,4.858-10.83,10.83-10.83s10.83,4.859,10.83,10.83v3.643h3.51v22.035H84.029z"/>
			<path d="M69.691,66.598c-1.75,0-3.168,1.418-3.168,3.168c0,1.086,0.547,2.043,1.379,2.613v4.838h3.58v-4.838
				c0.832-0.57,1.377-1.527,1.377-2.613C72.859,68.016,71.441,66.598,69.691,66.598z"/>
		</g>
		<path d="M34.846,38.252c19.244,0,34.846-5.688,34.846-12.707V15.119c0-7.02-15.602-12.705-34.846-12.705
			C15.602,2.414,0,8.1,0,15.119v10.426C0,32.565,15.602,38.252,34.846,38.252z"/>
	</g>
</g>
<g>
</g>
<g>
</g>
<g>
</g>
<g>
</g>
<g>
</g>
<g>
</g>
<g>
</g>
<g>
</g>
<g>
</g>
<g>
</g>
<g>
</g>
<g>
</g>
<g>
</g>
<g>
</g>
<g>
</g>
</svg>
