<?xml version="1.0" encoding="iso-8859-1"?>
<!-- Generator: Adobe Illustrator 16.0.0, SVG Export Plug-In . SVG Version: 6.00 Build 0)  -->
<!DOCTYPE svg PUBLIC "-//W3C//DTD SVG 1.1//EN" "http://www.w3.org/Graphics/SVG/1.1/DTD/svg11.dtd">
<svg version="1.1" id="Capa_1" xmlns="http://www.w3.org/2000/svg" xmlns:xlink="http://www.w3.org/1999/xlink" x="0px" y="0px"
	 width="94.926px" height="94.926px" viewBox="0 0 94.926 94.926" style="enable-background:new 0 0 94.926 94.926;"
	 xml:space="preserve">
<g>
	<g>
		<path d="M86.206,69.885l6.985-6.986c1.11-1.109,1.733-2.615,1.733-4.184c0-1.569-0.623-3.074-1.733-4.185l-6.177-6.177
			c-2.31-2.31-6.058-2.31-8.366,0l-6.987,6.986l-6.987-6.986c-1.109-1.109-2.615-1.733-4.184-1.733c-1.57,0-3.075,0.624-4.186,1.733
			l-2.136,2.136l-4.16-3.507l-8.384,8.338l-8.405-8.338l-4.879,4.113l-10.155,4.675c-1.502,0.618-2.835,1.683-3.729,3.183L0,83.124
			h48.779c0.293,0.787,0.746,1.512,1.352,2.117l6.176,6.176c2.311,2.311,6.059,2.311,8.367,0l6.987-6.986l6.987,6.986
			c1.154,1.155,2.668,1.733,4.184,1.733c1.515,0,3.029-0.578,4.184-1.731l6.178-6.177c1.108-1.11,1.732-2.614,1.732-4.185
			c0-1.569-0.623-3.074-1.732-4.184L86.206,69.885z M82.832,87.233L71.661,76.062L60.49,87.233l-6.178-6.176l11.172-11.17
			l-11.17-11.172l6.176-6.178l11.172,11.172l11.171-11.172l6.178,6.178L77.838,69.887l11.172,11.17L82.832,87.233z"/>
		<path d="M41.561,47.989v0.003c0.009,0,0.02-0.002,0.028-0.002c0.005,0,0.013,0.002,0.02,0.002c0.001,0,0.004,0,0.007,0
			s0.006,0,0.007,0c0.007,0,0.015-0.002,0.02-0.002c0.01,0,0.019,0.002,0.028,0.002v-0.003c11.839,0.18,19.035-10.181,19.222-27.263
			C61.01,8.875,53.661,2.099,41.692,1.779V1.776c-0.019,0-0.032,0.001-0.05,0.001V1.776c-0.011,0-0.019,0-0.026,0.001
			c-0.008-0.001-0.018-0.001-0.026-0.001v0.001c-0.018,0-0.032-0.001-0.048-0.001V1.78c-11.97,0.32-19.32,7.095-19.201,18.946
			C22.526,37.808,29.722,48.168,41.561,47.989z"/>
	</g>
</g>
<g>
</g>
<g>
</g>
<g>
</g>
<g>
</g>
<g>
</g>
<g>
</g>
<g>
</g>
<g>
</g>
<g>
</g>
<g>
</g>
<g>
</g>
<g>
</g>
<g>
</g>
<g>
</g>
<g>
</g>
</svg>
