<?xml version="1.0" encoding="iso-8859-1"?>
<!-- Generator: Adobe Illustrator 16.0.0, SVG Export Plug-In . SVG Version: 6.00 Build 0)  -->
<!DOCTYPE svg PUBLIC "-//W3C//DTD SVG 1.1//EN" "http://www.w3.org/Graphics/SVG/1.1/DTD/svg11.dtd">
<svg version="1.1" id="Capa_1" xmlns="http://www.w3.org/2000/svg" xmlns:xlink="http://www.w3.org/1999/xlink" x="0px" y="0px"
	 width="93.191px" height="93.191px" viewBox="0 0 93.191 93.191" style="enable-background:new 0 0 93.191 93.191;"
	 xml:space="preserve">
<g>
	<g>
		<path d="M64.511,11.505H43.842c0.137-0.453,0.23-0.921,0.23-1.403c0-1.298-0.515-2.542-1.433-3.459l-5.211-5.21
			c-1.91-1.911-5.008-1.911-6.919,0l-3.884,3.883l-3.883-3.883c-1.91-1.91-5.008-1.911-6.919,0l-5.21,5.21
			C9.695,7.56,9.179,8.804,9.179,10.102c0,1.298,0.516,2.542,1.433,3.459l3.884,3.885l-3.884,3.885
			c-0.917,0.917-1.433,2.161-1.433,3.459c0,1.298,0.516,2.542,1.434,3.459l5.21,5.21c1.907,1.909,4.997,1.909,6.908,0.009v59.723
			h59.586V35.733L61.15,21.116L64.511,11.505z M42.638,28.248c0.522-0.522,0.897-1.156,1.138-1.84h14.896v4.202H40.275
			L42.638,28.248z M19.465,29.999l-5.211-5.21l7.343-7.344l-7.343-7.344l5.211-5.21l7.343,7.344l7.344-7.344l5.211,5.21
			l-7.343,7.344l7.343,7.344l-5.211,5.21l-7.344-7.344L19.465,29.999z M72.126,80.149H30.743v-4.202h41.381v4.202H72.126z
			 M72.126,62.413H30.743v-4.202h41.381v4.202H72.126z M72.126,42.107v4.202H30.743v-4.202H72.126z"/>
		<polygon points="70.386,10.925 67.664,18.712 84.012,29.999 		"/>
	</g>
</g>
<g>
</g>
<g>
</g>
<g>
</g>
<g>
</g>
<g>
</g>
<g>
</g>
<g>
</g>
<g>
</g>
<g>
</g>
<g>
</g>
<g>
</g>
<g>
</g>
<g>
</g>
<g>
</g>
<g>
</g>
</svg>
