<?xml version="1.0" encoding="iso-8859-1"?>
<!-- Generator: Adobe Illustrator 16.0.0, SVG Export Plug-In . SVG Version: 6.00 Build 0)  -->
<!DOCTYPE svg PUBLIC "-//W3C//DTD SVG 1.1//EN" "http://www.w3.org/Graphics/SVG/1.1/DTD/svg11.dtd">
<svg version="1.1" id="Capa_1" xmlns="http://www.w3.org/2000/svg" xmlns:xlink="http://www.w3.org/1999/xlink" x="0px" y="0px"
	 width="93.848px" height="93.848px" viewBox="0 0 93.848 93.848" style="enable-background:new 0 0 93.848 93.848;"
	 xml:space="preserve">
<g>
	<g id="Layer_1_4_">
		<g>
			<rect x="23.806" y="36.737" width="21.039" height="20.292"/>
			<rect x="49.037" y="36.737" width="21.005" height="20.292"/>
			<rect x="23.806" y="10.114" width="46.236" height="20.293"/>
			<rect x="49.037" y="63.438" width="21.005" height="20.297"/>
			<rect x="23.806" y="63.438" width="21.039" height="20.297"/>
			<polygon points="72.49,88.957 68.533,88.957 68.533,93.424 76.959,93.424 76.959,84.999 72.49,84.999 			"/>
			<rect x="50.613" y="88.957" width="10.541" height="4.467"/>
			<rect x="32.693" y="88.957" width="10.541" height="4.467"/>
			<polygon points="21.357,84.999 16.889,84.999 16.889,93.424 25.314,93.424 25.314,88.957 21.357,88.957 			"/>
			<rect x="16.889" y="62.68" width="4.468" height="13.129"/>
			<polygon points="16.889,53.49 21.357,53.49 21.357,40.36 16.889,40.36 16.889,44.977 0,29.987 0,63.931 16.889,48.941 			"/>
			<polygon points="76.959,44.977 76.959,40.36 72.49,40.36 72.49,53.49 76.959,53.49 76.959,48.941 93.848,63.931 93.848,29.987 
							"/>
			<rect x="16.889" y="18.039" width="4.468" height="13.13"/>
			<polygon points="21.357,4.891 25.314,4.891 25.314,0.424 16.889,0.424 16.889,8.849 21.357,8.849 			"/>
			<rect x="32.693" y="0.424" width="10.542" height="4.467"/>
			<rect x="50.613" y="0.424" width="10.541" height="4.467"/>
			<polygon points="72.49,8.849 76.959,8.849 76.959,0.424 68.533,0.424 68.533,4.891 72.49,4.891 			"/>
			<rect x="72.49" y="62.679" width="4.469" height="13.13"/>
			<rect x="72.49" y="18.039" width="4.469" height="13.129"/>
		</g>
	</g>
</g>
<g>
</g>
<g>
</g>
<g>
</g>
<g>
</g>
<g>
</g>
<g>
</g>
<g>
</g>
<g>
</g>
<g>
</g>
<g>
</g>
<g>
</g>
<g>
</g>
<g>
</g>
<g>
</g>
<g>
</g>
</svg>
