<?xml version="1.0" encoding="iso-8859-1"?>
<!-- Generator: Adobe Illustrator 16.0.0, SVG Export Plug-In . SVG Version: 6.00 Build 0)  -->
<!DOCTYPE svg PUBLIC "-//W3C//DTD SVG 1.1//EN" "http://www.w3.org/Graphics/SVG/1.1/DTD/svg11.dtd">
<svg version="1.1" id="Capa_1" xmlns="http://www.w3.org/2000/svg" xmlns:xlink="http://www.w3.org/1999/xlink" x="0px" y="0px"
	 width="92.75px" height="92.75px" viewBox="0 0 92.75 92.75" style="enable-background:new 0 0 92.75 92.75;" xml:space="preserve"
	>
<g>
	<path d="M85.441,0H7.308C4.204,0,1.686,2.517,1.686,5.621v81.508c0,3.104,2.517,5.621,5.622,5.621h78.135
		c3.104,0,5.622-2.518,5.622-5.621V5.621C91.063,2.517,88.547,0,85.441,0z M22.344,83.025c-5.277,0-9.556-4.278-9.556-9.557
		c0-5.277,4.279-9.556,9.556-9.556c5.277,0,9.556,4.278,9.556,9.556C31.899,78.747,27.622,83.025,22.344,83.025z M22.344,28.218
		c-5.277,0-9.556-4.278-9.556-9.556c0-5.278,4.279-9.557,9.556-9.557c5.277,0,9.556,4.279,9.556,9.557
		C31.899,23.94,27.622,28.218,22.344,28.218z M46.375,54.919c-5.277,0-9.556-4.278-9.556-9.556c0-5.277,4.279-9.556,9.556-9.556
		s9.556,4.279,9.556,9.556C55.931,50.641,51.651,54.919,46.375,54.919z M70.405,83.025c-5.278,0-9.556-4.278-9.556-9.557
		c0-5.277,4.277-9.556,9.556-9.556c5.277,0,9.556,4.278,9.556,9.556C79.961,78.747,75.683,83.025,70.405,83.025z M70.405,28.218
		c-5.278,0-9.556-4.278-9.556-9.556c0-5.278,4.277-9.557,9.556-9.557c5.277,0,9.556,4.279,9.556,9.557
		C79.961,23.94,75.683,28.218,70.405,28.218z"/>
</g>
<g>
</g>
<g>
</g>
<g>
</g>
<g>
</g>
<g>
</g>
<g>
</g>
<g>
</g>
<g>
</g>
<g>
</g>
<g>
</g>
<g>
</g>
<g>
</g>
<g>
</g>
<g>
</g>
<g>
</g>
</svg>
