<?xml version="1.0" encoding="iso-8859-1"?>
<!-- Generator: Adobe Illustrator 16.0.0, SVG Export Plug-In . SVG Version: 6.00 Build 0)  -->
<!DOCTYPE svg PUBLIC "-//W3C//DTD SVG 1.1//EN" "http://www.w3.org/Graphics/SVG/1.1/DTD/svg11.dtd">
<svg version="1.1" id="Capa_1" xmlns="http://www.w3.org/2000/svg" xmlns:xlink="http://www.w3.org/1999/xlink" x="0px" y="0px"
	 width="92.438px" height="92.438px" viewBox="0 0 92.438 92.438" style="enable-background:new 0 0 92.438 92.438;"
	 xml:space="preserve">
<g>
	<g>
		<polygon points="64.59,0 61.51,8.812 80.01,21.586 		"/>
		<path d="M80.651,31.701h-0.81v-4.285L55.887,10.875L59.69,0H12.41v31.701h-0.623c-1.527,0-2.768,1.24-2.768,2.77v23.877
			c0,1.529,1.24,2.768,2.768,2.768h0.623v31.322h67.432V61.115h0.81c1.528,0,2.768-1.238,2.768-2.769V34.471
			C83.418,32.942,82.18,31.701,80.651,31.701z M31.291,54.455c-2.367,1.969-5.967,2.899-10.365,2.899
			c-2.633,0-4.5-0.166-5.768-0.331V34.961c1.867-0.301,4.301-0.469,6.867-0.469c4.266,0,7.031,0.766,9.199,2.4
			c2.334,1.734,3.799,4.5,3.799,8.465C35.024,49.656,33.457,52.621,31.291,54.455z M47.885,57.488
			c-6.666,0-10.564-5.03-10.564-11.432c0-6.73,4.299-11.764,10.932-11.764c6.898,0,10.664,5.166,10.664,11.365
			C58.915,53.021,54.448,57.488,47.885,57.488z M73.743,53.258c1.533,0,3.232-0.336,4.232-0.736l0.766,3.969
			c-0.932,0.465-3.03,0.965-5.764,0.965c-7.768,0-11.766-4.834-11.766-11.231c0-7.664,5.467-11.93,12.264-11.93
			c2.635,0,4.633,0.531,5.533,1l-1.033,4.033c-1.033-0.436-2.467-0.836-4.266-0.836c-4.033,0-7.166,2.434-7.166,7.432
			C66.545,50.424,69.211,53.258,73.743,53.258z"/>
		<path d="M48.118,38.326c-3.434,0-5.434,3.266-5.434,7.631c0,4.398,2.066,7.5,5.465,7.5c3.435,0,5.4-3.271,5.4-7.631
			C53.551,41.793,51.616,38.326,48.118,38.326z"/>
		<path d="M22.559,38.391c-1.133,0-1.867,0.1-2.299,0.201v14.697c0.432,0.102,1.133,0.102,1.766,0.102
			c4.6,0.031,7.598-2.502,7.598-7.865C29.658,40.86,26.924,38.391,22.559,38.391z"/>
	</g>
</g>
<g>
</g>
<g>
</g>
<g>
</g>
<g>
</g>
<g>
</g>
<g>
</g>
<g>
</g>
<g>
</g>
<g>
</g>
<g>
</g>
<g>
</g>
<g>
</g>
<g>
</g>
<g>
</g>
<g>
</g>
</svg>
