<?xml version="1.0" encoding="iso-8859-1"?>
<!-- Generator: Adobe Illustrator 16.0.0, SVG Export Plug-In . SVG Version: 6.00 Build 0)  -->
<!DOCTYPE svg PUBLIC "-//W3C//DTD SVG 1.1//EN" "http://www.w3.org/Graphics/SVG/1.1/DTD/svg11.dtd">
<svg version="1.1" id="Capa_1" xmlns="http://www.w3.org/2000/svg" xmlns:xlink="http://www.w3.org/1999/xlink" x="0px" y="0px"
	 width="92.757px" height="92.757px" viewBox="0 0 92.757 92.757" style="enable-background:new 0 0 92.757 92.757;"
	 xml:space="preserve">
<g>
	<path d="M90.191,0H2.566C1.148,0,0,1.148,0,2.564v87.627c0,1.418,1.148,2.565,2.566,2.565h87.627c1.416,0,2.563-1.147,2.563-2.565
		V2.565C92.757,1.148,91.607,0,90.191,0z M17.317,82.613c-3.477,0-6.297-2.818-6.297-6.293c0-3.48,2.82-6.299,6.297-6.299
		s6.295,2.817,6.295,6.299C23.612,79.795,20.794,82.613,17.317,82.613z M17.317,51.973c-3.477,0-6.297-2.818-6.297-6.299
		c0-3.479,2.82-6.293,6.297-6.293s6.295,2.814,6.295,6.293C23.612,49.154,20.794,51.973,17.317,51.973z M46.378,82.613
		c-3.477,0-6.297-2.818-6.297-6.293c0-3.48,2.82-6.299,6.297-6.299c3.478,0,6.297,2.817,6.297,6.299
		C52.675,79.795,49.855,82.613,46.378,82.613z M46.378,51.973c-3.477,0-6.297-2.818-6.297-6.299c0-3.479,2.82-6.293,6.297-6.293
		c3.478,0,6.297,2.814,6.297,6.293C52.675,49.154,49.855,51.973,46.378,51.973z M75.441,82.613c-3.478,0-6.297-2.818-6.297-6.293
		c0-3.48,2.819-6.299,6.297-6.299c3.477,0,6.295,2.817,6.295,6.299C81.734,79.795,78.917,82.613,75.441,82.613z M75.441,51.973
		c-3.478,0-6.297-2.818-6.297-6.299c0-3.479,2.819-6.293,6.297-6.293c3.477,0,6.295,2.814,6.295,6.293
		C81.734,49.154,78.917,51.973,75.441,51.973z M78.443,20.299H16.237c-2.125,0-3.848-1.723-3.848-3.848s1.723-3.848,3.848-3.848
		h62.207c2.125,0,3.849,1.723,3.849,3.848S80.568,20.299,78.443,20.299z"/>
</g>
<g>
</g>
<g>
</g>
<g>
</g>
<g>
</g>
<g>
</g>
<g>
</g>
<g>
</g>
<g>
</g>
<g>
</g>
<g>
</g>
<g>
</g>
<g>
</g>
<g>
</g>
<g>
</g>
<g>
</g>
</svg>
