<?xml version="1.0" encoding="iso-8859-1"?>
<!-- Generator: Adobe Illustrator 16.0.0, SVG Export Plug-In . SVG Version: 6.00 Build 0)  -->
<!DOCTYPE svg PUBLIC "-//W3C//DTD SVG 1.1//EN" "http://www.w3.org/Graphics/SVG/1.1/DTD/svg11.dtd">
<svg version="1.1" id="Capa_1" xmlns="http://www.w3.org/2000/svg" xmlns:xlink="http://www.w3.org/1999/xlink" x="0px" y="0px"
	 width="93.481px" height="93.481px" viewBox="0 0 93.481 93.481" style="enable-background:new 0 0 93.481 93.481;"
	 xml:space="preserve">
<g>
	<path d="M90.895,0H2.585C1.158,0,0,1.156,0,2.584v88.311c0,1.428,1.158,2.586,2.585,2.586h88.311c1.428,0,2.585-1.158,2.585-2.586
		V2.584C93.48,1.156,92.323,0,90.895,0z M76.029,10.222c3.502,0,6.344,2.836,6.344,6.342c0,3.508-2.842,6.348-6.344,6.348
		c-3.505,0-6.346-2.84-6.346-6.348C69.684,13.058,72.524,10.222,76.029,10.222z M46.74,10.222c3.504,0,6.346,2.836,6.346,6.342
		c0,3.508-2.842,6.348-6.346,6.348s-6.346-2.84-6.346-6.348C40.394,13.058,43.236,10.222,46.74,10.222z M17.451,10.222
		c3.505,0,6.346,2.836,6.346,6.342c0,3.508-2.841,6.348-6.346,6.348c-3.502,0-6.344-2.84-6.344-6.348
		C11.107,13.058,13.949,10.222,17.451,10.222z M17.451,83.258c-3.502,0-6.344-2.84-6.344-6.344c0-3.506,2.842-6.346,6.344-6.346
		c3.505,0,6.346,2.84,6.346,6.346C23.797,80.418,20.956,83.258,17.451,83.258z M46.74,83.258c-3.504,0-6.346-2.84-6.346-6.344
		c0-3.506,2.842-6.346,6.346-6.346s6.346,2.84,6.346,6.346C53.086,80.418,50.244,83.258,46.74,83.258z M76.029,83.258
		c-3.505,0-6.346-2.84-6.346-6.344c0-3.506,2.841-6.346,6.346-6.346c3.502,0,6.344,2.84,6.344,6.346
		C82.373,80.418,79.531,83.258,76.029,83.258z M79.822,49.946L79.822,49.946l-65.543-0.015c-2.143,0-3.879-1.735-3.878-3.879
		c0.001-2.141,1.736-3.877,3.878-3.877h0.001l65.543,0.014c2.142,0,3.878,1.736,3.878,3.879
		C83.7,48.209,81.965,49.946,79.822,49.946z"/>
</g>
<g>
</g>
<g>
</g>
<g>
</g>
<g>
</g>
<g>
</g>
<g>
</g>
<g>
</g>
<g>
</g>
<g>
</g>
<g>
</g>
<g>
</g>
<g>
</g>
<g>
</g>
<g>
</g>
<g>
</g>
</svg>
