<?xml version="1.0" encoding="iso-8859-1"?>
<!-- Generator: Adobe Illustrator 16.0.0, SVG Export Plug-In . SVG Version: 6.00 Build 0)  -->
<!DOCTYPE svg PUBLIC "-//W3C//DTD SVG 1.1//EN" "http://www.w3.org/Graphics/SVG/1.1/DTD/svg11.dtd">
<svg version="1.1" id="Capa_1" xmlns="http://www.w3.org/2000/svg" xmlns:xlink="http://www.w3.org/1999/xlink" x="0px" y="0px"
	 width="93.156px" height="93.156px" viewBox="0 0 93.156 93.156" style="enable-background:new 0 0 93.156 93.156;"
	 xml:space="preserve">
<g>
	<path d="M0,2.576V90.58c0,1.422,1.154,2.576,2.576,2.576H90.58c1.422,0,2.576-1.154,2.576-2.576V2.576
		C93.156,1.152,92.002,0,90.58,0H2.576C1.154,0,0,1.152,0,2.576z M52.902,16.508c0,3.494-2.832,6.324-6.324,6.324
		s-6.324-2.83-6.324-6.324c0-3.494,2.832-6.32,6.324-6.32S52.902,13.014,52.902,16.508z M69.441,76.648
		c0-3.496,2.832-6.326,6.324-6.326c3.489,0,6.321,2.83,6.321,6.326c0,3.49-2.832,6.32-6.321,6.32
		C72.273,82.969,69.441,80.139,69.441,76.648z M69.441,45.871c0-3.494,2.832-6.322,6.324-6.322c3.489,0,6.321,2.828,6.321,6.322
		s-2.832,6.324-6.321,6.324C72.273,52.195,69.441,49.365,69.441,45.871z M40.254,76.648c0-3.496,2.832-6.326,6.324-6.326
		s6.324,2.83,6.324,6.326c0,3.49-2.832,6.32-6.324,6.32S40.254,80.139,40.254,76.648z M13.353,74.574l60.569-61.857
		c1.493-1.527,3.938-1.549,5.465-0.059c1.524,1.494,1.551,3.939,0.059,5.465L18.875,79.98c-0.757,0.772-1.758,1.162-2.761,1.162
		c-0.976,0-1.952-0.367-2.703-1.104C11.886,78.545,11.86,76.1,13.353,74.574z M11.068,45.871c0-3.494,2.832-6.322,6.322-6.322
		c3.492,0,6.324,2.828,6.324,6.322s-2.832,6.324-6.324,6.324C13.9,52.195,11.068,49.365,11.068,45.871z M11.068,16.508
		c0-3.494,2.832-6.32,6.322-6.32c3.492,0,6.324,2.826,6.324,6.32c0,3.494-2.832,6.324-6.324,6.324
		C13.9,22.832,11.068,20.002,11.068,16.508z"/>
</g>
<g>
</g>
<g>
</g>
<g>
</g>
<g>
</g>
<g>
</g>
<g>
</g>
<g>
</g>
<g>
</g>
<g>
</g>
<g>
</g>
<g>
</g>
<g>
</g>
<g>
</g>
<g>
</g>
<g>
</g>
</svg>
