<?xml version="1.0" encoding="iso-8859-1"?>
<!-- Generator: Adobe Illustrator 16.0.0, SVG Export Plug-In . SVG Version: 6.00 Build 0)  -->
<!DOCTYPE svg PUBLIC "-//W3C//DTD SVG 1.1//EN" "http://www.w3.org/Graphics/SVG/1.1/DTD/svg11.dtd">
<svg version="1.1" id="Capa_1" xmlns="http://www.w3.org/2000/svg" xmlns:xlink="http://www.w3.org/1999/xlink" x="0px" y="0px"
	 width="91.966px" height="91.966px" viewBox="0 0 91.966 91.966" style="enable-background:new 0 0 91.966 91.966;"
	 xml:space="preserve">
<g>
	<path d="M2.543,91.966h86.88c1.403,0,2.543-1.14,2.543-2.543V2.545c0-1.406-1.14-2.545-2.543-2.545H2.543C1.139,0,0,1.139,0,2.545
		v86.879C0,90.828,1.138,91.966,2.543,91.966z M74.797,10.056c3.445,0,6.242,2.795,6.242,6.242c0,3.449-2.795,6.244-6.242,6.244
		s-6.243-2.795-6.243-6.244C68.554,12.851,71.35,10.056,74.797,10.056z M74.797,40.437c3.445,0,6.242,2.795,6.242,6.245
		c0,3.448-2.795,6.239-6.242,6.239s-6.243-2.791-6.243-6.239C68.554,43.232,71.35,40.437,74.797,40.437z M45.983,10.056
		c3.447,0,6.244,2.795,6.244,6.242c0,3.449-2.795,6.244-6.244,6.244c-3.448,0-6.243-2.795-6.243-6.244
		C39.74,12.851,42.535,10.056,45.983,10.056z M45.983,40.437c3.447,0,6.244,2.795,6.244,6.245c0,3.448-2.795,6.239-6.244,6.239
		c-3.448,0-6.243-2.791-6.243-6.239C39.74,43.232,42.535,40.437,45.983,40.437z M17.169,10.056c3.447,0,6.243,2.795,6.243,6.242
		c0,3.449-2.796,6.244-6.243,6.244c-3.446,0-6.242-2.795-6.242-6.244C10.927,12.851,13.722,10.056,17.169,10.056z M17.169,40.437
		c3.447,0,6.243,2.795,6.243,6.245c0,3.448-2.796,6.239-6.243,6.239c-3.446,0-6.242-2.791-6.242-6.239
		C10.927,43.232,13.722,40.437,17.169,40.437z M14.191,71.841h61.676c2.107,0,3.814,1.707,3.814,3.813
		c0,2.107-1.707,3.816-3.814,3.816H14.191c-2.107,0-3.815-1.709-3.815-3.816C10.376,73.548,12.083,71.841,14.191,71.841z"/>
</g>
<g>
</g>
<g>
</g>
<g>
</g>
<g>
</g>
<g>
</g>
<g>
</g>
<g>
</g>
<g>
</g>
<g>
</g>
<g>
</g>
<g>
</g>
<g>
</g>
<g>
</g>
<g>
</g>
<g>
</g>
</svg>
