<?xml version="1.0" encoding="iso-8859-1"?>
<!-- Generator: Adobe Illustrator 16.0.0, SVG Export Plug-In . SVG Version: 6.00 Build 0)  -->
<!DOCTYPE svg PUBLIC "-//W3C//DTD SVG 1.1//EN" "http://www.w3.org/Graphics/SVG/1.1/DTD/svg11.dtd">
<svg version="1.1" id="Capa_1" xmlns="http://www.w3.org/2000/svg" xmlns:xlink="http://www.w3.org/1999/xlink" x="0px" y="0px"
	 width="92.912px" height="92.913px" viewBox="0 0 92.912 92.913" style="enable-background:new 0 0 92.912 92.913;"
	 xml:space="preserve">
<g>
	<path d="M92.912,90.344V2.571c0-1.42-1.15-2.57-2.57-2.57H2.568C1.15,0,0,1.15,0,2.571v87.773c0,1.418,1.15,2.567,2.568,2.567
		h87.774C91.762,92.913,92.912,91.762,92.912,90.344z M82.752,75.567c0,3.481-2.82,6.307-6.305,6.307
		c-3.486,0-6.309-2.824-6.309-6.307c0-3.483,2.821-6.307,6.309-6.307C79.932,69.26,82.752,72.084,82.752,75.567z M82.752,46.458
		c0,3.482-2.82,6.307-6.305,6.307c-3.486,0-6.309-2.824-6.309-6.307c0-3.484,2.821-6.309,6.309-6.309
		C79.932,40.148,82.752,42.974,82.752,46.458z M82.752,17.347c0,3.482-2.82,6.307-6.305,6.307c-3.486,0-6.309-2.824-6.309-6.307
		c0-3.48,2.821-6.305,6.309-6.305C79.932,11.042,82.752,13.866,82.752,17.347z M10.16,17.347c0-3.48,2.822-6.305,6.305-6.305
		c3.484,0,6.309,2.824,6.309,6.305c0,3.482-2.824,6.307-6.309,6.307C12.982,23.653,10.16,20.829,10.16,17.347z M10.16,46.458
		c0-3.484,2.822-6.309,6.305-6.309c3.484,0,6.309,2.824,6.309,6.309c0,3.482-2.824,6.307-6.309,6.307
		C12.982,52.764,10.16,49.94,10.16,46.458z M10.16,75.567c0-3.482,2.822-6.307,6.305-6.307c3.484,0,6.309,2.823,6.309,6.307
		c0,3.482-2.824,6.307-6.309,6.307C12.982,81.874,10.16,79.049,10.16,75.567z M43.269,79.338L43.269,79.338l0.014-65.145
		c0-2.129,1.727-3.855,3.855-3.855c2.127,0,3.854,1.727,3.854,3.855l0,0l-0.014,65.145c0,2.129-1.728,3.855-3.855,3.854
		C44.996,83.192,43.269,81.467,43.269,79.338z"/>
</g>
<g>
</g>
<g>
</g>
<g>
</g>
<g>
</g>
<g>
</g>
<g>
</g>
<g>
</g>
<g>
</g>
<g>
</g>
<g>
</g>
<g>
</g>
<g>
</g>
<g>
</g>
<g>
</g>
<g>
</g>
</svg>
