<?xml version="1.0" encoding="iso-8859-1"?>
<!-- Generator: Adobe Illustrator 16.0.0, SVG Export Plug-In . SVG Version: 6.00 Build 0)  -->
<!DOCTYPE svg PUBLIC "-//W3C//DTD SVG 1.1//EN" "http://www.w3.org/Graphics/SVG/1.1/DTD/svg11.dtd">
<svg version="1.1" id="Capa_1" xmlns="http://www.w3.org/2000/svg" xmlns:xlink="http://www.w3.org/1999/xlink" x="0px" y="0px"
	 width="92.602px" height="92.602px" viewBox="0 0 92.602 92.602" style="enable-background:new 0 0 92.602 92.602;"
	 xml:space="preserve">
<g>
	<g>
		<path d="M62.766,0.654H15.737v8.495C13.591,8.75,11.51,8.543,9.552,8.54L7.885,8.546l2.96,19.806l1.108,0.117
			c0.855,0.09,2.191,0.291,3.783,0.696v63.437h67.075V27.925L58.982,11.472L62.766,0.654z M65.917,32.805L48.883,62.822
			L18.066,45.391l19.058-0.46c-4.666-12.813-14.575-17.222-21.387-18.732v0.009c-0.793-0.184-1.589-0.346-2.366-0.462l-2.135-14.275
			c1.567,0.095,3.229,0.326,4.889,0.681l0.003-0.015c11.656,2.176,26.885,9.889,33.428,29.399L65.917,32.805z"/>
		<polygon points="69.379,0 66.316,8.765 84.717,21.471 		"/>
	</g>
</g>
<g>
</g>
<g>
</g>
<g>
</g>
<g>
</g>
<g>
</g>
<g>
</g>
<g>
</g>
<g>
</g>
<g>
</g>
<g>
</g>
<g>
</g>
<g>
</g>
<g>
</g>
<g>
</g>
<g>
</g>
</svg>
