<?xml version="1.0" encoding="iso-8859-1"?>
<!-- Generator: Adobe Illustrator 16.0.0, SVG Export Plug-In . SVG Version: 6.00 Build 0)  -->
<!DOCTYPE svg PUBLIC "-//W3C//DTD SVG 1.1//EN" "http://www.w3.org/Graphics/SVG/1.1/DTD/svg11.dtd">
<svg version="1.1" id="Capa_1" xmlns="http://www.w3.org/2000/svg" xmlns:xlink="http://www.w3.org/1999/xlink" x="0px" y="0px"
	 width="92.172px" height="92.172px" viewBox="0 0 92.172 92.172" style="enable-background:new 0 0 92.172 92.172;"
	 xml:space="preserve">
<g>
	<g>
		<polygon points="45.906,92.172 55.188,72.732 36.984,72.711 		"/>
		<path d="M83.807,0H8.365C7.535,0,6.798,0.376,6.289,0.956v0.001C5.86,1.442,5.592,2.074,5.592,2.776v62.126
			c0,1.528,1.243,2.771,2.773,2.771h75.442c1.529,0,2.772-1.243,2.772-2.771V2.776C86.581,1.245,85.337,0,83.807,0z M30.876,61.154
			H12.065V50.752h18.811V61.154z M30.876,44.373H12.065V33.438h18.811V44.373z M30.876,27.059H12.065V16.777h18.811V27.059z
			 M55.458,61.154H37.255V50.752h18.202V61.154z M55.458,44.373H37.255V33.438h18.202V44.373z M55.458,27.059H37.255V16.777h18.202
			V27.059z M80.313,61.154H61.836V50.752h18.477V61.154z M80.313,44.373H61.836V33.438h18.477V44.373z M80.313,27.059H61.836V16.777
			h18.477V27.059z"/>
	</g>
</g>
<g>
</g>
<g>
</g>
<g>
</g>
<g>
</g>
<g>
</g>
<g>
</g>
<g>
</g>
<g>
</g>
<g>
</g>
<g>
</g>
<g>
</g>
<g>
</g>
<g>
</g>
<g>
</g>
<g>
</g>
</svg>
