<?xml version="1.0" encoding="iso-8859-1"?>
<!-- Generator: Adobe Illustrator 16.0.0, SVG Export Plug-In . SVG Version: 6.00 Build 0)  -->
<!DOCTYPE svg PUBLIC "-//W3C//DTD SVG 1.1//EN" "http://www.w3.org/Graphics/SVG/1.1/DTD/svg11.dtd">
<svg version="1.1" id="Capa_1" xmlns="http://www.w3.org/2000/svg" xmlns:xlink="http://www.w3.org/1999/xlink" x="0px" y="0px"
	 width="93.757px" height="93.757px" viewBox="0 0 93.757 93.757" style="enable-background:new 0 0 93.757 93.757;"
	 xml:space="preserve">
<g>
	<g>
		<polygon points="59.857,0 56.752,8.872 75.387,21.738 		"/>
		<path d="M66.607,65.275c-3.084,0-5.596,2.51-5.596,5.595c0,3.084,2.512,5.593,5.596,5.593c3.082,0,5.595-2.509,5.595-5.593
			C72.201,67.785,69.689,65.275,66.607,65.275z"/>
		<path d="M85.305,62.923c0.039-0.31,0.059-0.622,0.059-0.935c0-2.012-0.78-3.902-2.207-5.33l-2.848-2.848
			c-1.594-1.601-3.973-2.406-6.252-2.13c-0.186-0.241-0.389-0.467-0.602-0.684V28.27L49.328,11.611L53.16,0.662H5.543v93.095h67.912
			v-2.974c0.209-0.213,0.406-0.436,0.59-0.67c2.275,0.281,4.648-0.526,6.252-2.135l2.859-2.857c1.424-1.424,2.209-3.316,2.209-5.329
			c0-0.315-0.021-0.629-0.06-0.938c1.771-1.379,2.908-3.531,2.908-5.943v-4.041C88.215,66.456,87.074,64.303,85.305,62.923z
			 M82.752,72.891c0,0.846-0.688,1.535-1.535,1.535h-2.443c-0.256,0.879-0.606,1.729-1.047,2.532l1.726,1.728
			c0.6,0.6,0.6,1.572,0,2.172l-2.857,2.857c-0.579,0.58-1.592,0.58-2.17,0l-1.729-1.727c-0.803,0.441-1.653,0.793-2.532,1.049v2.441
			c0,0.849-0.688,1.537-1.535,1.537h-4.041c-0.849,0-1.535-0.688-1.535-1.537v-2.441c-0.879-0.256-1.729-0.606-2.532-1.049
			l-1.729,1.727c-0.558,0.559-1.613,0.559-2.17,0l-2.857-2.857c-0.291-0.291-0.448-0.676-0.448-1.086
			c0-0.404,0.164-0.802,0.448-1.086l1.728-1.727c-0.441-0.805-0.793-1.653-1.049-2.532h-2.443c-0.848,0-1.535-0.688-1.535-1.536
			V68.85c0-0.847,0.688-1.535,1.535-1.535h2.443c0.256-0.879,0.606-1.729,1.049-2.533l-1.728-1.728c-0.6-0.599-0.6-1.573,0-2.172
			l2.857-2.856c0.579-0.58,1.592-0.58,2.17,0l1.729,1.727c0.803-0.441,1.653-0.793,2.532-1.049v-2.442
			c0-0.847,0.688-1.536,1.535-1.536h4.041c0.849,0,1.535,0.689,1.535,1.536v2.442c0.879,0.256,1.729,0.605,2.532,1.049l1.729-1.727
			c0.558-0.56,1.613-0.559,2.17,0l2.857,2.856c0.29,0.291,0.448,0.677,0.448,1.086c0,0.405-0.164,0.802-0.448,1.087l-1.726,1.727
			c0.439,0.806,0.791,1.654,1.047,2.533h2.443c0.848,0,1.535,0.688,1.535,1.535V72.891z"/>
	</g>
</g>
<g>
</g>
<g>
</g>
<g>
</g>
<g>
</g>
<g>
</g>
<g>
</g>
<g>
</g>
<g>
</g>
<g>
</g>
<g>
</g>
<g>
</g>
<g>
</g>
<g>
</g>
<g>
</g>
<g>
</g>
</svg>
