<?xml version="1.0" encoding="iso-8859-1"?>
<!-- Generator: Adobe Illustrator 16.0.0, SVG Export Plug-In . SVG Version: 6.00 Build 0)  -->
<!DOCTYPE svg PUBLIC "-//W3C//DTD SVG 1.1//EN" "http://www.w3.org/Graphics/SVG/1.1/DTD/svg11.dtd">
<svg version="1.1" id="Capa_1" xmlns="http://www.w3.org/2000/svg" xmlns:xlink="http://www.w3.org/1999/xlink" x="0px" y="0px"
	 width="93.701px" height="93.701px" viewBox="0 0 93.701 93.701" style="enable-background:new 0 0 93.701 93.701;"
	 xml:space="preserve">
<g>
	<path d="M83.906,33.266V11.913c0-1.273-1.033-2.306-2.305-2.306H59.993c-0.97,0-1.834,0.607-2.167,1.518l-1.743,4.796H2.304
		c-0.611,0-1.198,0.243-1.629,0.676C0.243,17.028,0,17.615,0,18.226l0.021,63.583c0,1.151,0.85,2.098,1.956,2.267l77.32,0.02
		l14.404-50.827h-9.795V33.266z M79.296,33.266h-62.96L4.628,74.693L4.61,20.528h53.087c0.969,0,1.834-0.604,2.166-1.516
		l1.744-4.796h17.689L79.296,33.266L79.296,33.266z"/>
</g>
<g>
</g>
<g>
</g>
<g>
</g>
<g>
</g>
<g>
</g>
<g>
</g>
<g>
</g>
<g>
</g>
<g>
</g>
<g>
</g>
<g>
</g>
<g>
</g>
<g>
</g>
<g>
</g>
<g>
</g>
</svg>
