<?xml version="1.0" encoding="iso-8859-1"?>
<!-- Generator: Adobe Illustrator 16.0.0, SVG Export Plug-In . SVG Version: 6.00 Build 0)  -->
<!DOCTYPE svg PUBLIC "-//W3C//DTD SVG 1.1//EN" "http://www.w3.org/Graphics/SVG/1.1/DTD/svg11.dtd">
<svg version="1.1" id="Capa_1" xmlns="http://www.w3.org/2000/svg" xmlns:xlink="http://www.w3.org/1999/xlink" x="0px" y="0px"
	 width="92.975px" height="92.975px" viewBox="0 0 92.975 92.975" style="enable-background:new 0 0 92.975 92.975;"
	 xml:space="preserve">
<g>
	<path d="M88.385,26.456h-0.004H73.953V10.648H57.71l-1.601,4.403c-0.306,0.837-1.101,1.392-1.99,1.392H0
		c0,0,0.065,58.736,0.065,59.178c0,3.11,2.088,5.744,5.051,6.49c0.4,0.122,0.819,0.189,1.248,0.198
		c0.12,0.01,0.256,0.017,0.408,0.017c0.148,0,68.382-0.016,68.382-0.016c2.054,0,3.856-1.364,4.416-3.34l13.182-46.506
		c0.145-0.446,0.223-0.923,0.223-1.417C92.974,28.512,90.922,26.456,88.385,26.456z M75.154,77.719H6.927
		c-0.052,0.004-0.102,0.017-0.154,0.017c-0.044,0.006-2.711,0.121-2.117-2.114l1.936-6.533l10.75-38.04h71.04L75.154,77.719z"/>
</g>
<g>
</g>
<g>
</g>
<g>
</g>
<g>
</g>
<g>
</g>
<g>
</g>
<g>
</g>
<g>
</g>
<g>
</g>
<g>
</g>
<g>
</g>
<g>
</g>
<g>
</g>
<g>
</g>
<g>
</g>
</svg>
