<?xml version="1.0" encoding="iso-8859-1"?>
<!-- Generator: Adobe Illustrator 16.0.0, SVG Export Plug-In . SVG Version: 6.00 Build 0)  -->
<!DOCTYPE svg PUBLIC "-//W3C//DTD SVG 1.1//EN" "http://www.w3.org/Graphics/SVG/1.1/DTD/svg11.dtd">
<svg version="1.1" id="Capa_1" xmlns="http://www.w3.org/2000/svg" xmlns:xlink="http://www.w3.org/1999/xlink" x="0px" y="0px"
	 width="91.391px" height="91.391px" viewBox="0 0 91.391 91.391" style="enable-background:new 0 0 91.391 91.391;"
	 xml:space="preserve">
<g>
	<g>
		<path d="M43.976,37.892c-3.395,0-5.371,3.229-5.371,7.545c0,4.348,2.043,7.415,5.402,7.415c3.395,0,5.34-3.23,5.34-7.546
			C49.348,41.318,47.434,37.892,43.976,37.892z"/>
		<path d="M59.105,0H12.361v91.391h66.668V27.105L55.346,10.754L59.105,0z M57.941,34.267h5.865l4.613,8.139
			c1.317,2.34,2.637,5.107,3.625,7.609h0.1c-0.33-2.932-0.428-5.93-0.428-9.258v-6.49h4.608v22.209h-5.271l-4.743-8.57
			c-1.318-2.37-2.771-5.238-3.857-7.842l-0.1,0.035c0.135,2.932,0.198,6.063,0.198,9.687v6.691H57.94L57.941,34.267L57.941,34.267z
			 M30.535,38.386H22v5.072h7.977v4.088H22v8.931h-5.041V34.267h13.576V38.386z M43.746,56.836c-6.592,0-10.445-4.973-10.445-11.299
			c0-6.656,4.25-11.633,10.807-11.633c6.819,0,10.543,5.107,10.543,11.236C54.65,52.422,50.234,56.836,43.746,56.836z"/>
		<polygon points="63.785,0 60.74,8.711 79.029,21.34 		"/>
	</g>
</g>
<g>
</g>
<g>
</g>
<g>
</g>
<g>
</g>
<g>
</g>
<g>
</g>
<g>
</g>
<g>
</g>
<g>
</g>
<g>
</g>
<g>
</g>
<g>
</g>
<g>
</g>
<g>
</g>
<g>
</g>
</svg>
