<?xml version="1.0" encoding="iso-8859-1"?>
<!-- Generator: Adobe Illustrator 16.0.0, SVG Export Plug-In . SVG Version: 6.00 Build 0)  -->
<!DOCTYPE svg PUBLIC "-//W3C//DTD SVG 1.1//EN" "http://www.w3.org/Graphics/SVG/1.1/DTD/svg11.dtd">
<svg version="1.1" id="Capa_1" xmlns="http://www.w3.org/2000/svg" xmlns:xlink="http://www.w3.org/1999/xlink" x="0px" y="0px"
	 width="88.965px" height="88.965px" viewBox="0 0 88.965 88.965" style="enable-background:new 0 0 88.965 88.965;"
	 xml:space="preserve">
<g>
	<path d="M71.451,57.113l3.59,3.591l-17.442,17.44l-3.591-3.59L71.451,57.113z M85.822,67.715c0,11.717-9.531,21.25-21.25,21.25
		c-5.988,0-11.396-2.5-15.264-6.5h-2.236H32.546h-6.818h-7.915V16.84h42.43l-3.295-6.373c-0.323-0.629-0.321-1.373,0.007-1.998
		l2.187-4.15H7.461V16.84h6.103v65.627H3.194L3.143,2.16C3.143,0.967,4.109,0,5.3,0h57.417c0.756,0,1.457,0.397,1.85,1.045
		c0.391,0.646,0.415,1.451,0.061,2.121l-3.324,6.32l3.746,7.355v6.699v19.607v3.341C76.545,46.745,85.824,56.156,85.822,67.715z
		 M78.824,67.715c0-7.857-6.395-14.25-14.25-14.25s-14.25,6.393-14.25,14.25c0,7.855,6.395,14.25,14.25,14.25
		S78.824,75.572,78.824,67.715z"/>
</g>
<g>
</g>
<g>
</g>
<g>
</g>
<g>
</g>
<g>
</g>
<g>
</g>
<g>
</g>
<g>
</g>
<g>
</g>
<g>
</g>
<g>
</g>
<g>
</g>
<g>
</g>
<g>
</g>
<g>
</g>
</svg>
