<?xml version="1.0" encoding="iso-8859-1"?>
<!-- Generator: Adobe Illustrator 16.0.0, SVG Export Plug-In . SVG Version: 6.00 Build 0)  -->
<!DOCTYPE svg PUBLIC "-//W3C//DTD SVG 1.1//EN" "http://www.w3.org/Graphics/SVG/1.1/DTD/svg11.dtd">
<svg version="1.1" id="Capa_1" xmlns="http://www.w3.org/2000/svg" xmlns:xlink="http://www.w3.org/1999/xlink" x="0px" y="0px"
	 width="93.36px" height="93.361px" viewBox="0 0 93.36 93.361" style="enable-background:new 0 0 93.36 93.361;"
	 xml:space="preserve">
<g>
	<g>
		<path d="M18.55,66.631l3.774,5.289c-6.539-1.37-11.465-7.179-11.465-14.118H3.331c0,10.37,7.239,19.066,16.922,21.352
			l-5.105,3.635l3.915,5.496l15.392-10.959L24.049,62.717L18.55,66.631z"/>
		<path d="M40.693,24.271v68.377H93.36V24.271H40.693z M88.049,87.337H46.004V29.581h42.044V87.337z"/>
		<rect x="52.201" y="40.534" width="30.205" height="5.313"/>
		<rect x="52.201" y="55.535" width="30.205" height="5.312"/>
		<rect x="52.201" y="70.535" width="30.205" height="5.312"/>
		<path d="M84.342,0.712H0v49.143h35.953v-7.676h-2.229v-7.346h2.229v-5.877h-2.229v-7.344h2.229v-2.078h48.389V0.712z
			 M24.175,42.179H7.28v-7.346h16.896L24.175,42.179L24.175,42.179z M24.175,28.956H7.28v-7.344h16.896L24.175,28.956L24.175,28.956
			z M24.175,15.734H7.28V8.39h16.896L24.175,15.734L24.175,15.734z M50.618,15.734H33.724V8.39h16.895L50.618,15.734L50.618,15.734z
			 M77.062,15.734H60.168V8.39h16.895V15.734z"/>
	</g>
</g>
<g>
</g>
<g>
</g>
<g>
</g>
<g>
</g>
<g>
</g>
<g>
</g>
<g>
</g>
<g>
</g>
<g>
</g>
<g>
</g>
<g>
</g>
<g>
</g>
<g>
</g>
<g>
</g>
<g>
</g>
</svg>
