<?xml version="1.0" encoding="iso-8859-1"?>
<!-- Generator: Adobe Illustrator 16.0.0, SVG Export Plug-In . SVG Version: 6.00 Build 0)  -->
<!DOCTYPE svg PUBLIC "-//W3C//DTD SVG 1.1//EN" "http://www.w3.org/Graphics/SVG/1.1/DTD/svg11.dtd">
<svg version="1.1" id="Capa_1" xmlns="http://www.w3.org/2000/svg" xmlns:xlink="http://www.w3.org/1999/xlink" x="0px" y="0px"
	 width="93.49px" height="93.49px" viewBox="0 0 93.49 93.49" style="enable-background:new 0 0 93.49 93.49;" xml:space="preserve"
	>
<g>
	<path d="M0,0.745v21.182v6.771v14.91v6.273v14.91v6.771v21.184h93.49V71.563v-6.771v-14.91v-6.272v-14.91v-6.771V0.745H0z
		 M66.428,6.896H87.34v15.03H66.428V6.896z M33.828,6.896h26.447v15.03H33.828V6.896z M60.275,28.698v14.91H33.828v-14.91H60.275z
		 M6.15,6.896h21.527v15.03H6.15V6.896z M6.15,28.698h21.527v14.91H6.15V28.698z M27.677,86.595H6.15V71.563h21.527V86.595z
		 M6.15,64.792v-14.91h21.527v14.91H6.15z M60.275,86.595H33.828V71.563h26.447V86.595z M33.828,64.792v-14.91h26.447v14.91H33.828z
		 M87.34,86.595H66.428V71.563H87.34V86.595z M87.34,64.792H66.428v-14.91H87.34V64.792z M66.428,43.608v-14.91H87.34v14.91H66.428z
		"/>
</g>
<g>
</g>
<g>
</g>
<g>
</g>
<g>
</g>
<g>
</g>
<g>
</g>
<g>
</g>
<g>
</g>
<g>
</g>
<g>
</g>
<g>
</g>
<g>
</g>
<g>
</g>
<g>
</g>
<g>
</g>
</svg>
