<?xml version="1.0" encoding="iso-8859-1"?>
<!-- Generator: Adobe Illustrator 16.0.0, SVG Export Plug-In . SVG Version: 6.00 Build 0)  -->
<!DOCTYPE svg PUBLIC "-//W3C//DTD SVG 1.1//EN" "http://www.w3.org/Graphics/SVG/1.1/DTD/svg11.dtd">
<svg version="1.1" id="Capa_1" xmlns="http://www.w3.org/2000/svg" xmlns:xlink="http://www.w3.org/1999/xlink" x="0px" y="0px"
	 width="92.543px" height="92.544px" viewBox="0 0 92.543 92.544" style="enable-background:new 0 0 92.543 92.544;"
	 xml:space="preserve">
<g>
	<path d="M35.576,25.078l2.136-2.137c1.063-1.063,1.183-2.709,0.366-3.91c0.357-0.139,0.723-0.273,1.09-0.412
		c1.487-0.473,2.316-0.863,4.729-0.778c7.033,0.247,10.987,7.149,13.375,5.356c1.549-1.163,1-4.192,1-4.192
		C52.689-11.062,34.522,1.947,30.978,8.465c0,0-0.814,1.518-1.101,2.288c-1.205-1.181-3.137-1.177-4.333,0.021L10.21,26.105
		c-1.18-0.693-2.721-0.546-3.735,0.469l-5.267,5.267c-1.203,1.204-1.203,3.156-0.001,4.358l10.897,10.896
		c1.203,1.202,3.154,1.202,4.358,0l5.267-5.269c0.947-0.947,1.138-2.354,0.593-3.498l3.105-3.104L78.98,92.543
		c0,0,3.633,0.181,8.264-4.451c4.631-4.63,4.994-8.808,4.994-8.808L35.576,25.078z"/>
</g>
<g>
</g>
<g>
</g>
<g>
</g>
<g>
</g>
<g>
</g>
<g>
</g>
<g>
</g>
<g>
</g>
<g>
</g>
<g>
</g>
<g>
</g>
<g>
</g>
<g>
</g>
<g>
</g>
<g>
</g>
</svg>
