<?xml version="1.0" encoding="iso-8859-1"?>
<!-- Generator: Adobe Illustrator 16.0.0, SVG Export Plug-In . SVG Version: 6.00 Build 0)  -->
<!DOCTYPE svg PUBLIC "-//W3C//DTD SVG 1.1//EN" "http://www.w3.org/Graphics/SVG/1.1/DTD/svg11.dtd">
<svg version="1.1" id="Capa_1" xmlns="http://www.w3.org/2000/svg" xmlns:xlink="http://www.w3.org/1999/xlink" x="0px" y="0px"
	 width="88.541px" height="88.541px" viewBox="0 0 88.541 88.541" style="enable-background:new 0 0 88.541 88.541;"
	 xml:space="preserve">
<g>
	<g>
		<path d="M70.576,0h-52.61c-1.821,0-3.297,1.477-3.297,3.297v81.947c0,1.82,1.476,3.297,3.297,3.297h52.609
			c1.82,0,3.297-1.477,3.297-3.297V3.297C73.873,1.477,72.397,0,70.576,0z M67.278,81.947H21.263V6.595h46.015V81.947z"/>
		<path d="M30.093,43.889c0.324,0.533,0.676,1.054,1.109,1.564c0.008,0.008,0.018,0.02,0.025,0.027l12.15,13.33
			c0.229,0.25,0.549,0.393,0.887,0.393h0.002c0.338,0,0.658-0.143,0.887-0.391L57.31,45.525c0.014-0.016,0.024-0.029,0.039-0.045
			c0.411-0.502,0.771-1.004,1.086-1.515l0.813-1.622c0.438-1.103,0.653-2.235,0.653-3.416c0-4.896-3.688-8.943-8.432-9.517
			l-0.633-0.059c-0.174-0.009-0.348-0.016-0.525-0.016c-2.231,0-4.34,0.754-6.042,2.146c-1.703-1.392-3.811-2.146-6.043-2.146
			c-0.166,0-0.33,0.004-0.492,0.014l-0.633,0.056c-4.76,0.559-8.465,4.615-8.465,9.521c0,1.152,0.211,2.27,0.629,3.348
			L30.093,43.889z"/>
	</g>
</g>
<g>
</g>
<g>
</g>
<g>
</g>
<g>
</g>
<g>
</g>
<g>
</g>
<g>
</g>
<g>
</g>
<g>
</g>
<g>
</g>
<g>
</g>
<g>
</g>
<g>
</g>
<g>
</g>
<g>
</g>
</svg>
