<?xml version="1.0" encoding="iso-8859-1"?>
<!-- Generator: Adobe Illustrator 16.0.0, SVG Export Plug-In . SVG Version: 6.00 Build 0)  -->
<!DOCTYPE svg PUBLIC "-//W3C//DTD SVG 1.1//EN" "http://www.w3.org/Graphics/SVG/1.1/DTD/svg11.dtd">
<svg version="1.1" id="Capa_1" xmlns="http://www.w3.org/2000/svg" xmlns:xlink="http://www.w3.org/1999/xlink" x="0px" y="0px"
	 width="94.656px" height="94.656px" viewBox="0 0 94.656 94.656" style="enable-background:new 0 0 94.656 94.656;"
	 xml:space="preserve">
<g>
	<g id="Layer_1_6_">
		<g>
			<path d="M22.526,39.264c1.853,1.851,5.662,1.053,8.495-1.78c2.832-2.833,3.63-6.644,1.778-8.496
				c-1.851-1.851-5.661-1.052-8.494,1.781c-1.226,1.225-2.122,2.729-2.523,4.238C21.782,35.007,20.998,37.736,22.526,39.264z"/>
			<path d="M60.58,0H34.076c-6.97,0-12.621,5.651-12.621,12.621v13.081c4.265-3.521,9.753-4.399,13.613-2.131
				c3.935-0.638,7.365,0.279,9.677,2.592c3.588,3.589,3.733,9.773,0.404,15.834l21.787,21.787l-0.002,8.784H56.491l-1.245-1.245
				l-0.001-5.915h-5.913l-1.713-1.715V55.73h-7.966l-4.117-4.119c-5.087,2.792-10.396,3.135-14.081,0.936v29.488
				c0,6.97,5.651,12.621,12.621,12.621H60.58c6.971,0,12.621-5.651,12.621-12.621V12.621C73.201,5.651,67.551,0,60.58,0z"/>
		</g>
	</g>
</g>
<g>
</g>
<g>
</g>
<g>
</g>
<g>
</g>
<g>
</g>
<g>
</g>
<g>
</g>
<g>
</g>
<g>
</g>
<g>
</g>
<g>
</g>
<g>
</g>
<g>
</g>
<g>
</g>
<g>
</g>
</svg>
