<?xml version="1.0" encoding="iso-8859-1"?>
<!-- Generator: Adobe Illustrator 16.0.0, SVG Export Plug-In . SVG Version: 6.00 Build 0)  -->
<!DOCTYPE svg PUBLIC "-//W3C//DTD SVG 1.1//EN" "http://www.w3.org/Graphics/SVG/1.1/DTD/svg11.dtd">
<svg version="1.1" id="Capa_1" xmlns="http://www.w3.org/2000/svg" xmlns:xlink="http://www.w3.org/1999/xlink" x="0px" y="0px"
	 width="91.931px" height="91.932px" viewBox="0 0 91.931 91.932" style="enable-background:new 0 0 91.931 91.932;"
	 xml:space="preserve">
<g>
	<g id="Layer_1_25_">
		<g>
			<path d="M68.819,40.348h-5.703v5.696l-4.651,4.655h-3.508v3.511l-4.152,4.149h-17.98l-0.001-16.205l21.629-21.631l-6.082-5.906
				H0.029v77.314h77.314v-49.18l-5.547-5.385L68.819,40.348z M71.894,77.63h-8.586v8.586h-6.105V77.63h-8.586v-6.104h8.586v-8.588
				h6.105v8.588h8.586V77.63z"/>
			<path d="M87.253,4.649c-4.711-4.711-11.031-6.043-14.272-3.068c-4.783-1.314-9.358-0.633-12.304,2.313
				c-3.989,3.99-3.816,10.977-0.15,17.418l-22.86,22.861l0.001,9.396h11.171l1.332-1.332l0.002-6.328H56.5l1.832-1.834v-8.52h8.522
				l4.013-4.016c6.364,3.516,13.208,3.617,17.143-0.316c2.942-2.943,3.625-7.52,2.312-12.301C93.296,15.68,91.964,9.36,87.253,4.649
				z M85.738,16.975c-1.796,1.797-5.672,0.832-8.658-2.152c-2.984-2.986-3.949-6.863-2.154-8.66c1.797-1.795,5.672-0.83,8.658,2.154
				C86.57,11.303,87.534,15.18,85.738,16.975z"/>
		</g>
	</g>
</g>
<g>
</g>
<g>
</g>
<g>
</g>
<g>
</g>
<g>
</g>
<g>
</g>
<g>
</g>
<g>
</g>
<g>
</g>
<g>
</g>
<g>
</g>
<g>
</g>
<g>
</g>
<g>
</g>
<g>
</g>
</svg>
