<?xml version="1.0" encoding="iso-8859-1"?>
<!-- Generator: Adobe Illustrator 16.0.0, SVG Export Plug-In . SVG Version: 6.00 Build 0)  -->
<!DOCTYPE svg PUBLIC "-//W3C//DTD SVG 1.1//EN" "http://www.w3.org/Graphics/SVG/1.1/DTD/svg11.dtd">
<svg version="1.1" id="Capa_1" xmlns="http://www.w3.org/2000/svg" xmlns:xlink="http://www.w3.org/1999/xlink" x="0px" y="0px"
	 width="93.192px" height="93.191px" viewBox="0 0 93.192 93.191" style="enable-background:new 0 0 93.192 93.191;"
	 xml:space="preserve">
<g>
	<g>
		<path d="M6.654,38.978c-3.947,3.947-4.984,9.31-2.318,11.978c2.67,2.668,8.031,1.631,11.977-2.315
			c3.947-3.947,4.984-9.31,2.316-11.978S10.601,35.031,6.654,38.978z"/>
		<path d="M48.031,83.873h-8.078l-1.848-1.852V71.275H27.357l-5.518-5.519c-7.482,4.272-15.613,4.466-20.26-0.181
			C0.962,64.958,0.448,64.264,0,63.531v3.771v25.886h48.021L48.031,83.873z"/>
		<path d="M93.191,25.886C93.191,11.589,81.6,0,67.303,0L0,0.002v37.477c0.678-0.979,1.451-1.926,2.338-2.812
			c5.621-5.623,13.471-7.115,18.652-3.912c4.799-0.832,9.258,0.148,12.26,3.15c4.646,4.647,4.453,12.779,0.18,20.262l28.512,28.51
			v10.516h31.248V25.886z"/>
	</g>
</g>
<g>
</g>
<g>
</g>
<g>
</g>
<g>
</g>
<g>
</g>
<g>
</g>
<g>
</g>
<g>
</g>
<g>
</g>
<g>
</g>
<g>
</g>
<g>
</g>
<g>
</g>
<g>
</g>
<g>
</g>
</svg>
