<?xml version="1.0" encoding="iso-8859-1"?>
<!-- Generator: Adobe Illustrator 16.0.0, SVG Export Plug-In . SVG Version: 6.00 Build 0)  -->
<!DOCTYPE svg PUBLIC "-//W3C//DTD SVG 1.1//EN" "http://www.w3.org/Graphics/SVG/1.1/DTD/svg11.dtd">
<svg version="1.1" id="Capa_1" xmlns="http://www.w3.org/2000/svg" xmlns:xlink="http://www.w3.org/1999/xlink" x="0px" y="0px"
	 width="94.734px" height="94.734px" viewBox="0 0 94.734 94.734" style="enable-background:new 0 0 94.734 94.734;"
	 xml:space="preserve">
<g>
	<g id="Layer_1_34_">
		<path d="M86.613,8.704c-8.229-8.228-19.27-10.556-24.932-5.359c-8.354-2.296-16.347-1.105-21.488,4.04
			c-6.971,6.969-6.668,19.172-0.265,30.424L0,77.74l0.002,16.412h19.517l2.326-2.326l0.002-11.054h11.047l3.202-3.203V62.687h14.886
			l7.01-7.013c11.116,6.141,23.068,6.317,29.939-0.553c5.143-5.143,6.336-13.136,4.041-21.487
			C97.167,27.972,94.842,16.932,86.613,8.704z M83.967,30.234c-3.137,3.139-9.91,1.453-15.123-3.76
			c-5.215-5.216-6.898-11.987-3.763-15.126c3.138-3.135,9.908-1.45,15.124,3.763C85.418,20.327,87.104,27.099,83.967,30.234z"/>
	</g>
</g>
<g>
</g>
<g>
</g>
<g>
</g>
<g>
</g>
<g>
</g>
<g>
</g>
<g>
</g>
<g>
</g>
<g>
</g>
<g>
</g>
<g>
</g>
<g>
</g>
<g>
</g>
<g>
</g>
<g>
</g>
</svg>
