<?xml version="1.0" encoding="iso-8859-1"?>
<!-- Generator: Adobe Illustrator 16.0.0, SVG Export Plug-In . SVG Version: 6.00 Build 0)  -->
<!DOCTYPE svg PUBLIC "-//W3C//DTD SVG 1.1//EN" "http://www.w3.org/Graphics/SVG/1.1/DTD/svg11.dtd">
<svg version="1.1" id="Capa_1" xmlns="http://www.w3.org/2000/svg" xmlns:xlink="http://www.w3.org/1999/xlink" x="0px" y="0px"
	 width="92.333px" height="92.333px" viewBox="0 0 92.333 92.333" style="enable-background:new 0 0 92.333 92.333;"
	 xml:space="preserve">
<g>
	<path d="M66.686,0L0,0.001v66.685v25.646h92.333V25.647C92.334,11.482,80.852,0,66.686,0z M71.994,82.62h-5.51l-7.668-23.385
		l-7.67,23.385h-5.507L34.167,50.536h12.612v5.338h-4.832l3.51,10.252c1.123,3.188,2.029,6.006,2.74,8.529
		c0.75-2.762,1.621-5.625,2.521-8.551l4.925-15.568h0.32h5.705h0.32l4.925,15.568c0.899,2.926,1.772,5.789,2.521,8.551
		c0.713-2.523,1.617-5.344,2.741-8.529l3.511-10.252h-4.834v-5.338h12.613L71.994,82.62z"/>
</g>
<g>
</g>
<g>
</g>
<g>
</g>
<g>
</g>
<g>
</g>
<g>
</g>
<g>
</g>
<g>
</g>
<g>
</g>
<g>
</g>
<g>
</g>
<g>
</g>
<g>
</g>
<g>
</g>
<g>
</g>
</svg>
