<?xml version="1.0" encoding="iso-8859-1"?>
<!-- Generator: Adobe Illustrator 16.0.0, SVG Export Plug-In . SVG Version: 6.00 Build 0)  -->
<!DOCTYPE svg PUBLIC "-//W3C//DTD SVG 1.1//EN" "http://www.w3.org/Graphics/SVG/1.1/DTD/svg11.dtd">
<svg version="1.1" id="Capa_1" xmlns="http://www.w3.org/2000/svg" xmlns:xlink="http://www.w3.org/1999/xlink" x="0px" y="0px"
	 width="94px" height="94px" viewBox="0 0 94 94" style="enable-background:new 0 0 94 94;" xml:space="preserve">
<g>
	<g>
		<path d="M0,0.001v67.888V94h94V26.111C94,11.69,82.311,0,67.889,0L0,0.001z M69.854,82.098c-9.817,0-14.727-7.084-14.727-21.902
			c0-5.824,1.023-10.23,3.073-13.863c2.554-4.495,6.51-6.743,11.868-6.743c9.853,0,14.779,6.654,14.779,20.606
			C84.85,75.014,79.85,82.098,69.854,82.098z"/>
		<path d="M69.961,46.063c-4.244,0-6.312,4.748-6.204,14.889c0.108,9.997,2.177,14.673,6.204,14.673
			c4.17,0,6.256-4.748,6.256-14.889C76.217,50.739,74.131,46.063,69.961,46.063z"/>
	</g>
</g>
<g>
</g>
<g>
</g>
<g>
</g>
<g>
</g>
<g>
</g>
<g>
</g>
<g>
</g>
<g>
</g>
<g>
</g>
<g>
</g>
<g>
</g>
<g>
</g>
<g>
</g>
<g>
</g>
<g>
</g>
</svg>
