<?xml version="1.0" encoding="iso-8859-1"?>
<!-- Generator: Adobe Illustrator 16.0.0, SVG Export Plug-In . SVG Version: 6.00 Build 0)  -->
<!DOCTYPE svg PUBLIC "-//W3C//DTD SVG 1.1//EN" "http://www.w3.org/Graphics/SVG/1.1/DTD/svg11.dtd">
<svg version="1.1" id="Capa_1" xmlns="http://www.w3.org/2000/svg" xmlns:xlink="http://www.w3.org/1999/xlink" x="0px" y="0px"
	 width="92.599px" height="92.598px" viewBox="0 0 92.599 92.598" style="enable-background:new 0 0 92.599 92.598;"
	 xml:space="preserve">
<g>
	<g>
		<path d="M15.936,55.754V16.793c2.469-0.472,7.167-0.801,11.513-0.801c5.791,0,8.965,0.604,11.736,2.244
			c2.985,1.587,4.696,4.383,4.696,7.67c0,0.389-0.033,0.767-0.08,1.138h17.378v-16.53H0v51.289h26.576v-5.499
			c-0.345,0.007-0.668,0.022-1.024,0.022C20.706,56.327,17.492,55.977,15.936,55.754z"/>
		<path d="M35.136,27.031c0-3.085-2.331-4.783-6.562-4.783c-1.373,0-2.498,0.059-3.441,0.178l-0.572,0.072v9.615h2.015v-5.069h8.56
			C35.135,27.041,35.136,27.036,35.136,27.031z"/>
		<path d="M24.561,49.831l0.599,0.051c0.419,0.036,0.889,0.054,1.416,0.062V38.25h-2.015V49.831z"/>
		<polygon points="62.761,46.11 61.393,46.118 56.965,59.444 67.162,59.444 		"/>
		<path d="M31.419,30.795v51.289h61.18V30.795H31.419z M70.977,75.647l-1.953-7.426H55.107l-2.006,7.426H42.803l12.482-38.415
			h13.289l12.639,38.415H70.977z"/>
	</g>
</g>
<g>
</g>
<g>
</g>
<g>
</g>
<g>
</g>
<g>
</g>
<g>
</g>
<g>
</g>
<g>
</g>
<g>
</g>
<g>
</g>
<g>
</g>
<g>
</g>
<g>
</g>
<g>
</g>
<g>
</g>
</svg>
