<?xml version="1.0" encoding="iso-8859-1"?>
<!-- Generator: Adobe Illustrator 16.0.0, SVG Export Plug-In . SVG Version: 6.00 Build 0)  -->
<!DOCTYPE svg PUBLIC "-//W3C//DTD SVG 1.1//EN" "http://www.w3.org/Graphics/SVG/1.1/DTD/svg11.dtd">
<svg version="1.1" id="Capa_1" xmlns="http://www.w3.org/2000/svg" xmlns:xlink="http://www.w3.org/1999/xlink" x="0px" y="0px"
	 width="92.5px" height="92.5px" viewBox="0 0 92.5 92.5" style="enable-background:new 0 0 92.5 92.5;" xml:space="preserve">
<g>
	<g>
		<path d="M32.041,25.772c-0.617-2.491-1.023-4.275-1.221-5.354c-0.174,1-0.523,2.647-1.043,4.942
			c-0.521,2.295-1.672,6.816-3.457,13.563h9.15l-1.854-7.061C33.186,30.293,32.66,28.263,32.041,25.772z"/>
		<path d="M66.807,0L0,0.001V92.5h92.5V25.695C92.5,11.504,80.996,0,66.807,0z M40.002,56.516l-2.119-8.061H23.908l-2.178,8.061
			H8.963l14.033-43.188H38.5l14.209,43.188H40.002z"/>
	</g>
</g>
<g>
</g>
<g>
</g>
<g>
</g>
<g>
</g>
<g>
</g>
<g>
</g>
<g>
</g>
<g>
</g>
<g>
</g>
<g>
</g>
<g>
</g>
<g>
</g>
<g>
</g>
<g>
</g>
<g>
</g>
</svg>
