<?xml version="1.0" encoding="iso-8859-1"?>
<!-- Generator: Adobe Illustrator 16.0.0, SVG Export Plug-In . SVG Version: 6.00 Build 0)  -->
<!DOCTYPE svg PUBLIC "-//W3C//DTD SVG 1.1//EN" "http://www.w3.org/Graphics/SVG/1.1/DTD/svg11.dtd">
<svg version="1.1" id="Capa_1" xmlns="http://www.w3.org/2000/svg" xmlns:xlink="http://www.w3.org/1999/xlink" x="0px" y="0px"
	 width="93.801px" height="93.802px" viewBox="0 0 93.801 93.802" style="enable-background:new 0 0 93.801 93.802;"
	 xml:space="preserve">
<g>
	<g>
		<path d="M10.87,0v70.747h72.062V0H10.87z M76.194,64.008H17.606V6.738h58.587V64.008z"/>
		<polygon points="46.73,93.802 55.483,75.477 38.318,75.449 		"/>
		<path d="M36.568,38.22c1.908,1.909,4.694,2.41,7.069,1.515c-0.896,2.375-0.395,5.161,1.514,7.069l8.821,8.821
			c2.599,2.598,6.824,2.598,9.423,0l2.658-2.658c2.598-2.598,2.598-6.824,0-9.422l-8.82-8.822c-1.908-1.908-4.694-2.409-7.069-1.514
			c0.896-2.375,0.396-5.162-1.514-7.069l-8.821-8.821c-2.598-2.598-6.825-2.598-9.423,0l-2.658,2.657
			c-2.598,2.598-2.598,6.825,0,9.423L36.568,38.22z M53.235,39.905l-3.125-3.123c1.408-1.278,3.59-1.243,4.947,0.115l8.821,8.821
			c1.397,1.399,1.397,3.675,0,5.074l-2.657,2.657c-1.398,1.4-3.676,1.4-5.074,0l-8.821-8.82c-1.358-1.358-1.395-3.541-0.114-4.947
			l3.123,3.123c0.799,0.8,2.101,0.8,2.899,0C54.034,42.006,54.034,40.705,53.235,39.905z M29.921,22.151l2.657-2.658
			c1.399-1.399,3.675-1.399,5.074,0l8.821,8.821c1.358,1.357,1.394,3.541,0.115,4.946l-3.043-3.042c-0.8-0.799-2.101-0.799-2.899,0
			c-0.8,0.799-0.8,2.1,0,2.899l3.043,3.043c-1.406,1.278-3.589,1.243-4.947-0.115l-8.821-8.821
			C28.523,25.826,28.523,23.55,29.921,22.151z"/>
	</g>
</g>
<g>
</g>
<g>
</g>
<g>
</g>
<g>
</g>
<g>
</g>
<g>
</g>
<g>
</g>
<g>
</g>
<g>
</g>
<g>
</g>
<g>
</g>
<g>
</g>
<g>
</g>
<g>
</g>
<g>
</g>
</svg>
