<?xml version="1.0" encoding="iso-8859-1"?>
<!-- Generator: Adobe Illustrator 16.0.0, SVG Export Plug-In . SVG Version: 6.00 Build 0)  -->
<!DOCTYPE svg PUBLIC "-//W3C//DTD SVG 1.1//EN" "http://www.w3.org/Graphics/SVG/1.1/DTD/svg11.dtd">
<svg version="1.1" id="Capa_1" xmlns="http://www.w3.org/2000/svg" xmlns:xlink="http://www.w3.org/1999/xlink" x="0px" y="0px"
	 width="93.757px" height="93.757px" viewBox="0 0 93.757 93.757" style="enable-background:new 0 0 93.757 93.757;"
	 xml:space="preserve">
<g>
	<g>
		<polygon points="60.81,0 57.705,8.872 76.339,21.738 		"/>
		<path d="M83.671,60.378c-0.648-5.783-4.255-10.681-9.264-13.151V28.27L50.281,11.611l3.832-10.949H6.496v93.095h46.287h21.625
			h6.854c3.312,0,6-2.687,6-6V65.875C87.261,63.418,85.785,61.306,83.671,60.378z M81.261,87.941H52.783V66.059h3.484v-3.615
			c0-5.931,4.823-10.756,10.754-10.756s10.754,4.825,10.754,10.756v3.615h3.485L81.261,87.941L81.261,87.941z"/>
		<path d="M67.021,74.045c-1.748,0-3.168,1.418-3.168,3.168c0,1.085,0.547,2.042,1.379,2.613v4.838h3.58v-4.838
			c0.832-0.571,1.379-1.528,1.379-2.613C70.191,75.464,68.771,74.045,67.021,74.045z"/>
		<path d="M67.021,56.154c-3.468,0-6.289,2.82-6.289,6.289v3.615H73.31v-3.615C73.31,58.975,70.49,56.154,67.021,56.154z"/>
	</g>
</g>
<g>
</g>
<g>
</g>
<g>
</g>
<g>
</g>
<g>
</g>
<g>
</g>
<g>
</g>
<g>
</g>
<g>
</g>
<g>
</g>
<g>
</g>
<g>
</g>
<g>
</g>
<g>
</g>
<g>
</g>
</svg>
