<?xml version="1.0" encoding="iso-8859-1"?>
<!-- Generator: Adobe Illustrator 16.0.0, SVG Export Plug-In . SVG Version: 6.00 Build 0)  -->
<!DOCTYPE svg PUBLIC "-//W3C//DTD SVG 1.1//EN" "http://www.w3.org/Graphics/SVG/1.1/DTD/svg11.dtd">
<svg version="1.1" id="Capa_1" xmlns="http://www.w3.org/2000/svg" xmlns:xlink="http://www.w3.org/1999/xlink" x="0px" y="0px"
	 width="85.214px" height="85.214px" viewBox="0 0 85.214 85.214" style="enable-background:new 0 0 85.214 85.214;"
	 xml:space="preserve">
<g>
	<g>
		<path d="M75.189,52.688c-0.455-4.843-3.049-9.06-6.814-11.728V23.543v-6.701l-3.746-7.354l3.324-6.32
			c0.354-0.67,0.33-1.477-0.061-2.123C67.499,0.397,66.797,0,66.042,0H8.626C7.436,0,6.468,0.967,6.468,2.162L6.52,82.467h10.369
			V16.841h-6.102V4.32h51.68l-2.186,4.152c-0.328,0.623-0.332,1.369-0.006,1.998l3.295,6.371H21.14v65.625h7.914h6.818h4.139
			c0.952,1.642,2.723,2.748,4.757,2.748h28.479c3.037,0,5.5-2.463,5.5-5.5v-21.88C78.746,55.48,77.267,53.473,75.189,52.688z
			 M73.4,79.673H44.92v-21.88h3.483v-3.617c0-5.93,4.824-10.754,10.754-10.754c5.932,0,10.756,4.824,10.756,10.754v3.617h3.484
			v21.88H73.4z"/>
		<path d="M59.16,47.886c-3.469,0-6.289,2.822-6.289,6.289v3.617h12.578v-3.617C65.449,50.709,62.627,47.886,59.16,47.886z"/>
		<path d="M59.16,65.779c-1.749,0-3.168,1.418-3.168,3.168c0,1.084,0.547,2.043,1.379,2.613v4.838h3.578v-4.838
			c0.834-0.57,1.38-1.529,1.38-2.613C62.329,67.197,60.91,65.779,59.16,65.779z"/>
	</g>
</g>
<g>
</g>
<g>
</g>
<g>
</g>
<g>
</g>
<g>
</g>
<g>
</g>
<g>
</g>
<g>
</g>
<g>
</g>
<g>
</g>
<g>
</g>
<g>
</g>
<g>
</g>
<g>
</g>
<g>
</g>
</svg>
