<?xml version="1.0" encoding="iso-8859-1"?>
<!-- Generator: Adobe Illustrator 16.0.0, SVG Export Plug-In . SVG Version: 6.00 Build 0)  -->
<!DOCTYPE svg PUBLIC "-//W3C//DTD SVG 1.1//EN" "http://www.w3.org/Graphics/SVG/1.1/DTD/svg11.dtd">
<svg version="1.1" id="Capa_1" xmlns="http://www.w3.org/2000/svg" xmlns:xlink="http://www.w3.org/1999/xlink" x="0px" y="0px"
	 width="91.539px" height="91.539px" viewBox="0 0 91.539 91.539" style="enable-background:new 0 0 91.539 91.539;"
	 xml:space="preserve">
<g>
	<path d="M72.925,36.286v-9.129C72.925,12.182,60.743,0,45.77,0C30.795,0,18.614,12.182,18.614,27.157v9.129H9.815v55.253h71.908
		V36.286H72.925z M29.89,27.157c0-8.757,7.124-15.881,15.88-15.881s15.88,7.124,15.88,15.881v9.129H29.89V27.157z M50.288,71.051
		v12.215h-9.037V71.051c-2.102-1.441-3.482-3.857-3.482-6.6c0-4.418,3.582-8,8-8s8,3.582,8,8
		C53.77,67.193,52.39,69.609,50.288,71.051z"/>
</g>
<g>
</g>
<g>
</g>
<g>
</g>
<g>
</g>
<g>
</g>
<g>
</g>
<g>
</g>
<g>
</g>
<g>
</g>
<g>
</g>
<g>
</g>
<g>
</g>
<g>
</g>
<g>
</g>
<g>
</g>
</svg>
