<?xml version="1.0" encoding="iso-8859-1"?>
<!-- Generator: Adobe Illustrator 16.0.0, SVG Export Plug-In . SVG Version: 6.00 Build 0)  -->
<!DOCTYPE svg PUBLIC "-//W3C//DTD SVG 1.1//EN" "http://www.w3.org/Graphics/SVG/1.1/DTD/svg11.dtd">
<svg version="1.1" id="Capa_1" xmlns="http://www.w3.org/2000/svg" xmlns:xlink="http://www.w3.org/1999/xlink" x="0px" y="0px"
	 width="92.345px" height="92.345px" viewBox="0 0 92.345 92.345" style="enable-background:new 0 0 92.345 92.345;"
	 xml:space="preserve">
<g>
	<g>
		<path d="M1.562,90.781c2.083,2.083,5.458,2.083,7.541,0l34.57-34.567c0.14-0.143,0.247-0.302,0.37-0.455
			c11.967,8.415,28.635,7.308,39.327-3.386c11.966-11.965,11.966-31.434,0-43.399C71.403-2.99,51.934-2.99,39.971,8.974
			C29.278,19.665,28.169,36.333,36.582,48.3c-0.148,0.123-0.31,0.23-0.455,0.372L1.562,83.239
			C-0.521,85.323-0.521,88.698,1.562,90.781z M40.478,30.43c0-11.82,9.585-21.402,21.402-21.402c11.82,0,21.404,9.582,21.404,21.402
			S73.701,51.832,61.88,51.832C50.063,51.833,40.478,42.251,40.478,30.43z"/>
		<polygon points="57.164,12.97 71.187,30.488 57.104,48.006 57.162,36.741 61.422,30.521 57.162,24.235 		"/>
	</g>
</g>
<g>
</g>
<g>
</g>
<g>
</g>
<g>
</g>
<g>
</g>
<g>
</g>
<g>
</g>
<g>
</g>
<g>
</g>
<g>
</g>
<g>
</g>
<g>
</g>
<g>
</g>
<g>
</g>
<g>
</g>
</svg>
