<?xml version="1.0" encoding="iso-8859-1"?>
<!-- Generator: Adobe Illustrator 16.0.0, SVG Export Plug-In . SVG Version: 6.00 Build 0)  -->
<!DOCTYPE svg PUBLIC "-//W3C//DTD SVG 1.1//EN" "http://www.w3.org/Graphics/SVG/1.1/DTD/svg11.dtd">
<svg version="1.1" id="Capa_1" xmlns="http://www.w3.org/2000/svg" xmlns:xlink="http://www.w3.org/1999/xlink" x="0px" y="0px"
	 width="90.961px" height="90.961px" viewBox="0 0 90.961 90.961" style="enable-background:new 0 0 90.961 90.961;"
	 xml:space="preserve">
<g>
	<g>
		<path d="M88.985,65.436L75.333,48.182c-0.805-1.019-2.028-1.611-3.328-1.611c-1.297,0-2.521,0.594-3.328,1.611l-4.256,5.379
			l-7.7-3.547l-4.947-4.171l-8.502,8.455l-8.523-8.455l-4.947,4.171l-10.298,4.741c-1.523,0.625-2.875,1.705-3.781,3.228
			L1.061,82.492h62.357v4.225c0,2.344,1.898,4.244,4.244,4.244h8.687c2.344,0,4.243-1.9,4.243-4.244V72.312h5.063
			c1.628,0,3.111-0.933,3.82-2.396c0.285-0.588,0.424-1.222,0.424-1.849C89.899,67.13,89.588,66.201,88.985,65.436z M76.349,68.068
			v18.647h-8.687V68.068h-9.311l13.652-17.254l13.649,17.254H76.349z"/>
		<path d="M43.205,46.863v0.002c0.009,0,0.02-0.002,0.029-0.002c0.005,0,0.013,0.002,0.02,0.002c0.001,0,0.004,0,0.007,0
			c0.003,0,0.006,0,0.007,0c0.007,0,0.015-0.002,0.02-0.002c0.01,0,0.02,0.002,0.029,0.002v-0.002
			c12.005,0.182,19.303-10.324,19.49-27.646C62.928,7.199,55.476,0.328,43.338,0.003V0c-0.019,0-0.032,0.002-0.051,0.002V0
			c-0.011,0-0.019,0-0.026,0.002C43.253,0,43.243,0,43.234,0v0.002C43.215,0.002,43.201,0,43.185,0v0.004
			c-12.137,0.324-19.591,7.195-19.47,19.212C23.903,36.539,31.2,47.044,43.205,46.863z"/>
	</g>
</g>
<g>
</g>
<g>
</g>
<g>
</g>
<g>
</g>
<g>
</g>
<g>
</g>
<g>
</g>
<g>
</g>
<g>
</g>
<g>
</g>
<g>
</g>
<g>
</g>
<g>
</g>
<g>
</g>
<g>
</g>
</svg>
