<?xml version="1.0" encoding="iso-8859-1"?>
<!-- Generator: Adobe Illustrator 16.0.0, SVG Export Plug-In . SVG Version: 6.00 Build 0)  -->
<!DOCTYPE svg PUBLIC "-//W3C//DTD SVG 1.1//EN" "http://www.w3.org/Graphics/SVG/1.1/DTD/svg11.dtd">
<svg version="1.1" id="Capa_1" xmlns="http://www.w3.org/2000/svg" xmlns:xlink="http://www.w3.org/1999/xlink" x="0px" y="0px"
	 width="90.96px" height="90.96px" viewBox="0 0 90.96 90.96" style="enable-background:new 0 0 90.96 90.96;" xml:space="preserve"
	>
<g>
	<g>
		<path d="M89.475,67.613c-0.709-1.463-2.192-2.395-3.82-2.395h-5.065V50.814c0-2.344-1.898-4.244-4.244-4.244h-8.686
			c-2.345,0-4.244,1.9-4.244,4.244v2.283l-6.694-3.084l-4.947-4.171l-8.502,8.455l-8.523-8.455l-4.947,4.171l-10.299,4.741
			c-1.523,0.625-2.875,1.705-3.781,3.228l-14.66,24.51h62.189l5.424,6.857c0.806,1.018,2.029,1.61,3.328,1.61
			c1.297,0,2.521-0.595,3.328-1.61l13.652-17.254C89.991,70.82,90.184,69.08,89.475,67.613z M72.001,86.716L58.352,69.462h9.308
			V50.814h8.686v18.647h9.311L72.001,86.716z"/>
		<path d="M43.205,46.863v0.002c0.008,0,0.02-0.002,0.029-0.002c0.004,0,0.012,0.002,0.02,0.002c0,0,0.004,0,0.006,0
			c0.004,0,0.006,0,0.008,0c0.006,0,0.014-0.002,0.02-0.002c0.01,0,0.02,0.002,0.029,0.002v-0.002
			c12.004,0.182,19.302-10.324,19.49-27.646c0.12-12.018-7.333-18.889-19.47-19.214V0c-0.02,0-0.033,0.002-0.051,0.002V0
			c-0.012,0-0.02,0-0.027,0.002C43.25,0,43.242,0,43.233,0v0.002C43.213,0.002,43.201,0,43.185,0v0.004
			C31.045,0.328,23.592,7.199,23.713,19.216C23.901,36.539,31.199,47.044,43.205,46.863z"/>
	</g>
</g>
<g>
</g>
<g>
</g>
<g>
</g>
<g>
</g>
<g>
</g>
<g>
</g>
<g>
</g>
<g>
</g>
<g>
</g>
<g>
</g>
<g>
</g>
<g>
</g>
<g>
</g>
<g>
</g>
<g>
</g>
</svg>
