<?xml version="1.0" encoding="iso-8859-1"?>
<!-- Generator: Adobe Illustrator 16.0.0, SVG Export Plug-In . SVG Version: 6.00 Build 0)  -->
<!DOCTYPE svg PUBLIC "-//W3C//DTD SVG 1.1//EN" "http://www.w3.org/Graphics/SVG/1.1/DTD/svg11.dtd">
<svg version="1.1" id="Capa_1" xmlns="http://www.w3.org/2000/svg" xmlns:xlink="http://www.w3.org/1999/xlink" x="0px" y="0px"
	 width="92.268px" height="92.268px" viewBox="0 0 92.268 92.268" style="enable-background:new 0 0 92.268 92.268;"
	 xml:space="preserve">
<g>
	<path d="M82.658,25.511v-9.28h9.608v-4.95h-9.608v-9.28h-6.768v4.95H15.139v-4.95H8.371v9.28H0v4.95h8.371v9.28h6.768v-4.949h6.505
		c-1.306,5.662-2.224,14.693,1.817,23.449c4.729,10.247-1.382,24.477-2.324,27.696h-5.998v-4.95H8.371v9.279H0v4.951h8.371v9.279
		h6.768v-4.949h60.753v4.949h6.767v-9.279h9.609v-4.951h-9.609v-9.279h-6.767v4.95h-6.351c1.476-5.679,6.693-18.489,1.52-30.289
		c-3.478-7.93-2.26-16.322-1.043-20.856h5.874v4.949H82.658z M65.443,44.01c4.729,10.247-1.383,24.478-2.324,27.696H27.559
		c1.477-5.68,6.551-18.031,1.52-30.289c-3.288-8.01-2.259-16.322-1.042-20.856h35.589C62.318,26.223,61.402,35.255,65.443,44.01z"/>
</g>
<g>
</g>
<g>
</g>
<g>
</g>
<g>
</g>
<g>
</g>
<g>
</g>
<g>
</g>
<g>
</g>
<g>
</g>
<g>
</g>
<g>
</g>
<g>
</g>
<g>
</g>
<g>
</g>
<g>
</g>
</svg>
