<?xml version="1.0" encoding="iso-8859-1"?>
<!-- Generator: Adobe Illustrator 16.0.0, SVG Export Plug-In . SVG Version: 6.00 Build 0)  -->
<!DOCTYPE svg PUBLIC "-//W3C//DTD SVG 1.1//EN" "http://www.w3.org/Graphics/SVG/1.1/DTD/svg11.dtd">
<svg version="1.1" id="Capa_1" xmlns="http://www.w3.org/2000/svg" xmlns:xlink="http://www.w3.org/1999/xlink" x="0px" y="0px"
	 width="92.281px" height="92.281px" viewBox="0 0 92.281 92.281" style="enable-background:new 0 0 92.281 92.281;"
	 xml:space="preserve">
<g>
	<g id="Layer_1_23_">
		<g>
			<g>
				<g>
					<polygon points="37.308,50.689 51.23,50.689 53.475,41.62 39.552,41.62 					"/>
				</g>
			</g>
			<g>
				<g>
					<path d="M0,14.141v64h92.281v-64H0z M69.121,41.679h-9.916l-2.189,8.953h10.197l-1.5,5.932H55.505l-3.028,12.265h-5.818
						l3.029-12.265H35.882l-3.029,12.265h-5.818l3.03-12.265h-8.404l1.5-5.932h8.416l2.19-8.953h-8.698l1.5-5.933h8.709
						l3.059-12.292h5.818l-3.058,12.292H54.9l3.06-12.292h5.818l-3.06,12.292h9.901L69.121,41.679z"/>
				</g>
			</g>
		</g>
	</g>
</g>
<g>
</g>
<g>
</g>
<g>
</g>
<g>
</g>
<g>
</g>
<g>
</g>
<g>
</g>
<g>
</g>
<g>
</g>
<g>
</g>
<g>
</g>
<g>
</g>
<g>
</g>
<g>
</g>
<g>
</g>
</svg>
