<?xml version="1.0" encoding="iso-8859-1"?>
<!-- Generator: Adobe Illustrator 16.0.0, SVG Export Plug-In . SVG Version: 6.00 Build 0)  -->
<!DOCTYPE svg PUBLIC "-//W3C//DTD SVG 1.1//EN" "http://www.w3.org/Graphics/SVG/1.1/DTD/svg11.dtd">
<svg version="1.1" id="Capa_1" xmlns="http://www.w3.org/2000/svg" xmlns:xlink="http://www.w3.org/1999/xlink" x="0px" y="0px"
	 width="92.172px" height="92.172px" viewBox="0 0 92.172 92.172" style="enable-background:new 0 0 92.172 92.172;"
	 xml:space="preserve">
<g>
	<g>
		<path d="M10.68,0v69.518h70.812V0H10.68z M74.871,62.896H17.299V6.621h57.572V62.896z"/>
		<polygon points="45.918,92.172 54.52,74.166 37.651,74.138 		"/>
		<path d="M40.458,46.826l-1.098-0.902c-1.282-1.051-5.465-5.014-5.465-11.843c0-7.506,4.946-12.356,12.604-12.356
			c7.468,0,12.106,4.583,12.106,11.959c0,6.895-3.871,10.869-5.536,12.258l-1.076,0.9v4.609h12.399V45.44h-3.063
			c2.182-3.501,3.285-7.45,3.285-11.757c0-10.748-7.281-17.97-18.116-17.97c-10.957,0-18.61,7.553-18.61,18.367
			c0,3.985,1.132,7.974,3.207,11.36h-3.539v6.011h12.901L40.458,46.826L40.458,46.826z"/>
	</g>
</g>
<g>
</g>
<g>
</g>
<g>
</g>
<g>
</g>
<g>
</g>
<g>
</g>
<g>
</g>
<g>
</g>
<g>
</g>
<g>
</g>
<g>
</g>
<g>
</g>
<g>
</g>
<g>
</g>
<g>
</g>
</svg>
