<?xml version="1.0" encoding="iso-8859-1"?>
<!-- Generator: Adobe Illustrator 16.0.0, SVG Export Plug-In . SVG Version: 6.00 Build 0)  -->
<!DOCTYPE svg PUBLIC "-//W3C//DTD SVG 1.1//EN" "http://www.w3.org/Graphics/SVG/1.1/DTD/svg11.dtd">
<svg version="1.1" id="Capa_1" xmlns="http://www.w3.org/2000/svg" xmlns:xlink="http://www.w3.org/1999/xlink" x="0px" y="0px"
	 width="94.817px" height="94.817px" viewBox="0 0 94.817 94.817" style="enable-background:new 0 0 94.817 94.817;"
	 xml:space="preserve">
<g>
	<path d="M89.817,47.97c-3.738-4.625-8.471-7.16-14.518-8.867c0.119-1.611,0.186-3.291,0.186-5.059H64.822
		c0,1.121-0.035,2.188-0.091,3.221c-5.188-0.441-10.645-0.346-15.933,0.135c-0.071-1.48-0.129-2.992-0.172-4.549
		c13.438-0.91,25.599-3.855,37.031-8.963l-4.351-9.736c-10.102,4.514-20.887,7.152-32.828,8.02
		c-0.057-4.695-0.082-7.408,0.157-14.109L37.98,7.68c-0.252,7.039-0.219,9.986-0.16,14.799c-7.338-0.08-15.36-0.719-24.38-1.957
		l-1.45,10.564c9.569,1.313,18.117,1.986,25.979,2.059c0.053,1.973,0.129,3.885,0.227,5.744C22.301,41.944,5.508,48.9,1.39,60.369
		c-3.678,10.338,0.774,16.039,3.757,18.519c3.912,3.25,9.513,4.653,15.762,4.653c7.86,0,16.744-2.227,24.581-5.793
		c0.264,0.648,0.53,1.306,0.797,1.953c0.666,1.627,1.294,3.162,1.641,4.129l10.037-3.6c-0.426-1.189-1.098-2.83-1.809-4.568
		c-0.396-0.967-0.83-2.026-1.234-3.043c6.824-4.149,14.879-10.28,18.553-22.992c10.747,2,10.933,12.382,9.775,15.746
		c-1.642,4.775-7.525,9.201-15.355,11.552l3.064,10.213c11.398-3.42,19.654-10.078,22.475-18.289
		C95.038,64.18,96.591,56.35,89.817,47.97z M11.962,70.684c-0.617-0.512-2.346-2.857-0.529-6.725
		c2.583-5.5,13.294-11.445,27.631-14.371c0.705,6.289,1.739,12.225,3.129,17.939C29.833,73.511,16.318,74.304,11.962,70.684z
		 M51.847,61.925c-0.959-4.44-1.695-9.054-2.228-13.897c4.723-0.439,9.209-0.507,13.247-0.23
		C60.521,54.82,56.337,58.865,51.847,61.925z"/>
</g>
<g>
</g>
<g>
</g>
<g>
</g>
<g>
</g>
<g>
</g>
<g>
</g>
<g>
</g>
<g>
</g>
<g>
</g>
<g>
</g>
<g>
</g>
<g>
</g>
<g>
</g>
<g>
</g>
<g>
</g>
</svg>
