<?xml version="1.0" encoding="iso-8859-1"?>
<!-- Generator: Adobe Illustrator 16.0.0, SVG Export Plug-In . SVG Version: 6.00 Build 0)  -->
<!DOCTYPE svg PUBLIC "-//W3C//DTD SVG 1.1//EN" "http://www.w3.org/Graphics/SVG/1.1/DTD/svg11.dtd">
<svg version="1.1" id="Capa_1" xmlns="http://www.w3.org/2000/svg" xmlns:xlink="http://www.w3.org/1999/xlink" x="0px" y="0px"
	 width="91.607px" height="91.607px" viewBox="0 0 91.607 91.607" style="enable-background:new 0 0 91.607 91.607;"
	 xml:space="preserve">
<g>
	<g>
		<path d="M29.714,37.981c-3.402,0-5.384,3.236-5.384,7.563c0,4.36,2.047,7.433,5.416,7.433c3.402,0,5.352-3.236,5.352-7.563
			C35.099,41.416,33.182,37.981,29.714,37.981z"/>
		<path d="M59.247,0H12.392v91.607h66.824V27.17L55.477,10.778L59.247,0z M29.482,56.973c-6.605,0-10.47-4.988-10.47-11.33
			c0-6.671,4.261-11.66,10.833-11.66c6.837,0,10.569,5.12,10.569,11.263C40.415,52.546,35.988,56.973,29.482,56.973z M60.886,34.348
			h13.607v4.129h-8.554v5.086h7.993v4.095h-7.993v8.951h-5.054V34.348z M58.214,34.348v4.228h-6.078v18.033h-5.052V38.576h-5.979
			v-4.228H58.214z"/>
		<polygon points="63.937,0 60.884,8.732 79.216,21.391 		"/>
	</g>
</g>
<g>
</g>
<g>
</g>
<g>
</g>
<g>
</g>
<g>
</g>
<g>
</g>
<g>
</g>
<g>
</g>
<g>
</g>
<g>
</g>
<g>
</g>
<g>
</g>
<g>
</g>
<g>
</g>
<g>
</g>
</svg>
