<?xml version="1.0" encoding="iso-8859-1"?>
<!-- Generator: Adobe Illustrator 16.0.0, SVG Export Plug-In . SVG Version: 6.00 Build 0)  -->
<!DOCTYPE svg PUBLIC "-//W3C//DTD SVG 1.1//EN" "http://www.w3.org/Graphics/SVG/1.1/DTD/svg11.dtd">
<svg version="1.1" id="Capa_1" xmlns="http://www.w3.org/2000/svg" xmlns:xlink="http://www.w3.org/1999/xlink" x="0px" y="0px"
	 width="94.902px" height="94.903px" viewBox="0 0 94.902 94.903" style="enable-background:new 0 0 94.902 94.903;"
	 xml:space="preserve">
<g>
	<path d="M47.451,6.049C20.844,6.049,0,20.651,0,39.291c0,12.35,9.157,22.924,23.076,28.655l2.517,20.907l13.618-16.812
		c2.672,0.313,5.421,0.488,8.24,0.488c26.607,0,47.451-14.601,47.451-33.239C94.902,20.65,74.059,6.049,47.451,6.049z
		 M47.451,61.909c-19.964,0-36.83-10.357-36.83-22.618c0-12.264,16.866-22.621,36.83-22.621s36.83,10.357,36.83,22.621
		C84.281,51.551,67.415,61.909,47.451,61.909z"/>
</g>
<g>
</g>
<g>
</g>
<g>
</g>
<g>
</g>
<g>
</g>
<g>
</g>
<g>
</g>
<g>
</g>
<g>
</g>
<g>
</g>
<g>
</g>
<g>
</g>
<g>
</g>
<g>
</g>
<g>
</g>
</svg>
