<?xml version="1.0" encoding="iso-8859-1"?>
<!-- Generator: Adobe Illustrator 16.0.0, SVG Export Plug-In . SVG Version: 6.00 Build 0)  -->
<!DOCTYPE svg PUBLIC "-//W3C//DTD SVG 1.1//EN" "http://www.w3.org/Graphics/SVG/1.1/DTD/svg11.dtd">
<svg version="1.1" id="Capa_1" xmlns="http://www.w3.org/2000/svg" xmlns:xlink="http://www.w3.org/1999/xlink" x="0px" y="0px"
	 width="93.334px" height="93.334px" viewBox="0 0 93.334 93.334" style="enable-background:new 0 0 93.334 93.334;"
	 xml:space="preserve">
<g>
	<path d="M64.843,46.643l2.061,2.062L51.871,63.729l-2.062-2.062L64.843,46.643z M83.296,0v93.334H10.038V0H83.296z M69.696,47.611
		L48.599,26.519c-0.529-0.53-1.404-0.516-1.951,0.032L35.013,38.186c-0.035-0.015-0.103-0.044-0.23-0.099
		c-0.086-0.038-0.194-0.087-0.32-0.142c-0.128-0.055-0.331-0.123-0.531-0.187c-0.21-0.071-0.436-0.134-0.678-0.194
		c-0.24-0.067-0.509-0.129-0.804-0.172c-0.586-0.097-1.277-0.17-2.062-0.116c-0.781,0.055-1.663,0.217-2.563,0.594
		c-0.892,0.383-1.795,0.98-2.534,1.792l-0.139,0.151l-0.068,0.077l-0.035,0.039l-0.071,0.092l-0.086,0.112l-0.047,0.063
		l-0.078,0.114c-0.224,0.334-0.341,0.549-0.475,0.82c-0.256,0.517-0.437,1.029-0.575,1.527c-0.27,0.998-0.397,1.949-0.446,2.871
		c-0.044,0.919-0.027,1.81,0.025,2.667c0.055,0.859,0.129,1.689,0.245,2.479c0.228,1.583,0.586,3.011,0.974,4.205
		c0.389,1.194,0.804,2.157,1.125,2.823c0.165,0.331,0.299,0.591,0.401,0.767c0.105,0.181,0.16,0.278,0.16,0.278
		c0.271,0.466,0.769,0.797,1.346,0.831c0.917,0.053,1.703-0.647,1.756-1.563l0.013-0.214c0,0,0.005-0.087-0.003-0.272
		c-0.001-0.188-0.017-0.459-0.036-0.807c-0.045-0.691-0.128-1.674-0.255-2.83c-0.127-1.158-0.306-2.492-0.485-3.896
		c-0.188-1.396-0.337-2.886-0.292-4.259c0.02-0.681,0.07-1.336,0.19-1.87c0.059-0.268,0.131-0.501,0.207-0.684
		c0.03-0.081,0.098-0.202,0.083-0.19l-0.001-0.008l0.036-0.054l0.08-0.117l0.01-0.015c0.014-0.021,0.025-0.034,0.005-0.008
		L28.85,42.8c-0.018,0.025-0.043,0.058-0.038,0.05l0.011-0.016l0.023-0.031l0.044-0.063c0.231-0.345,0.535-0.614,0.885-0.827
		c0.344-0.222,0.743-0.385,1.155-0.485c0.337-0.088,0.677-0.137,1.004-0.161l-2.505,2.506c-0.548,0.548-0.563,1.422-0.033,1.95
		l21.096,21.094c0.528,0.529,1.403,0.517,1.95-0.031l17.222-17.223C70.211,49.016,70.228,48.143,69.696,47.611z"/>
</g>
<g>
</g>
<g>
</g>
<g>
</g>
<g>
</g>
<g>
</g>
<g>
</g>
<g>
</g>
<g>
</g>
<g>
</g>
<g>
</g>
<g>
</g>
<g>
</g>
<g>
</g>
<g>
</g>
<g>
</g>
</svg>
