<?xml version="1.0" encoding="iso-8859-1"?>
<!-- Generator: Adobe Illustrator 16.0.0, SVG Export Plug-In . SVG Version: 6.00 Build 0)  -->
<!DOCTYPE svg PUBLIC "-//W3C//DTD SVG 1.1//EN" "http://www.w3.org/Graphics/SVG/1.1/DTD/svg11.dtd">
<svg version="1.1" id="Capa_1" xmlns="http://www.w3.org/2000/svg" xmlns:xlink="http://www.w3.org/1999/xlink" x="0px" y="0px"
	 width="92.5px" height="92.5px" viewBox="0 0 92.5 92.5" style="enable-background:new 0 0 92.5 92.5;" xml:space="preserve">
<g>
	<g>
		<path d="M78.491,68.543c-1.095-1.827-2.732-3.105-4.575-3.827l-12.484-5.653l-5.113-4.634l-10.142,9.258l-9.913-9.34l-5.785,4.879
			l-12.044,5.542c-1.778,0.731-3.361,1.996-4.427,3.775L0,91.969h92.5L78.491,68.543z M46.117,90.802l-5.25-17.719l5.25-5.25
			l5.25,5.25L46.117,90.802z"/>
		<path d="M22.954,24.631c0,0,0.005,0.04,0.014,0.1c0.044,0.416,0.106,0.797,0.179,1.157c0.538,3.259,2.227,11.849,5.27,13.362
			c-0.91-2.754-1.311-6.062,0.098-9.427c8.116-1.625,22.02-17.307,21.069-16.24c0,0,7.514,10.703,13.307,14.455
			c2.461,3.967,2.094,7.972,1.022,11.212c2.896-1.439,4.563-9.283,5.183-12.849c0.254-1.009,0.393-2.301,0.391-3.936
			C69.461,8.425,60.385,0.209,45.289,0.541c-14.54,0.337-22.564,8.378-22.416,22.477c0.006,0.581,0.038,1.115,0.087,1.615
			L22.954,24.631z"/>
	</g>
</g>
<g>
</g>
<g>
</g>
<g>
</g>
<g>
</g>
<g>
</g>
<g>
</g>
<g>
</g>
<g>
</g>
<g>
</g>
<g>
</g>
<g>
</g>
<g>
</g>
<g>
</g>
<g>
</g>
<g>
</g>
</svg>
