<?xml version="1.0" encoding="iso-8859-1"?>
<!-- Generator: Adobe Illustrator 16.0.0, SVG Export Plug-In . SVG Version: 6.00 Build 0)  -->
<!DOCTYPE svg PUBLIC "-//W3C//DTD SVG 1.1//EN" "http://www.w3.org/Graphics/SVG/1.1/DTD/svg11.dtd">
<svg version="1.1" id="Capa_1" xmlns="http://www.w3.org/2000/svg" xmlns:xlink="http://www.w3.org/1999/xlink" x="0px" y="0px"
	 width="92.332px" height="92.332px" viewBox="0 0 92.332 92.332" style="enable-background:new 0 0 92.332 92.332;"
	 xml:space="preserve">
<g>
	<g>
		<path d="M10.405,0v92.332h71.521V0H10.405z M73.134,83.537H19.199V8.794h53.935V83.537z"/>
		<path d="M26.701,22.805v8.344h13.291c2.862-4.09,5.427-7.326,6.245-8.344H26.701z"/>
		<path d="M66.331,31.148v-8.344H46.794c0.818,1.018,3.383,4.254,6.246,8.344H66.331z"/>
		<path d="M66.331,48.46v-8.343h-7.578c1.654,2.938,3.017,5.838,3.718,8.343H66.331z"/>
		<path d="M26.701,40.117v8.343h3.859c0.701-2.505,2.064-5.404,3.717-8.343H26.701z"/>
		<path d="M31.438,58.264h-4.737v8.344h12.949C35.993,64.925,33.059,61.954,31.438,58.264z"/>
		<path d="M53.382,66.607h12.949v-8.344h-4.738C59.973,61.954,57.038,64.925,53.382,66.607z"/>
		<path d="M53.04,31.148H39.991c-1.924,2.749-3.974,5.877-5.714,8.969h24.477C57.014,37.025,54.964,33.897,53.04,31.148z"/>
		<path d="M62.983,51.652c0-0.953-0.189-2.033-0.513-3.192H30.56c-0.323,1.159-0.513,2.239-0.513,3.192
			c0,2.354,0.502,4.586,1.391,6.611h30.155C62.481,56.238,62.983,54.006,62.983,51.652z"/>
		<path d="M46.516,68.121c2.454,0,4.774-0.553,6.866-1.514H39.648C41.742,67.568,44.062,68.121,46.516,68.121z"/>
	</g>
</g>
<g>
</g>
<g>
</g>
<g>
</g>
<g>
</g>
<g>
</g>
<g>
</g>
<g>
</g>
<g>
</g>
<g>
</g>
<g>
</g>
<g>
</g>
<g>
</g>
<g>
</g>
<g>
</g>
<g>
</g>
</svg>
