<?xml version="1.0" encoding="iso-8859-1"?>
<!-- Generator: Adobe Illustrator 16.0.0, SVG Export Plug-In . SVG Version: 6.00 Build 0)  -->
<!DOCTYPE svg PUBLIC "-//W3C//DTD SVG 1.1//EN" "http://www.w3.org/Graphics/SVG/1.1/DTD/svg11.dtd">
<svg version="1.1" id="Capa_1" xmlns="http://www.w3.org/2000/svg" xmlns:xlink="http://www.w3.org/1999/xlink" x="0px" y="0px"
	 width="94.431px" height="94.431px" viewBox="0 0 94.431 94.431" style="enable-background:new 0 0 94.431 94.431;"
	 xml:space="preserve">
<g>
	<g id="Layer_1_20_">
		<g>
			<g>
				<path d="M84.359,43.011h9.939V2.89c0-1.597-1.294-2.89-2.891-2.89H3.021c-1.596,0-2.89,1.293-2.89,2.89v40.121h11.702
					c2.222-8.306,10.872-14.502,21.214-14.502v7.728H44.68v6.333H33.047v9.292H44.68v6.334H33.047v7.727
					c-10.342,0-18.992-6.196-21.214-14.502H0.131v40.121c0,1.596,1.294,2.89,2.89,2.89H91.41c1.596,0,2.89-1.294,2.89-2.89V51.419
					h-9.94c-2.223,8.306-10.873,14.502-21.215,14.502V28.509C73.486,28.509,82.137,34.705,84.359,43.011z"/>
			</g>
		</g>
	</g>
</g>
<g>
</g>
<g>
</g>
<g>
</g>
<g>
</g>
<g>
</g>
<g>
</g>
<g>
</g>
<g>
</g>
<g>
</g>
<g>
</g>
<g>
</g>
<g>
</g>
<g>
</g>
<g>
</g>
<g>
</g>
</svg>
