<?xml version="1.0" encoding="iso-8859-1"?>
<!-- Generator: Adobe Illustrator 16.0.0, SVG Export Plug-In . SVG Version: 6.00 Build 0)  -->
<!DOCTYPE svg PUBLIC "-//W3C//DTD SVG 1.1//EN" "http://www.w3.org/Graphics/SVG/1.1/DTD/svg11.dtd">
<svg version="1.1" id="Capa_1" xmlns="http://www.w3.org/2000/svg" xmlns:xlink="http://www.w3.org/1999/xlink" x="0px" y="0px"
	 width="94.432px" height="94.432px" viewBox="0 0 94.432 94.432" style="enable-background:new 0 0 94.432 94.432;"
	 xml:space="preserve">
<g>
	<g id="Layer_1_11_">
		<g>
			<g>
				<g>
					<path d="M50.515,65.922V28.51c10.343,0,18.992,6.196,21.216,14.502h22.7V2.891c0-1.597-1.293-2.89-2.889-2.89H2.89
						C1.294,0.001,0,1.294,0,2.891v40.121h22.702c2.222-8.306,10.873-14.502,21.214-14.502v37.412
						c-10.342,0-18.993-6.196-21.214-14.502H0.001v40.121c0,1.596,1.294,2.89,2.89,2.89h88.652c1.596,0,2.889-1.294,2.889-2.89
						V51.42H71.73C69.507,59.726,60.857,65.922,50.515,65.922z"/>
				</g>
			</g>
		</g>
	</g>
</g>
<g>
</g>
<g>
</g>
<g>
</g>
<g>
</g>
<g>
</g>
<g>
</g>
<g>
</g>
<g>
</g>
<g>
</g>
<g>
</g>
<g>
</g>
<g>
</g>
<g>
</g>
<g>
</g>
<g>
</g>
</svg>
