<?xml version="1.0" encoding="iso-8859-1"?>
<!-- Generator: Adobe Illustrator 16.0.0, SVG Export Plug-In . SVG Version: 6.00 Build 0)  -->
<!DOCTYPE svg PUBLIC "-//W3C//DTD SVG 1.1//EN" "http://www.w3.org/Graphics/SVG/1.1/DTD/svg11.dtd">
<svg version="1.1" id="Capa_1" xmlns="http://www.w3.org/2000/svg" xmlns:xlink="http://www.w3.org/1999/xlink" x="0px" y="0px"
	 width="93.666px" height="93.666px" viewBox="0 0 93.666 93.666" style="enable-background:new 0 0 93.666 93.666;"
	 xml:space="preserve">
<g>
	<g>
		<polygon points="62.443,0 0,0 0,62.445 21.754,62.445 21.754,21.754 62.443,21.754 		"/>
		<path d="M31.222,31.223v62.443h62.444V31.223H31.222z M62.4,38.102v-0.006c0.011,0.002,0.02,0.002,0.029,0.004v-0.004
			c0.004,0.002,0.01,0.002,0.014,0.002c0.006,0,0.011,0,0.016-0.002V38.1c0.01-0.002,0.018-0.002,0.027-0.004v0.006
			c6.779,0.178,10.941,4.016,10.873,10.727c-0.104,9.676-4.18,15.545-10.883,15.44v0.002c-0.006,0-0.013-0.002-0.018-0.002
			c-0.003,0-0.007,0.002-0.01,0.002c-0.001,0-0.004,0-0.004,0c-0.002,0-0.004,0-0.004,0c-0.004,0-0.008-0.002-0.01-0.002
			c-0.006,0-0.012,0.002-0.018,0.002V64.27c-6.704,0.104-10.78-5.766-10.885-15.44C51.459,42.117,55.622,38.279,62.4,38.102z
			 M64.945,86.729l-2.502-15.623l-2.5,15.623l-21.895,0.017c0.006-0.772,0.212-1.545,0.622-2.234l8.392-14.028
			c0.508-0.851,1.264-1.453,2.115-1.803l5.75-2.646l2.762-2.33l4.762,4.721l4.748-4.721l2.763,2.33l5.75,2.646
			c0.851,0.35,1.606,0.952,2.114,1.803l8.392,14.028c0.411,0.689,0.617,1.462,0.622,2.234L64.945,86.729z"/>
	</g>
</g>
<g>
</g>
<g>
</g>
<g>
</g>
<g>
</g>
<g>
</g>
<g>
</g>
<g>
</g>
<g>
</g>
<g>
</g>
<g>
</g>
<g>
</g>
<g>
</g>
<g>
</g>
<g>
</g>
<g>
</g>
</svg>
