<?xml version="1.0" encoding="iso-8859-1"?>
<!-- Generator: Adobe Illustrator 16.0.0, SVG Export Plug-In . SVG Version: 6.00 Build 0)  -->
<!DOCTYPE svg PUBLIC "-//W3C//DTD SVG 1.1//EN" "http://www.w3.org/Graphics/SVG/1.1/DTD/svg11.dtd">
<svg version="1.1" id="Capa_1" xmlns="http://www.w3.org/2000/svg" xmlns:xlink="http://www.w3.org/1999/xlink" x="0px" y="0px"
	 width="91.458px" height="91.458px" viewBox="0 0 91.458 91.458" style="enable-background:new 0 0 91.458 91.458;"
	 xml:space="preserve">
<g>
	<g>
		<path d="M46.034,38.002c-1.023,0-1.714,0.099-2.078,0.198v6.562c0.429,0.099,0.956,0.132,1.682,0.132
			c2.67,0,4.32-1.352,4.32-3.627C49.958,39.221,48.541,38.002,46.034,38.002z"/>
		<path d="M26.879,38.002c-1.023,0-1.714,0.099-2.078,0.198v6.562c0.429,0.099,0.956,0.132,1.682,0.132
			c2.671,0,4.32-1.352,4.32-3.627C30.803,39.221,29.385,38.002,26.879,38.002z"/>
		<path d="M59.149,0H12.371v91.458h66.717V27.126L55.386,10.761L59.149,0z M56.451,34.375h17.081v4.221h-6.067V56.6h-5.045V38.595
			h-5.968L56.451,34.375L56.451,34.375z M33.737,46.41c-1.714,1.615-4.252,2.342-7.22,2.342c-0.661,0-1.253-0.034-1.716-0.1V56.6
			h-4.979V34.672c1.55-0.265,3.726-0.463,6.792-0.463c3.1,0,5.309,0.594,6.794,1.782c1.417,1.121,2.374,2.967,2.374,5.144
			C35.782,43.311,35.056,45.156,33.737,46.41z M52.892,46.41c-1.715,1.615-4.254,2.342-7.22,2.342c-0.661,0-1.253-0.034-1.716-0.1
			V56.6h-4.979V34.672c1.55-0.265,3.726-0.463,6.793-0.463c3.099,0,5.308,0.594,6.792,1.782c1.418,1.121,2.373,2.967,2.373,5.144
			C54.937,43.311,54.212,45.156,52.892,46.41z"/>
		<polygon points="63.831,0.097 60.783,8.816 79.087,21.454 		"/>
	</g>
</g>
<g>
</g>
<g>
</g>
<g>
</g>
<g>
</g>
<g>
</g>
<g>
</g>
<g>
</g>
<g>
</g>
<g>
</g>
<g>
</g>
<g>
</g>
<g>
</g>
<g>
</g>
<g>
</g>
<g>
</g>
</svg>
