<?xml version="1.0" encoding="iso-8859-1"?>
<!-- Generator: Adobe Illustrator 16.0.0, SVG Export Plug-In . SVG Version: 6.00 Build 0)  -->
<!DOCTYPE svg PUBLIC "-//W3C//DTD SVG 1.1//EN" "http://www.w3.org/Graphics/SVG/1.1/DTD/svg11.dtd">
<svg version="1.1" id="Capa_1" xmlns="http://www.w3.org/2000/svg" xmlns:xlink="http://www.w3.org/1999/xlink" x="0px" y="0px"
	 width="93.757px" height="93.757px" viewBox="0 0 93.757 93.757" style="enable-background:new 0 0 93.757 93.757;"
	 xml:space="preserve">
<g>
	<g>
		<polygon points="60.109,0 57.003,8.872 75.636,21.738 		"/>
		<path d="M73.705,53.061V28.27L49.578,11.611L53.41,0.662H5.792v93.095h67.912v-1.304c8.27-2.733,14.26-10.522,14.26-19.696
			S81.974,55.794,73.705,53.061z M67.214,87.006c-7.857,0-14.25-6.393-14.25-14.25s6.393-14.25,14.25-14.25s14.25,6.393,14.25,14.25
			S75.072,87.006,67.214,87.006z"/>
		<path d="M67.408,61.318c-2.463,0-4.543,0.693-5.791,1.422l1.18,3.779c0.902-0.625,2.288-1.041,3.434-1.041
			c1.732,0.069,2.53,0.866,2.53,2.08c0,1.18-0.901,2.288-2.012,3.605c-1.56,1.873-2.149,3.675-2.045,5.443l0.034,0.901h4.611v-0.624
			c-0.035-1.56,0.484-2.913,1.768-4.334c1.318-1.456,2.947-3.189,2.947-5.824C74.066,63.85,71.984,61.318,67.408,61.318z"/>
		<path d="M66.922,79.141c-1.803,0-3.086,1.316-3.086,3.154c0,1.803,1.248,3.155,3.086,3.155c1.872,0,3.12-1.354,3.12-3.155
			C70.008,80.458,68.794,79.141,66.922,79.141z"/>
	</g>
</g>
<g>
</g>
<g>
</g>
<g>
</g>
<g>
</g>
<g>
</g>
<g>
</g>
<g>
</g>
<g>
</g>
<g>
</g>
<g>
</g>
<g>
</g>
<g>
</g>
<g>
</g>
<g>
</g>
<g>
</g>
</svg>
