<?xml version="1.0" encoding="iso-8859-1"?>
<!-- Generator: Adobe Illustrator 16.0.0, SVG Export Plug-In . SVG Version: 6.00 Build 0)  -->
<!DOCTYPE svg PUBLIC "-//W3C//DTD SVG 1.1//EN" "http://www.w3.org/Graphics/SVG/1.1/DTD/svg11.dtd">
<svg version="1.1" id="Capa_1" xmlns="http://www.w3.org/2000/svg" xmlns:xlink="http://www.w3.org/1999/xlink" x="0px" y="0px"
	 width="93.062px" height="93.062px" viewBox="0 0 93.062 93.062" style="enable-background:new 0 0 93.062 93.062;"
	 xml:space="preserve">
<g>
	<path d="M88.046,0H5.015C4.1,0,3.29,0.414,2.729,1.052v0.001c-0.47,0.535-0.767,1.23-0.767,2.001V90.01
		c0,1.684,1.369,3.052,3.053,3.052h83.031c1.686,0,3.054-1.369,3.054-3.052V3.055C91.1,1.371,89.731,0,88.046,0z M29.79,85.887
		H9.087V74.485h20.704L29.79,85.887L29.79,85.887z M29.79,67.311H9.087V55.86h20.704L29.79,67.311L29.79,67.311z M84.022,48.838
		H9.087V36.803h74.936V48.838L84.022,48.838z M29.79,29.782H9.087V18.466h20.704L29.79,29.782L29.79,29.782z M56.845,85.887H36.811
		V74.485h20.034V85.887z M56.845,67.311H36.811V55.86h20.034V67.311z M56.845,29.782H36.811V18.466h20.034V29.782z M84.2,85.887
		H63.866V74.485H84.2V85.887z M84.2,67.311H63.866V55.86H84.2V67.311z M84.2,29.782H63.866V18.466H84.2V29.782z"/>
</g>
<g>
</g>
<g>
</g>
<g>
</g>
<g>
</g>
<g>
</g>
<g>
</g>
<g>
</g>
<g>
</g>
<g>
</g>
<g>
</g>
<g>
</g>
<g>
</g>
<g>
</g>
<g>
</g>
<g>
</g>
</svg>
