<?xml version="1.0" encoding="iso-8859-1"?>
<!-- Generator: Adobe Illustrator 16.0.0, SVG Export Plug-In . SVG Version: 6.00 Build 0)  -->
<!DOCTYPE svg PUBLIC "-//W3C//DTD SVG 1.1//EN" "http://www.w3.org/Graphics/SVG/1.1/DTD/svg11.dtd">
<svg version="1.1" id="Capa_1" xmlns="http://www.w3.org/2000/svg" xmlns:xlink="http://www.w3.org/1999/xlink" x="0px" y="0px"
	 width="91px" height="91px" viewBox="0 0 91 91" style="enable-background:new 0 0 91 91;" xml:space="preserve">
<g>
	<g>
		<path d="M29.208,16.917c1.379,0,2.5-1.122,2.5-2.5V11.75c0-1.378-1.121-2.5-2.5-2.5H16.219v7.667H29.208z"/>
		<path d="M16.219,0v4.25h12.989c4.136,0,7.5,3.364,7.5,7.5v2.667c0,4.136-3.364,7.5-7.5,7.5H16.219V91h68.406V0H16.219z"/>
		<path d="M13.875,16.917c-1.378,0-2.5-1.122-2.5-2.5V11.75c0-1.378,1.122-2.5,2.5-2.5h2.344v-5h-2.344c-4.136,0-7.5,3.364-7.5,7.5
			v2.667c0,4.136,3.364,7.5,7.5,7.5h2.344v-5H13.875z"/>
	</g>
</g>
<g>
</g>
<g>
</g>
<g>
</g>
<g>
</g>
<g>
</g>
<g>
</g>
<g>
</g>
<g>
</g>
<g>
</g>
<g>
</g>
<g>
</g>
<g>
</g>
<g>
</g>
<g>
</g>
<g>
</g>
</svg>
