<?xml version="1.0" encoding="iso-8859-1"?>
<!-- Generator: Adobe Illustrator 16.0.0, SVG Export Plug-In . SVG Version: 6.00 Build 0)  -->
<!DOCTYPE svg PUBLIC "-//W3C//DTD SVG 1.1//EN" "http://www.w3.org/Graphics/SVG/1.1/DTD/svg11.dtd">
<svg version="1.1" id="Capa_1" xmlns="http://www.w3.org/2000/svg" xmlns:xlink="http://www.w3.org/1999/xlink" x="0px" y="0px"
	 width="92.334px" height="92.334px" viewBox="0 0 92.334 92.334" style="enable-background:new 0 0 92.334 92.334;"
	 xml:space="preserve">
<g>
	<g>
		<path d="M9.931,0v92.334h72.473V0H9.931z M75.637,85.566h-58.94V6.767h58.94V85.566z"/>
		<path d="M69.116,42.61V28.377h-5.393V17.849H23.217v56.637h40.507V63.898h5.392V49.665h-5.392V42.61H69.116z M26.396,21.499
			h34.146v6.878H26.396V21.499z M26.396,42.796h34.146v6.869H26.396V42.796z M60.544,70.835H26.396V63.9h34.146v6.935H60.544z
			 M65.937,53.415v6.834h-39.54V53.38L65.937,53.415z M26.396,38.96v-6.877l39.54-0.006v6.883H26.396z"/>
	</g>
</g>
<g>
</g>
<g>
</g>
<g>
</g>
<g>
</g>
<g>
</g>
<g>
</g>
<g>
</g>
<g>
</g>
<g>
</g>
<g>
</g>
<g>
</g>
<g>
</g>
<g>
</g>
<g>
</g>
<g>
</g>
</svg>
