<?xml version="1.0" encoding="iso-8859-1"?>
<!-- Generator: Adobe Illustrator 16.0.0, SVG Export Plug-In . SVG Version: 6.00 Build 0)  -->
<!DOCTYPE svg PUBLIC "-//W3C//DTD SVG 1.1//EN" "http://www.w3.org/Graphics/SVG/1.1/DTD/svg11.dtd">
<svg version="1.1" id="Capa_1" xmlns="http://www.w3.org/2000/svg" xmlns:xlink="http://www.w3.org/1999/xlink" x="0px" y="0px"
	 width="91.488px" height="91.487px" viewBox="0 0 91.488 91.487" style="enable-background:new 0 0 91.488 91.487;"
	 xml:space="preserve">
<g>
	<g>
		<rect x="15.22" y="27.159" width="31.024" height="7.751"/>
		<path d="M89.427,79.458L57.425,47.453c7.617-12.207,5.889-28.083-4.392-38.366C47.175,3.228,39.373,0,31.062,0
			C22.752,0,14.951,3.228,9.09,9.087c-5.86,5.858-9.088,13.662-9.088,21.973c0,8.308,3.228,16.111,9.088,21.97
			c5.847,5.849,13.636,9.069,21.931,9.069c5.867,0,11.514-1.613,16.437-4.681L79.46,89.424c1.332,1.332,3.102,2.063,4.982,2.063
			c1.88,0,3.648-0.731,4.982-2.063C92.173,86.672,92.171,82.203,89.427,79.458z M30.862,51.112
			c-11.186,0-20.286-9.102-20.286-20.283c0-11.186,9.101-20.287,20.286-20.287s20.284,9.102,20.284,20.287
			C51.146,42.011,42.047,51.112,30.862,51.112z"/>
	</g>
</g>
<g>
</g>
<g>
</g>
<g>
</g>
<g>
</g>
<g>
</g>
<g>
</g>
<g>
</g>
<g>
</g>
<g>
</g>
<g>
</g>
<g>
</g>
<g>
</g>
<g>
</g>
<g>
</g>
<g>
</g>
</svg>
