<?xml version="1.0" encoding="iso-8859-1"?>
<!-- Generator: Adobe Illustrator 16.0.0, SVG Export Plug-In . SVG Version: 6.00 Build 0)  -->
<!DOCTYPE svg PUBLIC "-//W3C//DTD SVG 1.1//EN" "http://www.w3.org/Graphics/SVG/1.1/DTD/svg11.dtd">
<svg version="1.1" id="Capa_1" xmlns="http://www.w3.org/2000/svg" xmlns:xlink="http://www.w3.org/1999/xlink" x="0px" y="0px"
	 width="93.333px" height="93.333px" viewBox="0 0 93.333 93.333" style="enable-background:new 0 0 93.333 93.333;"
	 xml:space="preserve">
<g>
	<path d="M64.499,21.167c-4.867,0-9.444,1.23-13.467,3.372l-2.095-3.796c2.397-0.916,4.104-3.231,4.104-5.951
		c0-3.521-2.854-6.375-6.375-6.375c-3.521,0-6.375,2.854-6.375,6.375c0,2.72,1.706,5.035,4.104,5.951L42.3,24.539
		c-4.024-2.142-8.601-3.372-13.467-3.372C12.935,21.167,0,34.102,0,50c0,12.194,7.613,22.638,18.333,26.845v8.072H75v-8.072
		C85.721,72.637,93.333,62.194,93.333,50C93.333,34.102,80.398,21.167,64.499,21.167z M28.833,71.833C16.794,71.833,7,62.039,7,50
		c0-12.038,9.794-21.833,21.833-21.833c5.484,0,10.498,2.037,14.337,5.388C39.916,38.224,38,43.891,38,50
		C38.708,69.5,34.316,71.833,28.833,71.833z M46.666,56.442l-4.865-8.817l4.865-8.817l4.865,8.818L46.666,56.442z M64.499,71.833
		c-5.483,0-9.875-2.333-9.167-21.833c0-6.109-1.916-11.776-5.17-16.445c3.839-3.351,8.854-5.388,14.337-5.388
		c12.039,0,21.833,9.795,21.833,21.833C86.333,62.039,76.538,71.833,64.499,71.833z"/>
</g>
<g>
</g>
<g>
</g>
<g>
</g>
<g>
</g>
<g>
</g>
<g>
</g>
<g>
</g>
<g>
</g>
<g>
</g>
<g>
</g>
<g>
</g>
<g>
</g>
<g>
</g>
<g>
</g>
<g>
</g>
</svg>
