<?xml version="1.0" encoding="iso-8859-1"?>
<!-- Generator: Adobe Illustrator 16.0.0, SVG Export Plug-In . SVG Version: 6.00 Build 0)  -->
<!DOCTYPE svg PUBLIC "-//W3C//DTD SVG 1.1//EN" "http://www.w3.org/Graphics/SVG/1.1/DTD/svg11.dtd">
<svg version="1.1" id="Capa_1" xmlns="http://www.w3.org/2000/svg" xmlns:xlink="http://www.w3.org/1999/xlink" x="0px" y="0px"
	 width="90.923px" height="90.924px" viewBox="0 0 90.923 90.924" style="enable-background:new 0 0 90.923 90.924;"
	 xml:space="preserve">
<g>
	<g>
		<path d="M28.197,37.815c-1.211,0-1.897,0.098-2.259,0.163v6.086h1.965c2.487,0,3.958-1.244,3.958-3.174
			C31.861,38.862,30.488,37.847,28.197,37.815z"/>
		<path d="M58.779,0.171H12.361v90.753h66.202V27.088L55.044,10.849L58.779,0.171z M32.549,56.334
			c-0.36-0.621-0.884-2.422-1.538-5.137c-0.589-2.748-1.538-3.5-3.566-3.534h-1.506v8.671h-4.94V34.575
			c1.603-0.263,3.992-0.459,6.643-0.459c3.271,0,5.562,0.491,7.133,1.734c1.309,1.047,2.028,2.585,2.028,4.614
			c0,2.812-1.996,4.744-3.894,5.432v0.098c1.538,0.621,2.389,2.094,2.944,4.122c0.688,2.487,1.375,5.366,1.8,6.217L32.549,56.334
			L32.549,56.334z M58.326,34.281h13.482v4.09h-8.475v5.039h7.918v4.057h-7.918v8.868h-5.008V34.281z M55.677,34.281v4.188h-6.021
			v17.865h-5.006V38.469h-5.923v-4.188H55.677z"/>
		<polygon points="63.425,0 60.401,8.652 78.563,21.192 		"/>
	</g>
</g>
<g>
</g>
<g>
</g>
<g>
</g>
<g>
</g>
<g>
</g>
<g>
</g>
<g>
</g>
<g>
</g>
<g>
</g>
<g>
</g>
<g>
</g>
<g>
</g>
<g>
</g>
<g>
</g>
<g>
</g>
</svg>
