<?xml version="1.0" encoding="iso-8859-1"?>
<!-- Generator: Adobe Illustrator 16.0.0, SVG Export Plug-In . SVG Version: 6.00 Build 0)  -->
<!DOCTYPE svg PUBLIC "-//W3C//DTD SVG 1.1//EN" "http://www.w3.org/Graphics/SVG/1.1/DTD/svg11.dtd">
<svg version="1.1" id="Capa_1" xmlns="http://www.w3.org/2000/svg" xmlns:xlink="http://www.w3.org/1999/xlink" x="0px" y="0px"
	 width="93.25px" height="93.25px" viewBox="0 0 93.25 93.25" style="enable-background:new 0 0 93.25 93.25;" xml:space="preserve"
	>
<g>
	<path d="M78.354,14.375h4.967V0H46.686h-0.121H9.93v14.375h4.967c2.073,15.778,10.841,28.397,22.17,32.25
		c-11.329,3.854-20.098,16.473-22.171,32.25H9.929V93.25h36.635h0.121H83.32V78.875h-4.967c-2.073-15.777-10.841-28.396-22.17-32.25
		C67.512,42.772,76.28,30.153,78.354,14.375z M52.837,40.97c-0.432,4.025-0.703,18.347,3.969,20.058
		c10.768,4.183,14.865,16.595,14.865,16.595H21.579c0,0,4.098-12.412,14.865-16.595c4.672-1.711,4.399-16.032,3.969-20.058
		c-12.881-3.018-18.485-17.397-18.485-17.397h49.396C71.322,23.572,65.718,37.952,52.837,40.97z"/>
</g>
<g>
</g>
<g>
</g>
<g>
</g>
<g>
</g>
<g>
</g>
<g>
</g>
<g>
</g>
<g>
</g>
<g>
</g>
<g>
</g>
<g>
</g>
<g>
</g>
<g>
</g>
<g>
</g>
<g>
</g>
</svg>
