<?xml version="1.0" encoding="iso-8859-1"?>
<!-- Generator: Adobe Illustrator 16.0.0, SVG Export Plug-In . SVG Version: 6.00 Build 0)  -->
<!DOCTYPE svg PUBLIC "-//W3C//DTD SVG 1.1//EN" "http://www.w3.org/Graphics/SVG/1.1/DTD/svg11.dtd">
<svg version="1.1" id="Capa_1" xmlns="http://www.w3.org/2000/svg" xmlns:xlink="http://www.w3.org/1999/xlink" x="0px" y="0px"
	 width="93.18px" height="93.18px" viewBox="0 0 93.18 93.18" style="enable-background:new 0 0 93.18 93.18;" xml:space="preserve"
	>
<g>
	<path d="M54.744,22.097c0.016-0.03,0.031-0.062,0.046-0.092c2.47,5.263,7.805,8.923,13.993,8.923
		c8.525,0,15.463-6.937,15.463-15.464S77.311,0,68.783,0c-5.123,0-9.66,2.515-12.477,6.364c-0.001,0.002-0.005,0.002-0.006,0.005
		l-0.15,0.195l-0.603,0.774c-0.405,0.517-0.782,1.026-1.16,1.551c-0.774,1.031-1.47,2.104-2.183,3.17
		c-1.428,2.127-2.752,4.317-4.035,6.526c-0.395,0.685-0.771,1.379-1.152,2.07l-0.416,0.769h-0.011h-0.012l-0.416-0.769
		c-0.381-0.691-0.758-1.386-1.152-2.07c-1.283-2.209-2.607-4.399-4.035-6.526c-0.713-1.066-1.408-2.139-2.183-3.17
		c-0.377-0.524-0.754-1.034-1.16-1.551l-0.602-0.774L36.88,6.37c-0.001-0.003-0.005-0.003-0.006-0.005
		c-2.815-3.85-7.353-6.364-12.476-6.364c-8.526,0-15.464,6.937-15.464,15.464s6.938,15.464,15.464,15.464
		c6.188,0,11.522-3.66,13.993-8.923c0.015,0.03,0.031,0.062,0.045,0.092l3.314,6.686c0.04,0.078,0.074,0.159,0.115,0.237
		c-0.514,1.069-1.02,2.142-1.518,3.218c0,0-0.618,0.096-1.586,0.358c-1.889,0.4-3.408,4.661-3.87,5.915
		c0,0-11.236,31.113-10.943,54.646l2.612,0.021c5.239-28.031,19.469-48.435,20.031-49.233c0.562,0.798,14.792,21.202,20.03,49.232
		l2.611-0.021C69.525,69.624,58.29,38.511,58.29,38.511c-0.462-1.254-1.979-5.515-3.87-5.915c-0.969-0.263-1.586-0.358-1.586-0.358
		c-0.499-1.076-1.004-2.148-1.518-3.218c0.041-0.078,0.074-0.159,0.114-0.237L54.744,22.097z M68.783,7.138
		c4.591,0,8.326,3.734,8.326,8.326s-3.734,8.327-8.326,8.327s-8.327-3.735-8.327-8.327S64.191,7.138,68.783,7.138z M24.399,23.791
		c-4.591,0-8.327-3.735-8.327-8.327s3.735-8.326,8.327-8.326c4.592,0,8.327,3.734,8.327,8.326S28.99,23.791,24.399,23.791z"/>
</g>
<g>
</g>
<g>
</g>
<g>
</g>
<g>
</g>
<g>
</g>
<g>
</g>
<g>
</g>
<g>
</g>
<g>
</g>
<g>
</g>
<g>
</g>
<g>
</g>
<g>
</g>
<g>
</g>
<g>
</g>
</svg>
