<?xml version="1.0" encoding="iso-8859-1"?>
<!-- Generator: Adobe Illustrator 16.0.0, SVG Export Plug-In . SVG Version: 6.00 Build 0)  -->
<!DOCTYPE svg PUBLIC "-//W3C//DTD SVG 1.1//EN" "http://www.w3.org/Graphics/SVG/1.1/DTD/svg11.dtd">
<svg version="1.1" id="Capa_1" xmlns="http://www.w3.org/2000/svg" xmlns:xlink="http://www.w3.org/1999/xlink" x="0px" y="0px"
	 width="93.04px" height="93.04px" viewBox="0 0 93.04 93.04" style="enable-background:new 0 0 93.04 93.04;" xml:space="preserve"
	>
<g>
	<path d="M69.339,0c-5.729,0-10.844,2.662-14.188,6.811c-0.639,0.691-1.298,1.459-1.943,2.323c-1.162,1.517-2.289,3.315-3.451,5.312
		c-1.137,1.921-2.176,4.084-3.236,6.383c-1.059-2.299-2.099-4.462-3.237-6.383c-1.162-1.997-2.29-3.796-3.451-5.312
		c-0.646-0.864-1.305-1.632-1.944-2.323C34.545,2.663,29.433,0,23.703,0C13.652,0,5.476,8.177,5.476,18.225
		c0,10.049,8.176,18.226,18.227,18.226c6.412,0,12.049-3.336,15.298-8.354c0.615,1.412,1.244,2.855,1.824,4.361
		c0.103,0.251,0.194,0.52,0.296,0.776c-0.543,1.157-1.101,2.314-1.699,3.474c-0.292,0.695-0.838,1.291-1.598,1.807
		c-0.752,0.519-1.494,1.044-1.796,1.745c-0.541,1.431-1.032,2.886-1.553,4.329c-1.015,2.899-1.997,5.81-2.924,8.687
		c-0.915,2.877-1.639,5.777-2.344,8.576c-0.694,2.805-1.307,5.529-1.874,8.117c-0.582,2.579-1.04,5.049-1.367,7.354
		c-0.334,2.306-0.591,4.43-0.718,6.343c-0.17,1.896-0.218,3.577-0.25,4.964c-0.048,2.775,0.124,4.411,0.124,4.411
		s1.101-1.255,2.68-3.539c0.782-1.146,1.721-2.536,2.683-4.164c1.006-1.612,2.028-3.466,3.087-5.498
		c1.063-2.032,2.078-4.276,3.295-6.601c1.174-2.334,2.398-4.799,3.604-7.364c1.23-2.558,2.35-5.249,3.595-7.948
		c0.831-1.859,1.647-3.75,2.455-5.65c0.808,1.9,1.624,3.791,2.455,5.65c1.245,2.699,2.363,5.393,3.595,7.948
		c1.206,2.565,2.431,5.03,3.604,7.364c1.217,2.322,2.234,4.566,3.297,6.601c1.059,2.032,2.081,3.886,3.087,5.498
		c0.961,1.628,1.899,3.019,2.683,4.164c1.578,2.284,2.678,3.539,2.678,3.539s0.172-1.636,0.125-4.411
		c-0.029-1.387-0.078-3.068-0.25-4.964c-0.127-1.913-0.381-4.037-0.717-6.343c-0.328-2.307-0.787-4.774-1.367-7.354
		c-0.568-2.588-1.182-5.314-1.875-8.117c-0.705-2.799-1.431-5.699-2.344-8.576c-0.929-2.877-1.91-5.785-2.926-8.687
		c-0.52-1.443-1.012-2.898-1.553-4.329c-0.303-0.701-1.043-1.227-1.797-1.745c-0.76-0.516-1.305-1.111-1.596-1.807
		c-0.599-1.159-1.156-2.316-1.701-3.474c0.103-0.257,0.193-0.525,0.297-0.776c0.58-1.506,1.209-2.949,1.824-4.361
		c3.25,5.019,8.885,8.354,15.297,8.354c10.051,0,18.228-8.177,18.228-18.226C87.564,8.177,79.389,0,69.339,0z M23.703,27.344
		c-5.028,0-9.12-4.091-9.12-9.119c0-5.027,4.092-9.119,9.12-9.119c5.029,0,9.119,4.092,9.119,9.119
		C32.821,23.253,28.731,27.344,23.703,27.344z M69.339,27.344c-5.028,0-9.119-4.091-9.119-9.119c0-5.027,4.091-9.119,9.119-9.119
		c5.027,0,9.119,4.092,9.119,9.119C78.458,23.253,74.366,27.344,69.339,27.344z"/>
</g>
<g>
</g>
<g>
</g>
<g>
</g>
<g>
</g>
<g>
</g>
<g>
</g>
<g>
</g>
<g>
</g>
<g>
</g>
<g>
</g>
<g>
</g>
<g>
</g>
<g>
</g>
<g>
</g>
<g>
</g>
</svg>
