<?xml version="1.0" encoding="iso-8859-1"?>
<!-- Generator: Adobe Illustrator 16.0.0, SVG Export Plug-In . SVG Version: 6.00 Build 0)  -->
<!DOCTYPE svg PUBLIC "-//W3C//DTD SVG 1.1//EN" "http://www.w3.org/Graphics/SVG/1.1/DTD/svg11.dtd">
<svg version="1.1" id="Capa_1" xmlns="http://www.w3.org/2000/svg" xmlns:xlink="http://www.w3.org/1999/xlink" x="0px" y="0px"
	 width="92.268px" height="92.268px" viewBox="0 0 92.268 92.268" style="enable-background:new 0 0 92.268 92.268;"
	 xml:space="preserve">
<g>
	<g>
		<polygon points="57.967,0 54.892,8.795 73.357,21.546 		"/>
		<path d="M83.775,76.48l-10.58-10.582V27.366l-23.912-16.51L53.078,0H5.887v92.268h67.309V90.6
			c1.297,0.711,2.758,1.095,4.278,1.095c2.38,0,4.618-0.927,6.302-2.61C87.25,85.609,87.25,79.955,83.775,76.48z M80.328,85.176
			c-1.321,1.321-3.465,1.321-4.786,0L53.598,63.232c-0.089-0.09-0.156-0.191-0.234-0.288c-7.597,5.342-18.176,4.639-24.963-2.149
			c-7.596-7.595-7.596-19.954,0-27.549c7.597-7.595,19.956-7.595,27.549,0c6.785,6.787,7.49,17.367,2.149,24.963
			c0.095,0.078,0.197,0.146,0.289,0.236l21.94,21.941C81.65,81.71,81.65,83.854,80.328,85.176z"/>
		<circle cx="42.04" cy="46.866" r="13.586"/>
	</g>
</g>
<g>
</g>
<g>
</g>
<g>
</g>
<g>
</g>
<g>
</g>
<g>
</g>
<g>
</g>
<g>
</g>
<g>
</g>
<g>
</g>
<g>
</g>
<g>
</g>
<g>
</g>
<g>
</g>
<g>
</g>
</svg>
