<?xml version="1.0" encoding="iso-8859-1"?>
<!-- Generator: Adobe Illustrator 16.0.0, SVG Export Plug-In . SVG Version: 6.00 Build 0)  -->
<!DOCTYPE svg PUBLIC "-//W3C//DTD SVG 1.1//EN" "http://www.w3.org/Graphics/SVG/1.1/DTD/svg11.dtd">
<svg version="1.1" id="Capa_1" xmlns="http://www.w3.org/2000/svg" xmlns:xlink="http://www.w3.org/1999/xlink" x="0px" y="0px"
	 width="91.85px" height="91.85px" viewBox="0 0 91.85 91.85" style="enable-background:new 0 0 91.85 91.85;" xml:space="preserve"
	>
<g>
	<g>
		<path d="M13.175,0v91.85h65.5V0H13.175z M70.931,70.665c-0.756,0.754-1.758,1.169-2.822,1.169s-2.066-0.415-2.822-1.169
			L47.159,52.537c-2.788,1.738-5.985,2.652-9.31,2.652c-4.698,0-9.109-1.826-12.421-5.139c-3.319-3.318-5.147-7.737-5.147-12.443
			c0-4.707,1.828-9.126,5.147-12.444c3.319-3.319,7.738-5.147,12.444-5.147c4.707,0,9.126,1.828,12.444,5.147
			c5.821,5.823,6.801,14.815,2.486,21.729L70.929,65.02C72.485,66.574,72.487,69.107,70.931,70.665z"/>
		<path d="M37.761,27.12c-5.711,0-10.357,4.646-10.357,10.357c0,5.71,4.646,10.356,10.357,10.356c5.71,0,10.355-4.646,10.355-10.356
			C48.116,31.767,43.471,27.12,37.761,27.12z"/>
	</g>
</g>
<g>
</g>
<g>
</g>
<g>
</g>
<g>
</g>
<g>
</g>
<g>
</g>
<g>
</g>
<g>
</g>
<g>
</g>
<g>
</g>
<g>
</g>
<g>
</g>
<g>
</g>
<g>
</g>
<g>
</g>
</svg>
