<?xml version="1.0" encoding="iso-8859-1"?>
<!-- Generator: Adobe Illustrator 16.0.0, SVG Export Plug-In . SVG Version: 6.00 Build 0)  -->
<!DOCTYPE svg PUBLIC "-//W3C//DTD SVG 1.1//EN" "http://www.w3.org/Graphics/SVG/1.1/DTD/svg11.dtd">
<svg version="1.1" id="Capa_1" xmlns="http://www.w3.org/2000/svg" xmlns:xlink="http://www.w3.org/1999/xlink" x="0px" y="0px"
	 width="92.593px" height="92.593px" viewBox="0 0 92.593 92.593" style="enable-background:new 0 0 92.593 92.593;"
	 xml:space="preserve">
<g>
	<g>
		<path d="M91.026,83.464l-34.66-34.661c-0.144-0.141-0.306-0.249-0.454-0.374c8.436-11.996,7.322-28.71-3.396-39.431
			c-11.996-11.997-31.52-11.997-43.518,0s-11.998,31.52,0,43.516c10.719,10.722,27.433,11.833,39.431,3.394
			c0.123,0.153,0.23,0.313,0.373,0.457l34.662,34.661c2.09,2.088,5.472,2.088,7.562,0C93.115,88.936,93.115,85.554,91.026,83.464z
			 M30.545,51.972c-11.852,0-21.461-9.607-21.461-21.459c0-11.854,9.609-21.462,21.461-21.462c11.85,0,21.46,9.606,21.46,21.462
			C52.006,42.363,42.396,51.972,30.545,51.972z"/>
		<path d="M35.574,13.822h-10.12l-9.505,29.257h7.84l1.529-5.654h10.598l1.488,5.654h7.794L35.574,13.822z M26.734,30.738
			l3.371-10.146l1.043,0.004L34.5,30.739L26.734,30.738L26.734,30.738z"/>
	</g>
</g>
<g>
</g>
<g>
</g>
<g>
</g>
<g>
</g>
<g>
</g>
<g>
</g>
<g>
</g>
<g>
</g>
<g>
</g>
<g>
</g>
<g>
</g>
<g>
</g>
<g>
</g>
<g>
</g>
<g>
</g>
</svg>
