<?xml version="1.0" encoding="iso-8859-1"?>
<!-- Generator: Adobe Illustrator 16.0.0, SVG Export Plug-In . SVG Version: 6.00 Build 0)  -->
<!DOCTYPE svg PUBLIC "-//W3C//DTD SVG 1.1//EN" "http://www.w3.org/Graphics/SVG/1.1/DTD/svg11.dtd">
<svg version="1.1" id="Capa_1" xmlns="http://www.w3.org/2000/svg" xmlns:xlink="http://www.w3.org/1999/xlink" x="0px" y="0px"
	 width="84.087px" height="84.087px" viewBox="0 0 84.087 84.087" style="enable-background:new 0 0 84.087 84.087;"
	 xml:space="preserve">
<g>
	<g>
		<path d="M63.898,27.648c-1.749,0-3.168,1.418-3.168,3.168c0,1.086,0.547,2.043,1.379,2.613v4.838h3.579v-4.838
			c0.833-0.57,1.379-1.527,1.379-2.613C67.067,29.066,65.648,27.648,63.898,27.648z"/>
		<path d="M63.898,9.758c-3.468,0-6.289,2.82-6.289,6.289v3.615h12.578v-3.615C70.188,12.578,67.367,9.758,63.898,9.758z"/>
		<path d="M80.082,14.725C79.31,6.477,72.347,0,63.898,0c-8.445,0-15.409,6.477-16.184,14.725c-1.348,0.51-2.435,1.537-3.037,2.836
			h-3.74H17.016l-1.394-6.893L1.692,8.344l-1.245,7.469l8.785,1.463l9.32,44.965l-4.092,13.01h5.658
			c-0.32,0.772-0.5,1.627-0.5,2.522c0,3.486,2.656,6.313,5.934,6.313c3.276,0,5.932-2.826,5.932-6.313
			c0-0.896-0.18-1.75-0.496-2.522h31.289c-0.318,0.772-0.496,1.627-0.496,2.522c0,3.486,2.654,6.313,5.932,6.313
			c3.274,0,5.932-2.826,5.932-6.313c0-0.896-0.18-1.75-0.498-2.522h5.018v-7.569H24.778l0.766-2.431l43.014-17.998h9.581
			c3.038,0,5.5-2.463,5.5-5.5V19.871C83.64,17.518,82.162,15.51,80.082,14.725z M78.14,41.543H49.66V19.662h3.484v-3.615
			c0-5.932,4.824-10.756,10.754-10.756c5.932,0,10.755,4.824,10.755,10.756v3.615h3.485L78.14,41.543L78.14,41.543z"/>
	</g>
</g>
<g>
</g>
<g>
</g>
<g>
</g>
<g>
</g>
<g>
</g>
<g>
</g>
<g>
</g>
<g>
</g>
<g>
</g>
<g>
</g>
<g>
</g>
<g>
</g>
<g>
</g>
<g>
</g>
<g>
</g>
</svg>
