<?xml version="1.0" encoding="iso-8859-1"?>
<!-- Generator: Adobe Illustrator 16.0.0, SVG Export Plug-In . SVG Version: 6.00 Build 0)  -->
<!DOCTYPE svg PUBLIC "-//W3C//DTD SVG 1.1//EN" "http://www.w3.org/Graphics/SVG/1.1/DTD/svg11.dtd">
<svg version="1.1" id="Capa_1" xmlns="http://www.w3.org/2000/svg" xmlns:xlink="http://www.w3.org/1999/xlink" x="0px" y="0px"
	 width="85.453px" height="85.453px" viewBox="0 0 85.453 85.453" style="enable-background:new 0 0 85.453 85.453;"
	 xml:space="preserve">
<g>
	<g>
		<path d="M63.807,17.388c-3.084,0-5.595,2.508-5.595,5.594c0,3.084,2.511,5.592,5.595,5.592s5.594-2.508,5.594-5.592
			C69.4,19.896,66.891,17.388,63.807,17.388z"/>
		<path d="M82.503,14.908c0.063-0.381,0.099-0.77,0.099-1.158c0-1.879-0.731-3.646-2.062-4.975l-2.849-2.848
			c-1.553-1.561-3.914-2.303-6.125-1.947c-1.275-1.799-3.373-2.975-5.741-2.975h-4.039c-2.36,0-4.455,1.17-5.731,2.961
			c-2.197-0.365-4.558,0.383-6.123,1.951l-2.859,2.857c-1.666,1.666-2.32,3.967-1.963,6.133c-1.055,0.756-1.886,1.801-2.396,3.014
			H40.49H16.567l-1.394-6.893L1.245,8.705L0,16.174l8.785,1.463l9.32,44.965l-4.092,13.01h5.658c-0.32,0.773-0.5,1.627-0.5,2.523
			c0,3.485,2.656,6.312,5.934,6.312c3.276,0,5.932-2.826,5.932-6.312c0-0.896-0.18-1.75-0.496-2.523H61.83
			c-0.318,0.773-0.496,1.627-0.496,2.523c0,3.485,2.654,6.312,5.932,6.312c3.274,0,5.932-2.826,5.932-6.312
			c0-0.896-0.18-1.75-0.498-2.523h5.018v-7.57H24.33l0.766-2.43l53.035-22.191v-4.482l2.41-2.408
			c1.667-1.666,2.321-3.967,1.963-6.133c1.784-1.277,2.949-3.367,2.949-5.725v-4.041C85.453,18.275,84.288,16.185,82.503,14.908z
			 M79.953,25.001c0,0.848-0.688,1.537-1.536,1.537h-2.442c-0.256,0.879-0.606,1.727-1.047,2.531l1.725,1.727
			c0.601,0.6,0.601,1.574,0,2.174l-2.859,2.856c-0.579,0.58-1.591,0.58-2.17,0l-1.729-1.727c-0.803,0.443-1.653,0.793-2.532,1.049
			v2.443c0,0.848-0.688,1.535-1.536,1.535h-4.04c-0.847,0-1.535-0.688-1.535-1.535v-2.443c-0.879-0.256-1.729-0.605-2.532-1.049
			l-1.729,1.727c-0.557,0.561-1.613,0.559-2.17,0l-2.858-2.855c-0.29-0.291-0.448-0.676-0.448-1.088
			c0-0.404,0.164-0.801,0.449-1.086l1.727-1.727c-0.441-0.805-0.793-1.652-1.049-2.531h-2.442c-0.849,0-1.536-0.689-1.536-1.537
			v-4.041c0-0.848,0.688-1.535,1.536-1.535h2.442c0.256-0.879,0.606-1.729,1.049-2.533l-1.728-1.727c-0.6-0.6-0.6-1.572,0-2.172
			l2.858-2.857c0.578-0.58,1.591-0.58,2.17,0l1.729,1.727c0.803-0.443,1.653-0.793,2.532-1.049V8.372
			c0-0.846,0.688-1.535,1.535-1.535h4.041c0.849,0,1.536,0.689,1.536,1.535v2.443c0.879,0.256,1.729,0.605,2.531,1.049l1.729-1.727
			c0.558-0.559,1.614-0.559,2.17,0l2.858,2.857c0.289,0.289,0.449,0.676,0.449,1.086c0,0.404-0.164,0.801-0.451,1.086l-1.725,1.726
			c0.44,0.805,0.793,1.654,1.047,2.533h2.443c0.848,0,1.536,0.688,1.536,1.535L79.953,25.001L79.953,25.001z"/>
	</g>
</g>
<g>
</g>
<g>
</g>
<g>
</g>
<g>
</g>
<g>
</g>
<g>
</g>
<g>
</g>
<g>
</g>
<g>
</g>
<g>
</g>
<g>
</g>
<g>
</g>
<g>
</g>
<g>
</g>
<g>
</g>
</svg>
