<?xml version="1.0" encoding="iso-8859-1"?>
<!-- Generator: Adobe Illustrator 16.0.0, SVG Export Plug-In . SVG Version: 6.00 Build 0)  -->
<!DOCTYPE svg PUBLIC "-//W3C//DTD SVG 1.1//EN" "http://www.w3.org/Graphics/SVG/1.1/DTD/svg11.dtd">
<svg version="1.1" id="Capa_1" xmlns="http://www.w3.org/2000/svg" xmlns:xlink="http://www.w3.org/1999/xlink" x="0px" y="0px"
	 width="87.144px" height="87.144px" viewBox="0 0 87.144 87.144" style="enable-background:new 0 0 87.144 87.144;"
	 xml:space="preserve">
<g>
	<path d="M85.688,25.532L68.246,3.487c-1.043-1.318-2.631-2.088-4.313-2.088c-1.682,0-3.271,0.77-4.313,2.088l-12.445,15.73h-1.945
		h-4.738H16.568l-1.395-6.893L1.246,10.001L0,17.47l8.785,1.463l9.32,44.965l-4.092,13.01h5.659c-0.32,0.772-0.5,1.627-0.5,2.522
		c0,3.486,2.656,6.313,5.934,6.313c3.278,0,5.932-2.825,5.932-6.313c0-0.896-0.18-1.75-0.496-2.522H61.83
		c-0.317,0.772-0.495,1.627-0.495,2.522c0,3.486,2.653,6.313,5.932,6.313c3.275,0,5.933-2.825,5.933-6.313
		c0-0.896-0.181-1.75-0.498-2.522h5.016v-7.569H24.332l0.766-2.431l28-11.717c0.734,2.172,2.787,3.737,5.207,3.737h11.258
		c3.036,0,5.5-2.463,5.5-5.5v-7.428l-0.046-11.217l3.115-0.023h3.491c0.009,0,0.017,0.002,0.021,0c3.037,0,5.5-2.463,5.5-5.5
		C87.144,27.823,86.592,26.512,85.688,25.532z M69.562,29.76v24.168H58.304V29.76H46.24L63.933,7.399l17.69,22.361H69.562z"/>
</g>
<g>
</g>
<g>
</g>
<g>
</g>
<g>
</g>
<g>
</g>
<g>
</g>
<g>
</g>
<g>
</g>
<g>
</g>
<g>
</g>
<g>
</g>
<g>
</g>
<g>
</g>
<g>
</g>
<g>
</g>
</svg>
