<?xml version="1.0" encoding="iso-8859-1"?>
<!-- Generator: Adobe Illustrator 16.0.0, SVG Export Plug-In . SVG Version: 6.00 Build 0)  -->
<!DOCTYPE svg PUBLIC "-//W3C//DTD SVG 1.1//EN" "http://www.w3.org/Graphics/SVG/1.1/DTD/svg11.dtd">
<svg version="1.1" id="Capa_1" xmlns="http://www.w3.org/2000/svg" xmlns:xlink="http://www.w3.org/1999/xlink" x="0px" y="0px"
	 width="93.474px" height="93.474px" viewBox="0 0 93.474 93.474" style="enable-background:new 0 0 93.474 93.474;"
	 xml:space="preserve">
<g>
	<path d="M79.341,74.609c-1.345-2.852-2.58-6.052-3.717-9.088l-0.566-1.541c-1.012-2.762-2.062-5.615-3.369-8.437
		c-0.818-1.767-1.779-3.452-2.854-5.015c-0.195-0.278-0.402-0.562-0.625-0.85c0.366-0.359,0.69-0.72,0.989-1.092
		c1.41-1.621,2.597-3.613,3.394-5.716c0.688-1.698,1.217-3.568,1.658-5.856c0.391-2.004,0.641-3.918,0.836-5.526l0.174-1.405
		c0.36-2.943,0.703-5.723,1.35-8.009c0.344-1.208,0.789-2.293,1.283-3.131c0.592-0.872,1.141-1.218,1.141-1.218
		c1.187-0.695,3.115,0.167,3.115,0.167L82.439,18c1.504,0.533,3.131,0.62,4.691,0.246c4.434-1.063,7.178-5.537,6.114-9.973
		c-0.895-3.736-4.2-6.347-8.039-6.347c-15.303,0-19.043,15.558-19.44,17.651c-0.383,2.137-0.666,4.244-0.938,6.281
		c-0.188,1.396-0.371,2.768-0.582,4.102c-0.241,1.492-0.522,3.076-0.936,4.5c-0.346,1.335-0.814,2.535-1.363,3.509
		c-0.432,0.817-0.942,1.438-1.584,1.933c0,0-1.551,1.192-4.918,0.685c-2.883-0.476-1.942-0.369-2.145-0.413V1.928H40.175v38.247
		c-0.201,0.044,0.737-0.063-2.146,0.413c-3.367,0.507-4.918-0.685-4.918-0.685c-0.641-0.494-1.151-1.115-1.584-1.933
		c-0.549-0.974-1.018-2.174-1.362-3.509c-0.412-1.424-0.693-3.008-0.937-4.5c-0.211-1.334-0.395-2.706-0.582-4.102
		c-0.271-2.037-0.555-4.145-0.938-6.281c-0.398-2.092-4.139-17.65-19.441-17.65c-3.838,0-7.145,2.61-8.039,6.347
		c-1.062,4.436,1.682,8.91,6.115,9.973c1.561,0.374,3.188,0.287,4.69-0.246l0.291-0.106c0,0,1.931-0.862,3.115-0.167
		c0,0,0.549,0.346,1.142,1.218c0.493,0.838,0.938,1.923,1.282,3.131c0.646,2.286,0.988,5.065,1.351,8.009l0.174,1.405
		c0.195,1.608,0.445,3.522,0.836,5.526c0.441,2.288,0.971,4.158,1.658,5.855c0.797,2.104,1.981,4.095,3.393,5.716
		c0.299,0.372,0.623,0.73,0.99,1.092c-0.223,0.288-0.43,0.57-0.625,0.85c-1.076,1.562-2.037,3.248-2.855,5.015
		c-1.309,2.819-2.356,5.675-3.368,8.437l-0.566,1.541c-1.137,3.037-2.373,6.236-3.717,9.088c-0.037,0.078-3.648,7.891-10.31,14.571
		l-2.358,2.365h19.711l-0.41-1.71c-0.568-2.365,1.363-6.539,2.643-9.303c0.234-0.51,0.455-0.986,0.646-1.416
		c1.188-2.668,2.391-5.494,3.578-8.279l0.502-1.18c1.504-3.455,2.791-6.207,4.176-8.391c0.746-1.152,1.467-2.062,2.139-2.701
		c0,0,2.959-2.972,6.021-2.283l0.004,35.228h12.523l0.004-35.228c3.062-0.688,6.021,2.283,6.021,2.283
		c0.672,0.639,1.394,1.549,2.139,2.701c1.386,2.184,2.673,4.936,4.177,8.391l0.502,1.18c1.188,2.785,2.391,5.611,3.578,8.279
		c0.19,0.43,0.412,0.906,0.646,1.416c1.279,2.764,3.211,6.938,2.644,9.303l-0.41,1.71h19.711l-2.359-2.366
		C82.988,82.5,79.378,74.688,79.341,74.609z"/>
</g>
<g>
</g>
<g>
</g>
<g>
</g>
<g>
</g>
<g>
</g>
<g>
</g>
<g>
</g>
<g>
</g>
<g>
</g>
<g>
</g>
<g>
</g>
<g>
</g>
<g>
</g>
<g>
</g>
<g>
</g>
</svg>
