<?xml version="1.0" encoding="iso-8859-1"?>
<!-- Generator: Adobe Illustrator 16.0.0, SVG Export Plug-In . SVG Version: 6.00 Build 0)  -->
<!DOCTYPE svg PUBLIC "-//W3C//DTD SVG 1.1//EN" "http://www.w3.org/Graphics/SVG/1.1/DTD/svg11.dtd">
<svg version="1.1" id="Capa_1" xmlns="http://www.w3.org/2000/svg" xmlns:xlink="http://www.w3.org/1999/xlink" x="0px" y="0px"
	 width="94.344px" height="94.344px" viewBox="0 0 94.344 94.344" style="enable-background:new 0 0 94.344 94.344;"
	 xml:space="preserve">
<g>
	<g>
		<path d="M73.772,61.101c-0.963-2.457-1.91-5.17-2.981-8.537l-0.175-0.551l0.24-0.523c0.951-2.061,1.879-4.196,2.758-6.351
			c4.828-11.812,8.224-24.134,10.666-38.726H69.234c-1.309,7.093-2.826,13.552-4.627,19.711l-1.115,3.806l-1.665-3.598
			c-0.81-1.745-1.613-3.318-2.462-4.809C54.117,12.29,44.724,6.777,34.233,6.777c-1.926,0-3.879,0.189-5.809,0.561
			C18.228,9.307,9.595,16.962,4.738,28.34c-5.844,13.703-6.315,29.33-1.229,40.782c3.719,8.372,10.027,14.14,18.746,17.145
			c13.545,4.664,26.082-0.494,37.229-15.248l1.558-2.062l1.166,2.772c2.33,5.355,5.58,10.17,10.205,15.101h21.932
			C85.464,79.369,78.313,72.696,73.772,61.101z M54.763,50.953c-1.441,2.753-2.871,5.245-4.369,7.62
			c-5.906,9.365-12.416,14.113-19.348,14.113c-1.146,0-2.314-0.135-3.474-0.397c-11.293-2.582-12.642-13.474-12.675-21.442
			c-0.033-8.473,2.633-20.395,10.258-26.116c2.839-2.13,5.765-3.21,8.695-3.21c5.734,0,11.246,4.299,14.748,11.5
			c2.672,5.49,4.592,11.322,6.271,16.805l0.178,0.585L54.763,50.953z"/>
	</g>
</g>
<g>
</g>
<g>
</g>
<g>
</g>
<g>
</g>
<g>
</g>
<g>
</g>
<g>
</g>
<g>
</g>
<g>
</g>
<g>
</g>
<g>
</g>
<g>
</g>
<g>
</g>
<g>
</g>
<g>
</g>
</svg>
