<?xml version="1.0" encoding="iso-8859-1"?>
<!-- Generator: Adobe Illustrator 16.0.0, SVG Export Plug-In . SVG Version: 6.00 Build 0)  -->
<!DOCTYPE svg PUBLIC "-//W3C//DTD SVG 1.1//EN" "http://www.w3.org/Graphics/SVG/1.1/DTD/svg11.dtd">
<svg version="1.1" id="Capa_1" xmlns="http://www.w3.org/2000/svg" xmlns:xlink="http://www.w3.org/1999/xlink" x="0px" y="0px"
	 width="94.751px" height="94.751px" viewBox="0 0 94.751 94.751" style="enable-background:new 0 0 94.751 94.751;"
	 xml:space="preserve">
<g>
	<path d="M94.75,18.038H52.025C50.867,13.042,49.4,8.38,47.559,3.919l-9.612,3.97c1.333,3.226,2.429,6.597,3.356,10.148H0v10.399
		h43.417c0.42,2.848,0.744,5.836,0.979,8.988c-10.819-7.305-22.103-6.115-28.94-2.516c-6.18,3.254-9.637,8.68-9.024,14.155
		c0.384,3.432,2.736,9.64,14.178,12.701c0,0,2.123,0.508,4.439,0.439c8.281-0.241,14.745-2.543,19.768-5.832
		c-0.08,4.936-0.249,9.882-0.427,14.738l-0.481,6.433l10.399,13.288c0-6.346,0.241-12.952,0.476-19.342
		c0.286-7.826,0.555-15.883,0.435-23.877c13.316-6.75,19.164-6.304,21.514-5.362c1.047,0.418,2.902,1.136,3.754,3.872
		c0.968,3.111-0.827,4.684-1.168,5.062c-2.12,2.367-8.373,3.381-14.146,2.197l-2.084,10.189c2.271,0.464,4.732,0.721,7.225,0.721
		c6.521,0,13.231-1.764,17.174-6.184c2.445-2.737,4.842-7.582,2.387-15.11c-1.645-5.038-4.854-8.638-9.283-10.407
		c-6.255-2.497-14.76-1.273-25.847,3.729c-0.209-2.734-0.485-5.356-0.826-7.886h40.834L94.75,18.038L94.75,18.038z M16.767,47.912
		c-0.083-0.738,0.983-2.455,3.534-3.799c4.47-2.354,12.198-2.889,19.725,2.983C35.257,50.546,19.835,53.232,16.767,47.912z"/>
</g>
<g>
</g>
<g>
</g>
<g>
</g>
<g>
</g>
<g>
</g>
<g>
</g>
<g>
</g>
<g>
</g>
<g>
</g>
<g>
</g>
<g>
</g>
<g>
</g>
<g>
</g>
<g>
</g>
<g>
</g>
</svg>
