<?xml version="1.0" encoding="iso-8859-1"?>
<!-- Generator: Adobe Illustrator 16.0.0, SVG Export Plug-In . SVG Version: 6.00 Build 0)  -->
<!DOCTYPE svg PUBLIC "-//W3C//DTD SVG 1.1//EN" "http://www.w3.org/Graphics/SVG/1.1/DTD/svg11.dtd">
<svg version="1.1" id="Capa_1" xmlns="http://www.w3.org/2000/svg" xmlns:xlink="http://www.w3.org/1999/xlink" x="0px" y="0px"
	 width="92.649px" height="92.649px" viewBox="0 0 92.649 92.649" style="enable-background:new 0 0 92.649 92.649;"
	 xml:space="preserve">
<g>
	<path d="M0,2.564v87.522c0,1.414,1.148,2.562,2.563,2.562h87.523c1.414,0,2.563-1.146,2.563-2.562V2.564
		c0-1.416-1.148-2.563-2.563-2.563H2.562C1.148,0.002,0,1.148,0,2.564z M82.516,75.353c0,3.474-2.814,6.287-6.285,6.287
		c-3.477,0-6.291-2.813-6.291-6.287c0-3.475,2.814-6.288,6.291-6.288C79.701,69.064,82.516,71.88,82.516,75.353z M51.912,75.353
		c0,3.474-2.814,6.287-6.291,6.287c-3.475,0-6.287-2.813-6.287-6.287c0-3.475,2.813-6.288,6.287-6.288
		C49.096,69.064,51.912,71.88,51.912,75.353z M82.516,46.326c0,3.474-2.814,6.289-6.285,6.289c-3.477,0-6.291-2.815-6.291-6.289
		c0-3.473,2.814-6.289,6.291-6.289C79.701,40.037,82.516,42.853,82.516,46.326z M51.912,46.326c0,3.474-2.814,6.289-6.291,6.289
		c-3.475,0-6.287-2.815-6.287-6.289c0-3.473,2.813-6.289,6.287-6.289C49.096,40.037,51.912,42.853,51.912,46.326z M82.516,17.297
		c0,3.475-2.814,6.291-6.285,6.291c-3.477,0-6.291-2.816-6.291-6.291c0-3.471,2.814-6.287,6.291-6.287
		C79.701,11.01,82.516,13.826,82.516,17.297z M51.912,17.297c0,3.475-2.814,6.291-6.291,6.291c-3.475,0-6.287-2.816-6.287-6.291
		c0-3.471,2.813-6.287,6.287-6.287C49.096,11.01,51.912,13.826,51.912,17.297z M20.275,14.299v62.131
		c0,2.125-1.72,3.844-3.844,3.844c-2.123,0-3.843-1.719-3.843-3.844V14.299c0-2.123,1.72-3.844,3.843-3.844
		C18.555,10.455,20.275,12.176,20.275,14.299z"/>
</g>
<g>
</g>
<g>
</g>
<g>
</g>
<g>
</g>
<g>
</g>
<g>
</g>
<g>
</g>
<g>
</g>
<g>
</g>
<g>
</g>
<g>
</g>
<g>
</g>
<g>
</g>
<g>
</g>
<g>
</g>
</svg>
