<?xml version="1.0" encoding="iso-8859-1"?>
<!-- Generator: Adobe Illustrator 16.0.0, SVG Export Plug-In . SVG Version: 6.00 Build 0)  -->
<!DOCTYPE svg PUBLIC "-//W3C//DTD SVG 1.1//EN" "http://www.w3.org/Graphics/SVG/1.1/DTD/svg11.dtd">
<svg version="1.1" id="Capa_1" xmlns="http://www.w3.org/2000/svg" xmlns:xlink="http://www.w3.org/1999/xlink" x="0px" y="0px"
	 width="93.41px" height="93.41px" viewBox="0 0 93.41 93.41" style="enable-background:new 0 0 93.41 93.41;" xml:space="preserve"
	>
<g>
	<path d="M93.41,90.826V2.582C93.41,1.156,92.254,0,90.828,0H2.584C1.158,0,0,1.156,0,2.582v88.244c0,1.426,1.158,2.584,2.584,2.584
		h88.244C92.254,93.41,93.41,92.252,93.41,90.826z M10.215,17.437c0-3.5,2.838-6.34,6.34-6.34c3.504,0,6.342,2.84,6.342,6.34
		c0,3.502-2.838,6.342-6.342,6.342C13.053,23.779,10.215,20.939,10.215,17.437z M41.072,17.437c0-3.5,2.838-6.34,6.342-6.34
		s6.34,2.84,6.34,6.34c0,3.502-2.836,6.342-6.34,6.342S41.072,20.939,41.072,17.437z M10.215,46.705c0-3.502,2.838-6.342,6.34-6.342
		c3.504,0,6.342,2.84,6.342,6.342s-2.838,6.34-6.342,6.34C13.053,53.045,10.215,50.207,10.215,46.705z M41.072,46.705
		c0-3.502,2.838-6.342,6.342-6.342s6.34,2.84,6.34,6.342s-2.836,6.34-6.34,6.34S41.072,50.207,41.072,46.705z M10.215,75.971
		c0-3.502,2.838-6.34,6.34-6.34c3.504,0,6.342,2.838,6.342,6.34c0,3.5-2.838,6.34-6.342,6.34
		C13.053,82.311,10.215,79.471,10.215,75.971z M41.072,75.971c0-3.502,2.838-6.34,6.342-6.34s6.34,2.838,6.34,6.34
		c0,3.5-2.836,6.34-6.34,6.34S41.072,79.471,41.072,75.971z M72.969,78.996V16.351c0-2.141,1.734-3.875,3.875-3.875
		s3.875,1.734,3.875,3.875v62.645c0,2.141-1.734,3.875-3.875,3.875S72.969,81.137,72.969,78.996z"/>
</g>
<g>
</g>
<g>
</g>
<g>
</g>
<g>
</g>
<g>
</g>
<g>
</g>
<g>
</g>
<g>
</g>
<g>
</g>
<g>
</g>
<g>
</g>
<g>
</g>
<g>
</g>
<g>
</g>
<g>
</g>
</svg>
