<?xml version="1.0" encoding="iso-8859-1"?>
<!-- Generator: Adobe Illustrator 16.0.0, SVG Export Plug-In . SVG Version: 6.00 Build 0)  -->
<!DOCTYPE svg PUBLIC "-//W3C//DTD SVG 1.1//EN" "http://www.w3.org/Graphics/SVG/1.1/DTD/svg11.dtd">
<svg version="1.1" id="Capa_1" xmlns="http://www.w3.org/2000/svg" xmlns:xlink="http://www.w3.org/1999/xlink" x="0px" y="0px"
	 width="94.552px" height="94.552px" viewBox="0 0 94.552 94.552" style="enable-background:new 0 0 94.552 94.552;"
	 xml:space="preserve">
<g>
	<g>
		<rect x="2.91" y="20.85" width="28.731" height="19.68"/>
		<rect x="2.91" y="47.432" width="28.731" height="19.68"/>
		<rect x="2.91" y="74.872" width="28.731" height="19.68"/>
		<rect x="38.485" y="74.872" width="28.731" height="19.68"/>
		<path d="M85.648,19.953l5.994-6.001L77.673,0L66.656,11.02l0.031,0.03l-9.801,9.8H38.485v19.68h3.824l-2.128,6.9h-1.696v19.68
			h28.731V47.43h-9.547l0.764-0.218l6.688-6.682h2.096v-2.094l18.466-18.45L85.648,19.953z M55.728,43.099l-10.289,2.948
			l3.152-10.224l22.906-22.905l7.225,7.205L55.728,43.099z M80.396,18.387l-7.201-7.227l4.277-4.278l7.216,7.207L80.396,18.387z"/>
	</g>
</g>
<g>
</g>
<g>
</g>
<g>
</g>
<g>
</g>
<g>
</g>
<g>
</g>
<g>
</g>
<g>
</g>
<g>
</g>
<g>
</g>
<g>
</g>
<g>
</g>
<g>
</g>
<g>
</g>
<g>
</g>
</svg>
