<?xml version="1.0" encoding="iso-8859-1"?>
<!-- Generator: Adobe Illustrator 16.0.0, SVG Export Plug-In . SVG Version: 6.00 Build 0)  -->
<!DOCTYPE svg PUBLIC "-//W3C//DTD SVG 1.1//EN" "http://www.w3.org/Graphics/SVG/1.1/DTD/svg11.dtd">
<svg version="1.1" id="Capa_1" xmlns="http://www.w3.org/2000/svg" xmlns:xlink="http://www.w3.org/1999/xlink" x="0px" y="0px"
	 width="92.389px" height="92.389px" viewBox="0 0 92.389 92.389" style="enable-background:new 0 0 92.389 92.389;"
	 xml:space="preserve">
<g>
	<g>
		<path d="M89.833,0H2.555C1.145,0,0,1.145,0,2.557v87.277c0,1.41,1.145,2.555,2.555,2.555h87.277c1.412,0,2.557-1.145,2.557-2.555
			V2.556C92.389,1.144,91.244,0,89.833,0z M75.141,10.103c3.461,0,6.27,2.805,6.27,6.27c0,3.465-2.809,6.273-6.27,6.273
			c-3.463,0-6.271-2.809-6.271-6.273C68.869,12.909,71.678,10.103,75.141,10.103z M17.249,10.103c3.463,0,6.271,2.805,6.271,6.27
			c0,3.465-2.809,6.273-6.271,6.273c-3.462,0-6.271-2.809-6.271-6.273C10.978,12.909,13.786,10.103,17.249,10.103z M17.249,82.285
			c-3.463,0-6.271-2.807-6.271-6.268c0-3.468,2.809-6.273,6.271-6.273c3.462,0,6.271,2.807,6.271,6.273
			C23.52,79.479,20.712,82.285,17.249,82.285z M75.141,82.285c-3.463,0-6.271-2.807-6.271-6.268c0-3.468,2.81-6.273,6.271-6.273
			c3.461,0,6.27,2.807,6.27,6.273C81.41,79.479,78.602,82.285,75.141,82.285z M78.889,49.363l-28.861-0.006L50.02,78.584
			c0,2.117-1.717,3.832-3.833,3.832c-2.115,0-3.83-1.715-3.83-3.832l0.006-29.229L14.114,49.35c-2.117,0-3.834-1.718-3.834-3.834
			c0-2.115,1.717-3.83,3.834-3.83l28.25,0.004l0.004-27.883c0-2.117,1.717-3.832,3.834-3.832c2.115,0,3.832,1.717,3.832,3.832
			l-0.006,27.885l28.863,0.006c2.117,0,3.832,1.717,3.83,3.834C82.721,47.646,81.007,49.363,78.889,49.363z"/>
	</g>
</g>
<g>
</g>
<g>
</g>
<g>
</g>
<g>
</g>
<g>
</g>
<g>
</g>
<g>
</g>
<g>
</g>
<g>
</g>
<g>
</g>
<g>
</g>
<g>
</g>
<g>
</g>
<g>
</g>
<g>
</g>
</svg>
