<?xml version="1.0" encoding="iso-8859-1"?>
<!-- Generator: Adobe Illustrator 16.0.0, SVG Export Plug-In . SVG Version: 6.00 Build 0)  -->
<!DOCTYPE svg PUBLIC "-//W3C//DTD SVG 1.1//EN" "http://www.w3.org/Graphics/SVG/1.1/DTD/svg11.dtd">
<svg version="1.1" id="Capa_1" xmlns="http://www.w3.org/2000/svg" xmlns:xlink="http://www.w3.org/1999/xlink" x="0px" y="0px"
	 width="92.484px" height="92.484px" viewBox="0 0 92.484 92.484" style="enable-background:new 0 0 92.484 92.484;"
	 xml:space="preserve">
<g>
	<path d="M92.484,35.86H57.158L46.242,2.263L35.326,35.86H0l28.579,20.764L17.662,90.221l28.58-20.763l28.58,20.763L63.905,56.625
		L92.484,35.86z M55.691,59.292l2.703,8.32l-7.076-5.144l-5.076-3.687l-5.076,3.688l-7.076,5.143l2.703-8.318l1.938-5.969
		l-5.076-3.688l-7.072-5.139h8.743H41.6l1.938-5.967l2.704-8.319l2.703,8.318l1.938,5.967h6.274H65.9l-7.072,5.139l-5.076,3.688
		L55.691,59.292z"/>
</g>
<g>
</g>
<g>
</g>
<g>
</g>
<g>
</g>
<g>
</g>
<g>
</g>
<g>
</g>
<g>
</g>
<g>
</g>
<g>
</g>
<g>
</g>
<g>
</g>
<g>
</g>
<g>
</g>
<g>
</g>
</svg>
