<?xml version="1.0" encoding="iso-8859-1"?>
<!-- Generator: Adobe Illustrator 16.0.0, SVG Export Plug-In . SVG Version: 6.00 Build 0)  -->
<!DOCTYPE svg PUBLIC "-//W3C//DTD SVG 1.1//EN" "http://www.w3.org/Graphics/SVG/1.1/DTD/svg11.dtd">
<svg version="1.1" id="Capa_1" xmlns="http://www.w3.org/2000/svg" xmlns:xlink="http://www.w3.org/1999/xlink" x="0px" y="0px"
	 width="94.061px" height="94.061px" viewBox="0 0 94.061 94.061" style="enable-background:new 0 0 94.061 94.061;"
	 xml:space="preserve">
<g>
	<path d="M59.662,0H34.398c-5.813,0-10.527,4.714-10.527,10.526v73.008c0,5.813,4.713,10.526,10.527,10.526h25.264
		c5.812,0,10.527-4.715,10.527-10.526V10.526C70.189,4.714,65.475,0,59.662,0z M43.784,80.87h-9.825v-8.246h9.825V80.87z
		 M43.784,65.432h-9.825v-8.246h9.825V65.432z M43.784,51.572h-9.825v-8.246h9.825V51.572z M60.102,63.766v1.666V80.87h-9.825
		V65.432v-1.666v-6.58h9.825V63.766z M60.102,51.572h-9.825v-8.246h9.825V51.572z M60.768,37.976H33.398V9.905h27.369V37.976z"/>
</g>
<g>
</g>
<g>
</g>
<g>
</g>
<g>
</g>
<g>
</g>
<g>
</g>
<g>
</g>
<g>
</g>
<g>
</g>
<g>
</g>
<g>
</g>
<g>
</g>
<g>
</g>
<g>
</g>
<g>
</g>
</svg>
