<?xml version="1.0" encoding="iso-8859-1"?>
<!-- Generator: Adobe Illustrator 16.0.0, SVG Export Plug-In . SVG Version: 6.00 Build 0)  -->
<!DOCTYPE svg PUBLIC "-//W3C//DTD SVG 1.1//EN" "http://www.w3.org/Graphics/SVG/1.1/DTD/svg11.dtd">
<svg version="1.1" id="Capa_1" xmlns="http://www.w3.org/2000/svg" xmlns:xlink="http://www.w3.org/1999/xlink" x="0px" y="0px"
	 width="91.268px" height="91.268px" viewBox="0 0 91.268 91.268" style="enable-background:new 0 0 91.268 91.268;"
	 xml:space="preserve">
<g>
	<path d="M79.65,18.055l-3.908-7.559l3.68-6.993c0.393-0.739,0.364-1.632-0.068-2.349C78.922,0.437,78.145,0,77.309,0H13.762
		c-1.318,0-2.389,1.07-2.389,2.39l0.058,88.878h24.94h7.546h16.078h19.894V71.375l0.006-52.737
		C79.848,18.436,79.745,18.239,79.65,18.055z M22.908,84.447H19.38v-59.59h3.528V84.447z M68.93,42.94h-5.631v-2.847
		c0-0.95-0.507-1.392-1.391-1.392h-8.984v33.782h5.432v5.44h-5.432h-6.326h-5.432v-5.44h5.432V38.701h-8.982
		c-0.886,0-1.392,0.441-1.392,1.392v2.847h-5.631v-5.883c0-2.849,0.95-3.797,3.796-3.797h30.745c2.848,0,3.797,0.948,3.797,3.797
		V42.94z M16.153,18.638V4.78h57.195L70.93,9.374c-0.363,0.691-0.365,1.517-0.007,2.211l3.646,7.053H16.153z"/>
</g>
<g>
</g>
<g>
</g>
<g>
</g>
<g>
</g>
<g>
</g>
<g>
</g>
<g>
</g>
<g>
</g>
<g>
</g>
<g>
</g>
<g>
</g>
<g>
</g>
<g>
</g>
<g>
</g>
<g>
</g>
</svg>
