<?xml version="1.0" encoding="iso-8859-1"?>
<!-- Generator: Adobe Illustrator 16.0.0, SVG Export Plug-In . SVG Version: 6.00 Build 0)  -->
<!DOCTYPE svg PUBLIC "-//W3C//DTD SVG 1.1//EN" "http://www.w3.org/Graphics/SVG/1.1/DTD/svg11.dtd">
<svg version="1.1" id="Capa_1" xmlns="http://www.w3.org/2000/svg" xmlns:xlink="http://www.w3.org/1999/xlink" x="0px" y="0px"
	 width="92.285px" height="92.285px" viewBox="0 0 92.285 92.285" style="enable-background:new 0 0 92.285 92.285;"
	 xml:space="preserve">
<g>
	<g>
		<path d="M9.926,0v92.285h72.434V0H9.926z M75.597,85.523H16.688V6.763h58.908V85.523z"/>
		<polygon points="66.511,24.562 71.162,24.562 71.162,10.787 57.385,10.787 57.385,15.436 66.511,15.436 		"/>
		<polygon points="25.774,15.436 34.899,15.436 34.899,10.787 21.123,10.787 21.123,24.562 25.774,24.562 		"/>
		<polygon points="34.899,76.85 25.774,76.85 25.774,67.725 21.123,67.725 21.123,81.499 34.899,81.499 		"/>
		<polygon points="66.511,76.85 57.385,76.85 57.385,81.499 71.162,81.499 71.162,67.725 66.511,67.725 		"/>
		<rect x="31.224" y="35.909" width="29.838" height="5.109"/>
		<rect x="31.224" y="23.071" width="29.838" height="5.11"/>
		<rect x="31.224" y="49.732" width="29.838" height="5.111"/>
		<rect x="31.224" y="64.104" width="29.838" height="5.111"/>
	</g>
</g>
<g>
</g>
<g>
</g>
<g>
</g>
<g>
</g>
<g>
</g>
<g>
</g>
<g>
</g>
<g>
</g>
<g>
</g>
<g>
</g>
<g>
</g>
<g>
</g>
<g>
</g>
<g>
</g>
<g>
</g>
</svg>
