<?xml version="1.0" encoding="iso-8859-1"?>
<!-- Generator: Adobe Illustrator 16.0.0, SVG Export Plug-In . SVG Version: 6.00 Build 0)  -->
<!DOCTYPE svg PUBLIC "-//W3C//DTD SVG 1.1//EN" "http://www.w3.org/Graphics/SVG/1.1/DTD/svg11.dtd">
<svg version="1.1" id="Capa_1" xmlns="http://www.w3.org/2000/svg" xmlns:xlink="http://www.w3.org/1999/xlink" x="0px" y="0px"
	 width="93.821px" height="93.821px" viewBox="0 0 93.821 93.821" style="enable-background:new 0 0 93.821 93.821;"
	 xml:space="preserve">
<g>
	<g>
		<path d="M74.752,5.047H65.54V3.67c0-2.027-1.646-3.67-3.672-3.67H31.953c-2.028,0-3.672,1.643-3.672,3.67v1.377h-9.214
			c-2.026,0-3.672,1.644-3.672,3.672v4.283c0,2.026,1.646,3.671,3.672,3.671h55.687c2.025,0,3.672-1.645,3.672-3.671V8.719
			C78.425,6.69,76.78,5.047,74.752,5.047z"/>
		<path d="M20.042,88.973c0,2.677,2.17,4.849,4.849,4.849h44.038c2.678,0,4.849-2.172,4.849-4.849V19.526H20.042V88.973z
			 M59.334,33.037c0-2.007,1.629-3.637,3.637-3.637s3.636,1.63,3.636,3.637v46.061c0,2.011-1.629,3.637-3.636,3.637
			s-3.637-1.626-3.637-3.637V33.037z M43.274,33.037c0-2.007,1.628-3.637,3.636-3.637c2.008,0,3.636,1.63,3.636,3.637v46.061
			c0,2.011-1.628,3.637-3.636,3.637c-2.008,0-3.636-1.626-3.636-3.637V33.037z M27.516,33.037c0-2.007,1.629-3.637,3.637-3.637
			c2.007,0,3.636,1.63,3.636,3.637v46.061c0,2.011-1.629,3.637-3.636,3.637c-2.008,0-3.637-1.626-3.637-3.637V33.037z"/>
	</g>
</g>
<g>
</g>
<g>
</g>
<g>
</g>
<g>
</g>
<g>
</g>
<g>
</g>
<g>
</g>
<g>
</g>
<g>
</g>
<g>
</g>
<g>
</g>
<g>
</g>
<g>
</g>
<g>
</g>
<g>
</g>
</svg>
