<?xml version="1.0" encoding="iso-8859-1"?>
<!-- Generator: Adobe Illustrator 16.0.0, SVG Export Plug-In . SVG Version: 6.00 Build 0)  -->
<!DOCTYPE svg PUBLIC "-//W3C//DTD SVG 1.1//EN" "http://www.w3.org/Graphics/SVG/1.1/DTD/svg11.dtd">
<svg version="1.1" id="Capa_1" xmlns="http://www.w3.org/2000/svg" xmlns:xlink="http://www.w3.org/1999/xlink" x="0px" y="0px"
	 width="90.347px" height="90.348px" viewBox="0 0 90.347 90.348" style="enable-background:new 0 0 90.347 90.348;"
	 xml:space="preserve">
<g>
	<g>
		<path d="M68.111,40.766c0-2.021-1.4-3.225-3.877-3.225c-1.011,0-1.692,0.098-2.053,0.195v6.482c0.424,0.098,0.944,0.13,1.662,0.13
			C66.482,44.348,68.111,43.013,68.111,40.766z"/>
		<path d="M58.431,0H12.22v90.348h65.907V26.797L54.714,10.63L58.431,0z M57.262,34.251c1.531-0.262,3.681-0.458,6.71-0.458
			c3.062,0,5.245,0.587,6.711,1.76c1.4,1.107,2.346,2.932,2.346,5.082c0,2.151-0.717,3.974-2.021,5.212
			c-1.694,1.596-4.201,2.312-7.133,2.312c-0.653,0-1.238-0.033-1.695-0.098v7.851h-4.919L57.262,34.251L57.262,34.251z
			 M36.065,38.127H30.07v17.786h-4.983V38.127h-5.896v-4.169h16.874V38.127z M54.628,38.127h-5.994v17.786h-4.983V38.127h-5.896
			v-4.169h16.874L54.628,38.127L54.628,38.127z"/>
		<polygon points="63.056,0 60.045,8.613 78.127,21.098 		"/>
	</g>
</g>
<g>
</g>
<g>
</g>
<g>
</g>
<g>
</g>
<g>
</g>
<g>
</g>
<g>
</g>
<g>
</g>
<g>
</g>
<g>
</g>
<g>
</g>
<g>
</g>
<g>
</g>
<g>
</g>
<g>
</g>
</svg>
