<?xml version="1.0" encoding="iso-8859-1"?>
<!-- Generator: Adobe Illustrator 16.0.0, SVG Export Plug-In . SVG Version: 6.00 Build 0)  -->
<!DOCTYPE svg PUBLIC "-//W3C//DTD SVG 1.1//EN" "http://www.w3.org/Graphics/SVG/1.1/DTD/svg11.dtd">
<svg version="1.1" id="Capa_1" xmlns="http://www.w3.org/2000/svg" xmlns:xlink="http://www.w3.org/1999/xlink" x="0px" y="0px"
	 width="95.893px" height="95.892px" viewBox="0 0 95.893 95.892" style="enable-background:new 0 0 95.893 95.892;"
	 xml:space="preserve">
<g>
	<g>
		<path d="M79.689,62.487V15.101c0-1.168-0.947-2.116-2.115-2.116H26.508c-0.632,0-1.195,0.286-1.583,0.728
			c-0.327,0.374-0.532,0.855-0.532,1.389v16.291h-7.66c-0.633,0-1.195,0.286-1.583,0.729c-0.326,0.372-0.531,0.855-0.531,1.388
			v46.577c0,1.166,0.948,2.113,2.115,2.113h51.067c1.166,0,2.115-0.947,2.115-2.113V64.6h7.66
			C78.74,64.6,79.689,63.653,79.689,62.487z M66.367,17.079c1.322,0,2.396,1.069,2.396,2.396c0,1.323-1.074,2.394-2.396,2.394
			c-1.323,0-2.396-1.07-2.396-2.394C63.971,18.148,65.045,17.079,66.367,17.079z M59.295,17.079c1.322,0,2.395,1.069,2.395,2.396
			c0,1.323-1.072,2.394-2.395,2.394c-1.324,0-2.396-1.07-2.396-2.394C56.898,18.148,57.97,17.079,59.295,17.079z M65.135,77.225
			H19.556V44.189h45.579V77.225z M47.123,37.881c0-1.322,1.073-2.394,2.397-2.394c1.322,0,2.396,1.071,2.396,2.394
			c0,1.324-1.073,2.396-2.396,2.396C48.196,40.277,47.123,39.205,47.123,37.881z M54.197,37.881c0-1.322,1.072-2.394,2.396-2.394
			c1.322,0,2.396,1.071,2.396,2.394c0,1.324-1.074,2.396-2.396,2.396C55.27,40.277,54.197,39.205,54.197,37.881z M63.537,40.277
			c-1.323,0-2.396-1.072-2.396-2.396c0-1.322,1.073-2.394,2.396-2.394c1.324,0,2.396,1.071,2.396,2.394
			C65.934,39.205,64.861,40.277,63.537,40.277z M74.908,59.629h-4.994V33.509c0-1.168-0.948-2.116-2.114-2.116H29.332v-5.611h45.576
			V59.629z M73.312,21.869c-1.322,0-2.396-1.07-2.396-2.394c0-1.327,1.073-2.396,2.396-2.396c1.324,0,2.397,1.069,2.397,2.396
			C75.71,20.799,74.637,21.869,73.312,21.869z"/>
		<path d="M14.581,18.658l-2.559,4.012c-0.313-1.232-0.544-2.419-0.661-3.533c-0.266-2.519-0.133-5.971,2.007-8.109
			c2.683-2.683,7.37-2.325,10.828-1.554l1.023-4.583c-6.607-1.477-11.852-0.503-15.171,2.816c-2.73,2.729-3.891,6.851-3.357,11.921
			c0.167,1.575,0.504,3.246,0.987,4.985l-5.153-3.288L0,25.284l11.32,7.22l7.222-11.318L14.581,18.658z"/>
		<path d="M95.893,70.611l-11.318-7.223l-7.221,11.319l3.959,2.526l2.557-4.01c0.312,1.231,0.543,2.417,0.66,3.532
			c0.267,2.519,0.133,5.972-2.006,8.108c-2.684,2.684-7.369,2.325-10.828,1.556l-1.023,4.582c6.609,1.477,11.854,0.501,15.172-2.815
			c2.73-2.729,3.891-6.852,3.357-11.922c-0.168-1.576-0.504-3.245-0.987-4.984l5.153,3.288L95.893,70.611z"/>
	</g>
</g>
<g>
</g>
<g>
</g>
<g>
</g>
<g>
</g>
<g>
</g>
<g>
</g>
<g>
</g>
<g>
</g>
<g>
</g>
<g>
</g>
<g>
</g>
<g>
</g>
<g>
</g>
<g>
</g>
<g>
</g>
</svg>
