<?xml version="1.0" encoding="iso-8859-1"?>
<!-- Generator: Adobe Illustrator 16.0.0, SVG Export Plug-In . SVG Version: 6.00 Build 0)  -->
<!DOCTYPE svg PUBLIC "-//W3C//DTD SVG 1.1//EN" "http://www.w3.org/Graphics/SVG/1.1/DTD/svg11.dtd">
<svg version="1.1" id="Capa_1" xmlns="http://www.w3.org/2000/svg" xmlns:xlink="http://www.w3.org/1999/xlink" x="0px" y="0px"
	 width="94px" height="94px" viewBox="0 0 94 94" style="enable-background:new 0 0 94 94;" xml:space="preserve">
<g>
	<path d="M47,0C21.042,0,0,21.043,0,47s21.042,47,47,47s47-21.043,47-47S72.958,0,47,0z M9.05,29.668l9.032,4.125
		c3.597-7.24,9.607-12.876,17.148-15.998c8.266-3.424,17.37-3.423,25.635,0c8.266,3.424,14.703,9.861,18.126,18.128l-7.886,3.267
		c-2.551-6.161-7.349-10.957-13.508-13.508c-6.158-2.551-12.943-2.553-19.102,0c-5.529,2.289-9.954,6.391-12.647,11.659
		l10.019,4.576L16.333,49.2L9.05,29.668z M75.918,60.207c-3.598,7.24-9.607,12.876-17.148,15.998
		c-8.266,3.424-17.369,3.423-25.635,0c-8.266-3.424-14.703-9.861-18.126-18.128l7.885-3.267c2.552,6.16,7.349,10.957,13.508,13.508
		c6.159,2.551,12.944,2.553,19.102,0c5.529-2.291,9.954-6.393,12.646-11.659l-10.019-4.576L77.667,44.8l7.283,19.532L75.918,60.207z
		"/>
</g>
<g>
</g>
<g>
</g>
<g>
</g>
<g>
</g>
<g>
</g>
<g>
</g>
<g>
</g>
<g>
</g>
<g>
</g>
<g>
</g>
<g>
</g>
<g>
</g>
<g>
</g>
<g>
</g>
<g>
</g>
</svg>
