<?xml version="1.0" encoding="iso-8859-1"?>
<!-- Generator: Adobe Illustrator 16.0.0, SVG Export Plug-In . SVG Version: 6.00 Build 0)  -->
<!DOCTYPE svg PUBLIC "-//W3C//DTD SVG 1.1//EN" "http://www.w3.org/Graphics/SVG/1.1/DTD/svg11.dtd">
<svg version="1.1" id="Capa_1" xmlns="http://www.w3.org/2000/svg" xmlns:xlink="http://www.w3.org/1999/xlink" x="0px" y="0px"
	 width="93.287px" height="93.286px" viewBox="0 0 93.287 93.286" style="enable-background:new 0 0 93.287 93.286;"
	 xml:space="preserve">
<g>
	<path d="M6.142,0v18.35v5.869v18.352h81.002V24.219V18.35V0H6.142z M30.122,37.243H11.47V24.219h18.652V37.243z M30.122,18.35
		H11.47V5.329h18.652V18.35z M58.367,37.243H35.452V24.219h22.915V37.243z M58.367,18.35H35.452V5.329h22.915V18.35z M81.815,37.243
		H63.697V24.219h18.118V37.243z M81.815,18.35H63.697V5.329h18.118V18.35z M6.142,69.064v5.869v18.353h81.002V74.934v-5.869v-18.35
		H6.142V69.064z M63.697,56.043h18.118v13.021H63.697V56.043z M63.697,74.934h18.118v13.021H63.697V74.934z M35.452,56.043h22.915
		v13.021H35.452V56.043z M35.452,74.934h22.915v13.021H35.452V74.934z M11.47,56.043h18.652v13.021H11.47V56.043z M11.47,74.934
		h18.652v13.021H11.47V74.934z"/>
</g>
<g>
</g>
<g>
</g>
<g>
</g>
<g>
</g>
<g>
</g>
<g>
</g>
<g>
</g>
<g>
</g>
<g>
</g>
<g>
</g>
<g>
</g>
<g>
</g>
<g>
</g>
<g>
</g>
<g>
</g>
</svg>
