<?xml version="1.0" encoding="iso-8859-1"?>
<!-- Generator: Adobe Illustrator 16.0.0, SVG Export Plug-In . SVG Version: 6.00 Build 0)  -->
<!DOCTYPE svg PUBLIC "-//W3C//DTD SVG 1.1//EN" "http://www.w3.org/Graphics/SVG/1.1/DTD/svg11.dtd">
<svg version="1.1" id="Capa_1" xmlns="http://www.w3.org/2000/svg" xmlns:xlink="http://www.w3.org/1999/xlink" x="0px" y="0px"
	 width="93.133px" height="93.133px" viewBox="0 0 93.133 93.133" style="enable-background:new 0 0 93.133 93.133;"
	 xml:space="preserve">
<g>
	<g>
		<path d="M69.342,17.13c0,4.098-3.334,7.433-7.434,7.433H43.792V13.134L22.245,29.413L43.791,45.69V34.26h18.117
			c9.447,0,17.131-7.685,17.131-17.13S71.354,0,61.908,0H14.094v9.696h47.814C66.008,9.697,69.342,13.031,69.342,17.13z"/>
		<path d="M61.908,47.443H14.094v9.697h47.814c4.1,0,7.434,3.336,7.434,7.432c0,4.102-3.334,7.436-7.434,7.436H43.792v-11.43
			L22.245,76.855l21.546,16.277v-11.43h18.117c9.447,0,17.131-7.686,17.131-17.131C79.04,55.129,71.355,47.443,61.908,47.443z"/>
	</g>
</g>
<g>
</g>
<g>
</g>
<g>
</g>
<g>
</g>
<g>
</g>
<g>
</g>
<g>
</g>
<g>
</g>
<g>
</g>
<g>
</g>
<g>
</g>
<g>
</g>
<g>
</g>
<g>
</g>
<g>
</g>
</svg>
