<?xml version="1.0" encoding="iso-8859-1"?>
<!-- Generator: Adobe Illustrator 16.0.0, SVG Export Plug-In . SVG Version: 6.00 Build 0)  -->
<!DOCTYPE svg PUBLIC "-//W3C//DTD SVG 1.1//EN" "http://www.w3.org/Graphics/SVG/1.1/DTD/svg11.dtd">
<svg version="1.1" id="Capa_1" xmlns="http://www.w3.org/2000/svg" xmlns:xlink="http://www.w3.org/1999/xlink" x="0px" y="0px"
	 width="93.757px" height="93.757px" viewBox="0 0 93.757 93.757" style="enable-background:new 0 0 93.757 93.757;"
	 xml:space="preserve">
<g>
	<g>
		<polygon points="60.81,0 57.705,8.872 76.339,21.738 		"/>
		<path d="M67.023,73.288c-1.75,0-3.168,1.419-3.168,3.168c0,1.086,0.545,2.043,1.379,2.614v4.836h3.578V79.07
			c0.832-0.571,1.379-1.528,1.379-2.614C70.191,74.707,68.773,73.288,67.023,73.288z"/>
		<path d="M83.671,60.378c-0.648-5.783-4.255-10.681-9.264-13.151V28.27L50.281,11.611l3.832-10.949H6.496v93.095h46.287h21.625
			h6.854c3.312,0,6-2.687,6-6V65.875C87.261,63.418,85.785,61.306,83.671,60.378z M81.361,87.413H52.683V65.378h20.672v-3.642
			c0-3.492-2.84-6.334-6.332-6.334s-6.332,2.842-6.332,6.334h-4.498c0-5.973,4.857-10.83,10.83-10.83
			c5.971,0,10.83,4.857,10.83,10.83v3.642h3.508V87.413L81.361,87.413z"/>
	</g>
</g>
<g>
</g>
<g>
</g>
<g>
</g>
<g>
</g>
<g>
</g>
<g>
</g>
<g>
</g>
<g>
</g>
<g>
</g>
<g>
</g>
<g>
</g>
<g>
</g>
<g>
</g>
<g>
</g>
<g>
</g>
</svg>
