<?xml version="1.0" encoding="iso-8859-1"?>
<!-- Generator: Adobe Illustrator 16.0.0, SVG Export Plug-In . SVG Version: 6.00 Build 0)  -->
<!DOCTYPE svg PUBLIC "-//W3C//DTD SVG 1.1//EN" "http://www.w3.org/Graphics/SVG/1.1/DTD/svg11.dtd">
<svg version="1.1" id="Capa_1" xmlns="http://www.w3.org/2000/svg" xmlns:xlink="http://www.w3.org/1999/xlink" x="0px" y="0px"
	 width="91.945px" height="91.945px" viewBox="0 0 91.945 91.945" style="enable-background:new 0 0 91.945 91.945;"
	 xml:space="preserve">
<g>
	<path d="M90.333,11.149l-6.655-6.656c-1.031-1.031-2.431-1.611-3.89-1.611s-2.856,0.58-3.89,1.611L57.857,22.536H56.77
		l-9.039-9.037c-2.146-2.148-5.631-2.148-7.777,0l-6.656,6.656c-0.686,0.684-1.127,1.512-1.375,2.381H16.568l-1.394-6.893
		L1.245,13.322L0,20.789l8.785,1.465l9.32,44.965l-4.092,13.01h5.658c-0.32,0.771-0.5,1.625-0.5,2.521
		c0,3.486,2.656,6.312,5.934,6.312c3.276,0,5.932-2.826,5.932-6.312c0-0.896-0.18-1.75-0.496-2.521H61.83
		c-0.318,0.771-0.496,1.625-0.496,2.521c0,3.486,2.654,6.312,5.932,6.312c3.274,0,5.932-2.826,5.932-6.312
		c0-0.896-0.18-1.75-0.498-2.521h5.018v-7.572H24.331l0.766-2.43l53.036-22.189v-5.819v-4.738v-6.35l12.2-12.203
		C92.482,16.781,92.482,13.298,90.333,11.149z M56.982,44.822L36.855,24.693l6.656-6.656l13.471,13.472L79.459,9.032l6.656,6.656
		L56.982,44.822z"/>
</g>
<g>
</g>
<g>
</g>
<g>
</g>
<g>
</g>
<g>
</g>
<g>
</g>
<g>
</g>
<g>
</g>
<g>
</g>
<g>
</g>
<g>
</g>
<g>
</g>
<g>
</g>
<g>
</g>
<g>
</g>
</svg>
