<?xml version="1.0" encoding="iso-8859-1"?>
<!-- Generator: Adobe Illustrator 16.0.0, SVG Export Plug-In . SVG Version: 6.00 Build 0)  -->
<!DOCTYPE svg PUBLIC "-//W3C//DTD SVG 1.1//EN" "http://www.w3.org/Graphics/SVG/1.1/DTD/svg11.dtd">
<svg version="1.1" id="Capa_1" xmlns="http://www.w3.org/2000/svg" xmlns:xlink="http://www.w3.org/1999/xlink" x="0px" y="0px"
	 width="94.5px" height="94.5px" viewBox="0 0 94.5 94.5" style="enable-background:new 0 0 94.5 94.5;" xml:space="preserve">
<g>
	<path d="M47.25,82c12.706,0,23.318,4.472,25.896,10.438H94.5c0-11.078-10.663-20.66-26.182-25.296
		c-0.435-2.311-1.109-4.516-2.037-6.54c8.08-5.89,13.352-15.398,13.352-26.161c0-17.883-14.498-32.381-32.383-32.381
		S14.867,16.559,14.867,34.442c0,10.763,5.271,20.271,13.352,26.161c-0.928,2.024-1.604,4.229-2.038,6.54
		C10.664,71.779,0,81.361,0,92.439h21.354C23.932,86.472,34.544,82,47.25,82z M47.25,10.896c2.355,0,4.268,1.909,4.268,4.266
		s-1.912,4.268-4.268,4.268c-2.356,0-4.268-1.912-4.268-4.269S44.894,10.896,47.25,10.896z M47.25,24.262
		c7.9,0,14.305,6.403,14.305,14.304c0,7.899-6.404,14.304-14.305,14.304c-7.901,0-14.304-6.404-14.304-14.304
		C32.946,30.665,39.35,24.262,47.25,24.262z"/>
</g>
<g>
</g>
<g>
</g>
<g>
</g>
<g>
</g>
<g>
</g>
<g>
</g>
<g>
</g>
<g>
</g>
<g>
</g>
<g>
</g>
<g>
</g>
<g>
</g>
<g>
</g>
<g>
</g>
<g>
</g>
</svg>
