<?xml version="1.0" encoding="iso-8859-1"?>
<!-- Generator: Adobe Illustrator 16.0.0, SVG Export Plug-In . SVG Version: 6.00 Build 0)  -->
<!DOCTYPE svg PUBLIC "-//W3C//DTD SVG 1.1//EN" "http://www.w3.org/Graphics/SVG/1.1/DTD/svg11.dtd">
<svg version="1.1" id="Capa_1" xmlns="http://www.w3.org/2000/svg" xmlns:xlink="http://www.w3.org/1999/xlink" x="0px" y="0px"
	 width="94.43px" height="94.43px" viewBox="0 0 94.43 94.43" style="enable-background:new 0 0 94.43 94.43;" xml:space="preserve"
	>
<g>
	<g id="Layer_1_5_">
		<path d="M91.541,0H2.889C1.293,0,0,1.293,0,2.89v88.65c0,1.596,1.293,2.89,2.889,2.89h88.652c1.596,0,2.889-1.294,2.889-2.89V2.89
			C94.43,1.293,93.137,0,91.541,0z M43.489,73.009l-20.012,4.526V51.04l20.012-0.199V73.009z M43.489,43.689l-20.012-0.598V16.894
			l20.012,3.359V43.689z M70.951,66.795L50.939,71.32V50.841l20.012-0.199V66.795z M70.951,44.486l-20.012-0.697V21.504
			l20.012,3.359V44.486z"/>
	</g>
</g>
<g>
</g>
<g>
</g>
<g>
</g>
<g>
</g>
<g>
</g>
<g>
</g>
<g>
</g>
<g>
</g>
<g>
</g>
<g>
</g>
<g>
</g>
<g>
</g>
<g>
</g>
<g>
</g>
<g>
</g>
</svg>
