<?xml version="1.0" encoding="iso-8859-1"?>
<!-- Generator: Adobe Illustrator 16.0.0, SVG Export Plug-In . SVG Version: 6.00 Build 0)  -->
<!DOCTYPE svg PUBLIC "-//W3C//DTD SVG 1.1//EN" "http://www.w3.org/Graphics/SVG/1.1/DTD/svg11.dtd">
<svg version="1.1" id="Capa_1" xmlns="http://www.w3.org/2000/svg" xmlns:xlink="http://www.w3.org/1999/xlink" x="0px" y="0px"
	 width="93.952px" height="93.952px" viewBox="0 0 93.952 93.952" style="enable-background:new 0 0 93.952 93.952;"
	 xml:space="preserve">
<g>
	<path d="M91.044,16.955H38.028c-0.339-1.096-1.029-2.058-2.001-2.701c-1.212-0.802-2.715-1.039-4.111-0.645l-3.287,0.922
		l0.313-2.915c0.151-1.413-0.304-2.822-1.253-3.877c-0.949-1.057-2.301-1.66-3.721-1.66h-8.621c-1.419,0-2.773,0.603-3.722,1.66
		c-0.949,1.056-1.404,2.465-1.251,3.877l0.306,2.854l-2.962-0.852c-1.375-0.394-2.854-0.182-4.062,0.585s-2.031,2.015-2.259,3.428
		l-1.333,8.271c-0.223,1.378,0.142,2.786,1.002,3.884c0.861,1.098,2.142,1.787,3.533,1.899l0.237,0.019L4.172,32.6
		c-0.875,1.175-1.188,2.674-0.861,4.101c0.328,1.427,1.264,2.64,2.562,3.316l3.206,1.673v43.278c0,1.602,1.303,2.906,2.906,2.906
		h79.06c1.604,0,2.907-1.305,2.907-2.906V19.86C93.951,18.259,92.647,16.955,91.044,16.955z M75.646,21.464
		c1.816,0,3.292,1.474,3.292,3.293c0,1.818-1.476,3.292-3.292,3.292c-1.819,0-3.293-1.474-3.293-3.292
		C72.354,22.938,73.828,21.464,75.646,21.464z M65.927,21.464c1.816,0,3.292,1.474,3.292,3.293c0,1.818-1.476,3.292-3.292,3.292
		c-1.818,0-3.292-1.474-3.292-3.292C62.635,22.938,64.108,21.464,65.927,21.464z M8.067,35.489l6.044-8.137l-9.229-0.747
		l1.334-8.271l10.111,2.905l-1.1-10.251h8.622L22.747,21.25l10.4-2.917l1.067,8.275l-9.227,0.744l6.161,8.12l-7.523,4.047
		l-4.122-8.39l-3.702,8.398L8.067,35.489z M87.383,81.042H52.017h-3.285H15.862V44.62c0.02,0,0.041,0.003,0.06,0.003
		c0.558,0,1.117-0.093,1.654-0.281c0.898-0.315,1.679-0.875,2.26-1.606c0.61,0.763,1.435,1.338,2.38,1.641
		c1.293,0.414,2.701,0.286,3.897-0.358l7.525-4.048c1.287-0.693,2.207-1.914,2.518-3.342c0.151-0.698,0.146-1.41,0.001-2.092h51.224
		v46.505H87.383z M85.188,28.051c-1.817,0-3.292-1.474-3.292-3.292c0-1.819,1.475-3.293,3.292-3.293
		c1.819,0,3.293,1.474,3.293,3.293C88.481,26.577,87.008,28.051,85.188,28.051z"/>
</g>
<g>
</g>
<g>
</g>
<g>
</g>
<g>
</g>
<g>
</g>
<g>
</g>
<g>
</g>
<g>
</g>
<g>
</g>
<g>
</g>
<g>
</g>
<g>
</g>
<g>
</g>
<g>
</g>
<g>
</g>
</svg>
