<?xml version="1.0" encoding="iso-8859-1"?>
<!-- Generator: Adobe Illustrator 16.0.0, SVG Export Plug-In . SVG Version: 6.00 Build 0)  -->
<!DOCTYPE svg PUBLIC "-//W3C//DTD SVG 1.1//EN" "http://www.w3.org/Graphics/SVG/1.1/DTD/svg11.dtd">
<svg version="1.1" id="Capa_1" xmlns="http://www.w3.org/2000/svg" xmlns:xlink="http://www.w3.org/1999/xlink" x="0px" y="0px"
	 width="90.9px" height="90.9px" viewBox="0 0 90.9 90.9" style="enable-background:new 0 0 90.9 90.9;" xml:space="preserve">
<g>
	<g>
		<polygon points="62.811,0 59.782,8.666 77.975,21.227 		"/>
		<path d="M79.393,31.176h-1.305v-4.215L54.531,10.695L58.271,0H11.777v31.176h-0.271c-1.504,0-2.723,1.219-2.723,2.722v23.65
			c0,1.503,1.219,2.722,2.723,2.722h0.271V90.9H78.09V60.271h1.305c1.504,0,2.723-1.22,2.723-2.723v-23.65
			C82.116,32.395,80.896,31.176,79.393,31.176z M27.526,56.173l-1.999-3.999c-0.818-1.541-1.345-2.688-1.967-3.965h-0.064
			c-0.46,1.277-1.018,2.425-1.706,3.965l-1.835,3.999h-5.703l6.391-11.177l-6.162-10.913h5.737l1.933,4.03
			c0.656,1.344,1.148,2.426,1.672,3.671h0.064c0.525-1.409,0.951-2.393,1.51-3.671l1.866-4.03h5.702l-6.227,10.783l6.557,11.307
			H27.526z M54.989,56.173l-0.33-8.456c-0.099-2.654-0.196-5.867-0.196-9.079h-0.099c-0.687,2.818-1.604,5.964-2.457,8.554
			l-2.688,8.621H45.32l-2.361-8.555c-0.72-2.589-1.473-5.736-1.999-8.62h-0.063c-0.133,2.983-0.231,6.391-0.394,9.144l-0.394,8.392
			h-4.623l1.411-22.09h6.652l2.164,7.374c0.688,2.558,1.376,5.311,1.868,7.9h0.099c0.623-2.559,1.375-5.475,2.099-7.933l2.358-7.342
			h6.521l1.215,22.09H54.989z M77.497,56.173H63.7v-22.09h5.015v17.896h8.782V56.173z"/>
	</g>
</g>
<g>
</g>
<g>
</g>
<g>
</g>
<g>
</g>
<g>
</g>
<g>
</g>
<g>
</g>
<g>
</g>
<g>
</g>
<g>
</g>
<g>
</g>
<g>
</g>
<g>
</g>
<g>
</g>
<g>
</g>
</svg>
